<?xml version="1.0" encoding="UTF-8" standalone="no"?>
<svg
   xmlns:dc="http://purl.org/dc/elements/1.1/"
   xmlns:cc="http://creativecommons.org/ns#"
   xmlns:rdf="http://www.w3.org/1999/02/22-rdf-syntax-ns#"
   xmlns:svg="http://www.w3.org/2000/svg"
   xmlns="http://www.w3.org/2000/svg"
   xmlns:sodipodi="http://sodipodi.sourceforge.net/DTD/sodipodi-0.dtd"
   xmlns:inkscape="http://www.inkscape.org/namespaces/inkscape"
   width="2.2239583in"
   stroke-miterlimit="10"
   font-weight="normal"
   viewBox="0 0 213.49999 222.49999"
   height="2.3177083in"
   font-style="normal"
   font-size="12"
   id="svg2"
   version="1.1"
   inkscape:version="0.91 r13725"
   sodipodi:docname="support-tools.svg"
   style="font-style:normal;font-weight:normal;font-size:12px;font-family:Dialog;color-interpolation:auto;fill:#000000;fill-opacity:1;stroke:#000000;stroke-width:1;stroke-linecap:square;stroke-linejoin:miter;stroke-miterlimit:10;stroke-dasharray:none;stroke-dashoffset:0;stroke-opacity:1;color-rendering:auto;image-rendering:auto;shape-rendering:auto;text-rendering:auto">
  <metadata
     id="metadata177">
    <rdf:RDF>
      <cc:Work
         rdf:about="">
        <dc:format>image/svg+xml</dc:format>
        <dc:type
           rdf:resource="http://purl.org/dc/dcmitype/StillImage" />
        <dc:title></dc:title>
      </cc:Work>
    </rdf:RDF>
  </metadata>
  <sodipodi:namedview
     pagecolor="#ffffff"
     bordercolor="#666666"
     borderopacity="1"
     objecttolerance="10"
     gridtolerance="10"
     guidetolerance="10"
     inkscape:pageopacity="0"
     inkscape:pageshadow="2"
     inkscape:window-width="958"
     inkscape:window-height="1059"
     id="namedview175"
     showgrid="false"
     fit-margin-top="0"
     fit-margin-left="0"
     fit-margin-right="0"
     fit-margin-bottom="0"
     inkscape:zoom="1.4466614"
     inkscape:cx="166.27756"
     inkscape:cy="65.571883"
     inkscape:window-x="0"
     inkscape:window-y="19"
     inkscape:window-maximized="0"
     inkscape:current-layer="svg2" />
  <!--Generated by the Batik Graphics2D SVG Generator
 This is MagicDraw diagram.-->
  <defs
     id="genericDefs">
    <defs
       id="defs1">
      <linearGradient
         spreadMethod="pad"
         id="linearGradient1"
         y2="296"
         y1="224"
         x2="252"
         gradientUnits="userSpaceOnUse"
         x1="42">
        <stop
           id="stop9"
           offset="0%"
           stop-color="rgb(255,204,153)"
           stop-opacity="1" />
        <stop
           id="stop11"
           offset="100%"
           stop-color="rgb(255,255,218)"
           stop-opacity="1" />
      </linearGradient>
      <linearGradient
         spreadMethod="pad"
         id="linearGradient2"
         y2="176"
         y1="140"
         x2="185"
         gradientUnits="userSpaceOnUse"
         x1="98">
        <stop
           id="stop14"
           offset="0%"
           stop-color="rgb(255,204,153)"
           stop-opacity="1" />
        <stop
           id="stop16"
           offset="100%"
           stop-color="rgb(255,255,218)"
           stop-opacity="1" />
      </linearGradient>
      <linearGradient
         spreadMethod="pad"
         id="linearGradient3"
         y2="113"
         y1="77"
         x2="160"
         gradientUnits="userSpaceOnUse"
         x1="119">
        <stop
           id="stop19"
           offset="0%"
           stop-color="rgb(255,204,153)"
           stop-opacity="1" />
        <stop
           id="stop21"
           offset="100%"
           stop-color="rgb(255,255,218)"
           stop-opacity="1" />
      </linearGradient>
      <clipPath
         id="clipPath1"
         clipPathUnits="userSpaceOnUse">
        <path
           id="path24"
           d="m 0,-5 1293,0 0,908 L 0,903 0,-5 Z"
           inkscape:connector-curvature="0" />
      </clipPath>
      <clipPath
         id="clipPath2"
         clipPathUnits="userSpaceOnUse">
        <path
           id="path27"
           d="M -0.8039,112.1024 887.201,-800.025 1519.8864,-184.0719 631.8815,728.0555 -0.8039,112.1024 Z"
           inkscape:connector-curvature="0" />
      </clipPath>
    </defs>
  </defs>
  <g
     id="g3668"
     transform="translate(-292.19217,-105.99319)">
    <rect
       transform="translate(250.69217,29.493193)"
       style="fill:#b2b2b2;stroke:none;stroke-linecap:butt;stroke-linejoin:round;text-rendering:geometricPrecision"
       id="rect101"
       height="72"
       width="210"
       clip-path="url(#clipPath1)"
       y="227"
       x="45" />
    <rect
       transform="translate(250.69217,29.493193)"
       style="fill:url(#linearGradient1);stroke:none;stroke-linecap:butt;stroke-linejoin:round;text-rendering:geometricPrecision"
       id="rect103"
       height="72"
       width="210"
       clip-path="url(#clipPath1)"
       y="224"
       x="42" />
    <rect
       transform="translate(250.69217,29.493193)"
       style="fill:none;stroke:#99795c;stroke-linecap:butt;stroke-linejoin:round;text-rendering:geometricPrecision"
       id="rect105"
       height="72"
       width="210"
       clip-path="url(#clipPath1)"
       y="224"
       x="42" />
    <line
       transform="translate(250.69217,29.493193)"
       style="fill:none;stroke:#99795c;stroke-linecap:butt;stroke-linejoin:round;text-rendering:geometricPrecision"
       id="line107"
       y2="242"
       y1="242"
       x2="252"
       x1="42"
       clip-path="url(#clipPath1)" />
    <line
       transform="translate(250.69217,29.493193)"
       style="fill:none;stroke:#99795c;stroke-linecap:butt;stroke-linejoin:round;text-rendering:geometricPrecision"
       id="line109"
       y2="251"
       y1="251"
       x2="252"
       x1="42"
       clip-path="url(#clipPath1)" />
    <path
       transform="translate(250.69217,29.493193)"
       style="fill:#000000;stroke:none;stroke-linecap:butt;stroke-linejoin:round;text-rendering:geometricPrecision"
       inkscape:connector-curvature="0"
       id="path111"
       clip-path="url(#clipPath1)"
       d="m 50.0625,257.3198 0,2.9844 2.9844,0 0,0.9219 -2.9844,0 0,2.9843 -0.9063,0 0,-2.9843 -2.9843,0 0,-0.9219 2.9843,0 0,-2.9844 0.9063,0 z" />
    <path
       transform="translate(250.69217,29.493193)"
       style="fill:#000028;stroke:none;stroke-linecap:butt;stroke-linejoin:round;text-rendering:geometricPrecision"
       inkscape:connector-curvature="0"
       id="path113"
       clip-path="url(#clipPath1)"
       d="m 59,261.1323 q 0,-1.0781 -0.4453,-1.664 -0.4453,-0.586 -1.2422,-0.586 -0.7969,0 -1.2422,0.586 -0.4453,0.5859 -0.4453,1.664 0,1.0625 0.4453,1.6563 0.4453,0.5937 1.2422,0.5937 0.7969,0 1.2422,-0.5937 Q 59,262.1948 59,261.1323 Z m 0.9844,2.3281 q 0,1.5469 -0.6797,2.2891 -0.6797,0.7422 -2.0859,0.7422 -0.5313,0 -0.9922,-0.0781 -0.461,-0.0782 -0.8985,-0.2344 l 0,-0.9531 q 0.4375,0.2343 0.8594,0.3437 0.4219,0.1094 0.875,0.1094 0.9687,0 1.4531,-0.5078 Q 59,264.6636 59,263.6479 l 0,-0.5 q -0.3125,0.5313 -0.7891,0.7969 -0.4765,0.2656 -1.1484,0.2656 -1.1094,0 -1.7813,-0.8437 -0.6718,-0.8438 -0.6718,-2.2344 0,-1.3906 0.6718,-2.2344 0.6719,-0.8437 1.7813,-0.8437 0.6719,0 1.1484,0.2578 0.4766,0.2578 0.7891,0.7891 l 0,-0.9063 0.9844,0 0,5.2656 z m 7.2031,-2.5 0,0.4844 -4.5469,0 q 0.0625,1.0156 0.6094,1.5469 0.5469,0.5312 1.5312,0.5312 0.5782,0 1.1094,-0.1406 0.5313,-0.1406 1.0625,-0.4062 l 0,0.9218 q -0.5312,0.2344 -1.0937,0.3516 -0.5625,0.1172 -1.125,0.1172 -1.4532,0 -2.2891,-0.8359 -0.8359,-0.836 -0.8359,-2.2735 0,-1.4687 0.7968,-2.3359 0.7969,-0.8672 2.1563,-0.8672 1.2031,0 1.9141,0.7812 0.7109,0.7813 0.7109,2.125 z m -1,-0.2968 q 0,-0.8125 -0.4453,-1.2969 -0.4453,-0.4844 -1.1797,-0.4844 -0.8281,0 -1.3203,0.4688 -0.4922,0.4687 -0.5703,1.3125 l 3.5156,0 z m 3.8281,-4.1719 0,1.7031 2.0313,0 0,0.7656 -2.0313,0 0,3.2657 q 0,0.7343 0.2032,0.9453 0.2031,0.2109 0.8124,0.2109 l 1.0157,0 0,0.8281 -1.0157,0 q -1.1406,0 -1.5781,-0.4296 -0.4375,-0.4297 -0.4375,-1.5547 l 0,-3.2657 -0.7187,0 0,-0.7656 0.7187,0 0,-1.7031 1,0 z m 5.3906,-0.625 q -0.7187,1.2344 -1.0624,2.4453 Q 74,259.5229 74,260.7573 q 0,1.2344 0.3516,2.4531 0.3515,1.2188 1.0546,2.4532 l -0.8593,0 q -0.7969,-1.2657 -1.1953,-2.4844 -0.3985,-1.2188 -0.3985,-2.4219 0,-1.2031 0.3907,-2.414 0.3906,-1.211 1.2031,-2.4766 l 0.8593,0 z m 5.625,2.3281 1,0 0,6.0156 -1,0 0,-6.0156 z m 0,-2.3437 1,0 0,1.25 -1,0 0,-1.25 z m 6.9688,3.25 0,-3.25 0.9844,0 0,8.3593 -0.9844,0 0,-0.9062 q -0.3125,0.5469 -0.7891,0.8047 -0.4765,0.2578 -1.1484,0.2578 -1.0781,0 -1.7656,-0.8672 -0.6875,-0.8672 -0.6875,-2.2891 0,-1.4218 0.6875,-2.289 0.6875,-0.8672 1.7656,-0.8672 0.6719,0 1.1484,0.2578 0.4766,0.2578 0.7891,0.7891 z m -3.375,2.1093 q 0,1.0938 0.4531,1.711 0.4531,0.6172 1.2344,0.6172 0.7813,0 1.2344,-0.6172 Q 88,262.3042 88,261.2104 q 0,-1.0937 -0.4531,-1.7109 -0.4531,-0.6172 -1.2344,-0.6172 -0.7813,0 -1.2344,0.6172 -0.4531,0.6172 -0.4531,1.7109 z m 10.25,-5.3437 0.8594,0 q 0.8125,1.2656 1.2109,2.4766 0.3985,1.2109 0.3985,2.414 0,1.2031 -0.3985,2.4219 -0.3984,1.2187 -1.2109,2.4844 l -0.8594,0 q 0.7188,-1.2344 1.0703,-2.4532 0.3516,-1.2187 0.3516,-2.4531 0,-1.2344 -0.3516,-2.4453 -0.3515,-1.2109 -1.0703,-2.4453 z" />
    <path
       transform="translate(250.69217,29.493193)"
       style="fill:#404040;stroke:none;stroke-linecap:butt;stroke-linejoin:round;text-rendering:geometricPrecision"
       inkscape:connector-curvature="0"
       id="path115"
       clip-path="url(#clipPath1)"
       d="m 103.2969,262.8511 1.125,0 0,1.3593 -1.125,0 0,-1.3593 z m 0,-4.3282 1.125,0 0,1.3594 -1.125,0 0,-1.3594 z m 7.7812,-2.3281 1.625,0 2.0469,5.4531 2.0469,-5.4531 1.625,0 0,8.0156 -1.0625,0 0,-7.0468 -2.0625,5.5 -1.0938,0 -2.0781,-5.5 0,7.0468 -1.0469,0 0,-8.0156 z m 14.1094,4.7656 0,0.4844 -4.5469,0 q 0.0625,1.0156 0.6094,1.5469 0.5469,0.5312 1.5312,0.5312 0.5782,0 1.1094,-0.1406 0.5313,-0.1406 1.0625,-0.4062 l 0,0.9218 q -0.5312,0.2344 -1.0937,0.3516 -0.5625,0.1172 -1.125,0.1172 -1.4532,0 -2.2891,-0.8359 -0.8359,-0.836 -0.8359,-2.2735 0,-1.4687 0.7968,-2.3359 0.7969,-0.8672 2.1563,-0.8672 1.2031,0 1.9141,0.7812 0.7109,0.7813 0.7109,2.125 z m -1,-0.2968 q 0,-0.8125 -0.4453,-1.2969 -0.4453,-0.4844 -1.1797,-0.4844 -0.8281,0 -1.3203,0.4688 -0.4922,0.4687 -0.5703,1.3125 l 3.5156,0 z m 6.6875,-2.2969 0,0.9375 q -0.4219,-0.2188 -0.875,-0.3203 -0.4531,-0.1016 -0.9375,-0.1016 -0.7344,0 -1.1016,0.2266 -0.3671,0.2265 -0.3671,0.664 0,0.3438 0.2656,0.5391 0.2656,0.1953 1.0625,0.3828 l 0.3281,0.0781 q 1.0625,0.2188 1.5,0.6329 0.4375,0.414 0.4375,1.1484 0,0.8281 -0.6563,1.3203 -0.6562,0.4922 -1.8281,0.4922 -0.4843,0 -1.0078,-0.0938 -0.5234,-0.0937 -1.1015,-0.2812 l 0,-1.0156 q 0.5468,0.2812 1.0781,0.4218 0.5312,0.1407 1.0625,0.1407 0.6875,0 1.0625,-0.2422 0.375,-0.2422 0.375,-0.6641 0,-0.4062 -0.2657,-0.625 -0.2656,-0.2187 -1.1874,-0.4062 l -0.3438,-0.0938 q -0.9219,-0.1875 -1.3281,-0.5859 -0.4063,-0.3985 -0.4063,-1.1016 0,-0.8437 0.6016,-1.3047 0.6016,-0.4609 1.7109,-0.4609 0.5469,0 1.0313,0.0781 0.4844,0.0781 0.8906,0.2344 z m 7,0 0,0.9375 q -0.4219,-0.2188 -0.875,-0.3203 -0.4531,-0.1016 -0.9375,-0.1016 -0.7344,0 -1.1016,0.2266 -0.3671,0.2265 -0.3671,0.664 0,0.3438 0.2656,0.5391 0.2656,0.1953 1.0625,0.3828 l 0.3281,0.0781 q 1.0625,0.2188 1.5,0.6329 0.4375,0.414 0.4375,1.1484 0,0.8281 -0.6563,1.3203 -0.6562,0.4922 -1.8281,0.4922 -0.4843,0 -1.0078,-0.0938 -0.5234,-0.0937 -1.1015,-0.2812 l 0,-1.0156 q 0.5468,0.2812 1.0781,0.4218 0.5312,0.1407 1.0625,0.1407 0.6875,0 1.0625,-0.2422 0.375,-0.2422 0.375,-0.6641 0,-0.4062 -0.2657,-0.625 -0.2656,-0.2187 -1.1874,-0.4062 l -0.3438,-0.0938 q -0.9219,-0.1875 -1.3281,-0.5859 -0.4063,-0.3985 -0.4063,-1.1016 0,-0.8437 0.6016,-1.3047 0.6016,-0.4609 1.7109,-0.4609 0.5469,0 1.0313,0.0781 0.4844,0.0781 0.8906,0.2344 z m 5.8906,2.8125 q -1.1875,0 -1.6484,0.2812 -0.461,0.2813 -0.461,0.9375 0,0.5157 0.3438,0.8282 0.3438,0.3125 0.9375,0.3125 0.8281,0 1.3203,-0.586 0.4922,-0.5859 0.4922,-1.539 l 0,-0.2344 -0.9844,0 z m 1.9688,-0.4063 0,3.4375 -0.9844,0 0,-0.9062 q -0.3281,0.5469 -0.8359,0.8047 -0.5079,0.2578 -1.2422,0.2578 -0.9219,0 -1.4688,-0.5156 -0.5469,-0.5157 -0.5469,-1.3907 0,-1.0156 0.6797,-1.5312 0.6797,-0.5156 2.0391,-0.5156 l 1.375,0 0,-0.0938 q 0,-0.6875 -0.4453,-1.0625 -0.4453,-0.375 -1.2578,-0.375 -0.5157,0 -1.0078,0.125 -0.4922,0.125 -0.9453,0.375 l 0,-0.9062 q 0.5468,-0.2188 1.0624,-0.3203 0.5157,-0.1016 0.9844,-0.1016 1.3125,0 1.9532,0.6719 0.6406,0.6718 0.6406,2.0468 z M 152,261.1323 q 0,-1.0781 -0.4453,-1.664 -0.4453,-0.586 -1.2422,-0.586 -0.7969,0 -1.2422,0.586 -0.4453,0.5859 -0.4453,1.664 0,1.0625 0.4453,1.6563 0.4453,0.5937 1.2422,0.5937 0.7969,0 1.2422,-0.5937 Q 152,262.1948 152,261.1323 Z m 0.9844,2.3281 q 0,1.5469 -0.6797,2.2891 -0.6797,0.7422 -2.0859,0.7422 -0.5313,0 -0.9922,-0.0781 -0.461,-0.0782 -0.8985,-0.2344 l 0,-0.9531 q 0.4375,0.2343 0.8594,0.3437 0.4219,0.1094 0.875,0.1094 0.9687,0 1.4531,-0.5078 Q 152,264.6636 152,263.6479 l 0,-0.5 q -0.3125,0.5313 -0.7891,0.7969 -0.4765,0.2656 -1.1484,0.2656 -1.1094,0 -1.7813,-0.8437 -0.6718,-0.8438 -0.6718,-2.2344 0,-1.3906 0.6718,-2.2344 0.6719,-0.8437 1.7813,-0.8437 0.6719,0 1.1484,0.2578 0.4766,0.2578 0.7891,0.7891 l 0,-0.9063 0.9844,0 0,5.2656 z m 7.2031,-2.5 0,0.4844 -4.5469,0 q 0.0625,1.0156 0.6094,1.5469 0.5469,0.5312 1.5312,0.5312 0.5782,0 1.1094,-0.1406 0.5313,-0.1406 1.0625,-0.4062 l 0,0.9218 q -0.5312,0.2344 -1.0937,0.3516 -0.5625,0.1172 -1.125,0.1172 -1.4532,0 -2.2891,-0.8359 -0.8359,-0.836 -0.8359,-2.2735 0,-1.4687 0.7968,-2.3359 0.7969,-0.8672 2.1563,-0.8672 1.2031,0 1.9141,0.7812 0.7109,0.7813 0.7109,2.125 z m -1,-0.2968 q 0,-0.8125 -0.4453,-1.2969 -0.4453,-0.4844 -1.1797,-0.4844 -0.8281,0 -1.3203,0.4688 -0.4922,0.4687 -0.5703,1.3125 l 3.5156,0 z" />
    <path
       transform="translate(250.69217,29.493193)"
       style="fill:#000000;stroke:none;stroke-linecap:butt;stroke-linejoin:round;text-rendering:geometricPrecision"
       inkscape:connector-curvature="0"
       id="path117"
       clip-path="url(#clipPath1)"
       d="m 50.0625,269.3198 0,2.9844 2.9844,0 0,0.9219 -2.9844,0 0,2.9843 -0.9063,0 0,-2.9843 -2.9843,0 0,-0.9219 2.9843,0 0,-2.9844 0.9063,0 z" />
    <path
       transform="translate(250.69217,29.493193)"
       style="fill:#000028;stroke:none;stroke-linecap:butt;stroke-linejoin:round;text-rendering:geometricPrecision"
       inkscape:connector-curvature="0"
       id="path119"
       clip-path="url(#clipPath1)"
       d="m 58.875,270.3667 0,0.9375 q -0.4219,-0.2188 -0.875,-0.3203 -0.4531,-0.1016 -0.9375,-0.1016 -0.7344,0 -1.1016,0.2266 -0.3671,0.2265 -0.3671,0.664 0,0.3438 0.2656,0.5391 0.2656,0.1953 1.0625,0.3828 l 0.3281,0.0781 q 1.0625,0.2188 1.5,0.6329 0.4375,0.414 0.4375,1.1484 0,0.8281 -0.6563,1.3203 -0.6562,0.4922 -1.8281,0.4922 -0.4843,0 -1.0078,-0.0938 -0.5234,-0.0937 -1.1015,-0.2812 l 0,-1.0156 q 0.5468,0.2812 1.0781,0.4218 0.5312,0.1407 1.0625,0.1407 0.6875,0 1.0625,-0.2422 0.375,-0.2422 0.375,-0.6641 0,-0.4062 -0.2657,-0.625 -0.2656,-0.2187 -1.1874,-0.4062 l -0.3438,-0.0938 q -0.9219,-0.1875 -1.3281,-0.5859 -0.4063,-0.3985 -0.4063,-1.1016 0,-0.8437 0.6016,-1.3047 0.6016,-0.4609 1.7109,-0.4609 0.5469,0 1.0313,0.0781 0.4844,0.0781 0.8906,0.2344 z m 5.8906,2.8125 q -1.1875,0 -1.6484,0.2812 -0.461,0.2813 -0.461,0.9375 0,0.5157 0.3438,0.8282 0.3438,0.3125 0.9375,0.3125 0.8281,0 1.3203,-0.586 0.4922,-0.5859 0.4922,-1.539 l 0,-0.2344 -0.9844,0 z m 1.9688,-0.4063 0,3.4375 -0.9844,0 0,-0.9062 q -0.3281,0.5469 -0.8359,0.8047 -0.5079,0.2578 -1.2422,0.2578 -0.9219,0 -1.4688,-0.5156 -0.5469,-0.5157 -0.5469,-1.3907 0,-1.0156 0.6797,-1.5312 0.6797,-0.5156 2.0391,-0.5156 l 1.375,0 0,-0.0938 q 0,-0.6875 -0.4453,-1.0625 -0.4453,-0.375 -1.2578,-0.375 -0.5157,0 -1.0078,0.125 -0.4922,0.125 -0.9453,0.375 l 0,-0.9062 q 0.5468,-0.2188 1.0624,-0.3203 0.5157,-0.1016 0.9844,-0.1016 1.3125,0 1.9532,0.6719 0.6406,0.6718 0.6406,2.0468 z m 1.5937,-2.5781 1.0469,0 1.875,5.0469 1.8906,-5.0469 1.0469,0 -2.2656,6.0156 -1.3438,0 -2.25,-6.0156 z m 11.8594,2.7656 0,0.4844 -4.5469,0 q 0.0625,1.0156 0.6094,1.5469 0.5469,0.5312 1.5312,0.5312 0.5782,0 1.1094,-0.1406 0.5313,-0.1406 1.0625,-0.4062 l 0,0.9218 q -0.5312,0.2344 -1.0937,0.3516 -0.5625,0.1172 -1.125,0.1172 -1.4532,0 -2.2891,-0.8359 -0.8359,-0.836 -0.8359,-2.2735 0,-1.4687 0.7968,-2.3359 0.7969,-0.8672 2.1563,-0.8672 1.2031,0 1.9141,0.7812 0.7109,0.7813 0.7109,2.125 z m -1,-0.2968 q 0,-0.8125 -0.4453,-1.2969 -0.4453,-0.4844 -1.1797,-0.4844 -0.8281,0 -1.3203,0.4688 -0.4922,0.4687 -0.5703,1.3125 l 3.5156,0 z m 5.2187,-4.7969 q -0.7187,1.2344 -1.0624,2.4453 Q 83,271.5229 83,272.7573 q 0,1.2344 0.3516,2.4531 0.3515,1.2188 1.0546,2.4532 l -0.8593,0 q -0.7969,-1.2657 -1.1953,-2.4844 -0.3985,-1.2188 -0.3985,-2.4219 0,-1.2031 0.3907,-2.414 0.3906,-1.211 1.2031,-2.4766 l 0.8593,0 z m 10.3126,3.4844 q 0.375,-0.6719 0.8906,-0.9844 0.5156,-0.3125 1.2187,-0.3125 0.9375,0 1.4453,0.6562 0.5078,0.6563 0.5078,1.875 l 0,3.625 -1,0 0,-3.5937 q 0,-0.875 -0.3046,-1.2891 -0.3047,-0.414 -0.9297,-0.414 -0.7657,0 -1.211,0.5078 -0.4453,0.5078 -0.4453,1.3828 l 0,3.4062 -1,0 0,-3.5937 q 0,-0.875 -0.3047,-1.2891 -0.3047,-0.414 -0.9453,-0.414 -0.75,0 -1.1953,0.5078 Q 91,271.9292 91,272.8042 l 0,3.4062 -1,0 0,-6.0156 1,0 0,0.9375 q 0.3281,-0.5625 0.8047,-0.8203 0.4765,-0.2578 1.1172,-0.2578 0.6562,0 1.1172,0.3281 0.4609,0.3281 0.6797,0.9688 z m 10.1562,-0.9844 0,0.9375 q -0.4219,-0.2188 -0.875,-0.3203 -0.4531,-0.1016 -0.9375,-0.1016 -0.7344,0 -1.1016,0.2266 -0.3671,0.2265 -0.3671,0.664 0,0.3438 0.2656,0.5391 0.2656,0.1953 1.0625,0.3828 l 0.3281,0.0781 q 1.0625,0.2188 1.5,0.6329 0.4375,0.414 0.4375,1.1484 0,0.8281 -0.6563,1.3203 -0.6562,0.4922 -1.8281,0.4922 -0.4843,0 -1.0078,-0.0938 -0.5234,-0.0937 -1.1015,-0.2812 l 0,-1.0156 q 0.5468,0.2812 1.0781,0.4218 0.5312,0.1407 1.0625,0.1407 0.6875,0 1.0625,-0.2422 0.375,-0.2422 0.375,-0.6641 0,-0.4062 -0.2657,-0.625 -0.2656,-0.2187 -1.1874,-0.4062 l -0.3438,-0.0938 q -0.9219,-0.1875 -1.3281,-0.5859 -0.4063,-0.3985 -0.4063,-1.1016 0,-0.8437 0.6016,-1.3047 0.6016,-0.4609 1.7109,-0.4609 0.5469,0 1.0313,0.0781 0.4844,0.0781 0.8906,0.2344 z m 7.125,2.7656 q 0,-1.0781 -0.4453,-1.664 -0.4453,-0.586 -1.2422,-0.586 -0.7969,0 -1.2422,0.586 -0.4453,0.5859 -0.4453,1.664 0,1.0625 0.4453,1.6563 0.4453,0.5937 1.2422,0.5937 0.7969,0 1.2422,-0.5937 Q 112,274.1948 112,273.1323 Z m 0.9844,2.3281 q 0,1.5469 -0.6797,2.2891 -0.6797,0.7422 -2.0859,0.7422 -0.5313,0 -0.9922,-0.0781 -0.461,-0.0782 -0.8985,-0.2344 l 0,-0.9531 q 0.4375,0.2343 0.8594,0.3437 0.4219,0.1094 0.875,0.1094 0.9687,0 1.4531,-0.5078 Q 112,276.6636 112,275.6479 l 0,-0.5 q -0.3125,0.5313 -0.7891,0.7969 -0.4765,0.2656 -1.1484,0.2656 -1.1094,0 -1.7813,-0.8437 -0.6718,-0.8438 -0.6718,-2.2344 0,-1.3906 0.6718,-2.2344 0.6719,-0.8437 1.7813,-0.8437 0.6719,0 1.1484,0.2578 0.4766,0.2578 0.7891,0.7891 l 0,-0.9063 0.9844,0 0,5.2656 z" />
    <path
       transform="translate(250.69217,29.493193)"
       style="fill:#404040;stroke:none;stroke-linecap:butt;stroke-linejoin:round;text-rendering:geometricPrecision"
       inkscape:connector-curvature="0"
       id="path121"
       clip-path="url(#clipPath1)"
       d="m 119.2969,274.8511 1.125,0 0,1.3593 -1.125,0 0,-1.3593 z m 0,-4.3282 1.125,0 0,1.3594 -1.125,0 0,-1.3594 z m 7.7812,-2.3281 1.625,0 2.0469,5.4531 2.0469,-5.4531 1.625,0 0,8.0156 -1.0625,0 0,-7.0468 -2.0625,5.5 -1.0938,0 -2.0781,-5.5 0,7.0468 -1.0469,0 0,-8.0156 z m 14.1094,4.7656 0,0.4844 -4.5469,0 q 0.0625,1.0156 0.6094,1.5469 0.5469,0.5312 1.5312,0.5312 0.5782,0 1.1094,-0.1406 0.5313,-0.1406 1.0625,-0.4062 l 0,0.9218 q -0.5312,0.2344 -1.0937,0.3516 -0.5625,0.1172 -1.125,0.1172 -1.4532,0 -2.2891,-0.8359 -0.8359,-0.836 -0.8359,-2.2735 0,-1.4687 0.7968,-2.3359 0.7969,-0.8672 2.1563,-0.8672 1.2031,0 1.9141,0.7812 0.7109,0.7813 0.7109,2.125 z m -1,-0.2968 q 0,-0.8125 -0.4453,-1.2969 -0.4453,-0.4844 -1.1797,-0.4844 -0.8281,0 -1.3203,0.4688 -0.4922,0.4687 -0.5703,1.3125 l 3.5156,0 z m 6.6875,-2.2969 0,0.9375 q -0.4219,-0.2188 -0.875,-0.3203 -0.4531,-0.1016 -0.9375,-0.1016 -0.7344,0 -1.1016,0.2266 -0.3671,0.2265 -0.3671,0.664 0,0.3438 0.2656,0.5391 0.2656,0.1953 1.0625,0.3828 l 0.3281,0.0781 q 1.0625,0.2188 1.5,0.6329 0.4375,0.414 0.4375,1.1484 0,0.8281 -0.6563,1.3203 -0.6562,0.4922 -1.8281,0.4922 -0.4843,0 -1.0078,-0.0938 -0.5234,-0.0937 -1.1015,-0.2812 l 0,-1.0156 q 0.5468,0.2812 1.0781,0.4218 0.5312,0.1407 1.0625,0.1407 0.6875,0 1.0625,-0.2422 0.375,-0.2422 0.375,-0.6641 0,-0.4062 -0.2657,-0.625 -0.2656,-0.2187 -1.1874,-0.4062 l -0.3438,-0.0938 q -0.9219,-0.1875 -1.3281,-0.5859 -0.4063,-0.3985 -0.4063,-1.1016 0,-0.8437 0.6016,-1.3047 0.6016,-0.4609 1.7109,-0.4609 0.5469,0 1.0313,0.0781 0.4844,0.0781 0.8906,0.2344 z m 7,0 0,0.9375 q -0.4219,-0.2188 -0.875,-0.3203 -0.4531,-0.1016 -0.9375,-0.1016 -0.7344,0 -1.1016,0.2266 -0.3671,0.2265 -0.3671,0.664 0,0.3438 0.2656,0.5391 0.2656,0.1953 1.0625,0.3828 l 0.3281,0.0781 q 1.0625,0.2188 1.5,0.6329 0.4375,0.414 0.4375,1.1484 0,0.8281 -0.6563,1.3203 -0.6562,0.4922 -1.8281,0.4922 -0.4843,0 -1.0078,-0.0938 -0.5234,-0.0937 -1.1015,-0.2812 l 0,-1.0156 q 0.5468,0.2812 1.0781,0.4218 0.5312,0.1407 1.0625,0.1407 0.6875,0 1.0625,-0.2422 0.375,-0.2422 0.375,-0.6641 0,-0.4062 -0.2657,-0.625 -0.2656,-0.2187 -1.1874,-0.4062 l -0.3438,-0.0938 q -0.9219,-0.1875 -1.3281,-0.5859 -0.4063,-0.3985 -0.4063,-1.1016 0,-0.8437 0.6016,-1.3047 0.6016,-0.4609 1.7109,-0.4609 0.5469,0 1.0313,0.0781 0.4844,0.0781 0.8906,0.2344 z m 5.8906,2.8125 q -1.1875,0 -1.6484,0.2812 -0.461,0.2813 -0.461,0.9375 0,0.5157 0.3438,0.8282 0.3438,0.3125 0.9375,0.3125 0.8281,0 1.3203,-0.586 0.4922,-0.5859 0.4922,-1.539 l 0,-0.2344 -0.9844,0 z m 1.9688,-0.4063 0,3.4375 -0.9844,0 0,-0.9062 q -0.3281,0.5469 -0.8359,0.8047 -0.5079,0.2578 -1.2422,0.2578 -0.9219,0 -1.4688,-0.5156 -0.5469,-0.5157 -0.5469,-1.3907 0,-1.0156 0.6797,-1.5312 0.6797,-0.5156 2.0391,-0.5156 l 1.375,0 0,-0.0938 q 0,-0.6875 -0.4453,-1.0625 -0.4453,-0.375 -1.2578,-0.375 -0.5157,0 -1.0078,0.125 -0.4922,0.125 -0.9453,0.375 l 0,-0.9062 q 0.5468,-0.2188 1.0624,-0.3203 0.5157,-0.1016 0.9844,-0.1016 1.3125,0 1.9532,0.6719 0.6406,0.6718 0.6406,2.0468 z M 168,273.1323 q 0,-1.0781 -0.4453,-1.664 -0.4453,-0.586 -1.2422,-0.586 -0.7969,0 -1.2422,0.586 -0.4453,0.5859 -0.4453,1.664 0,1.0625 0.4453,1.6563 0.4453,0.5937 1.2422,0.5937 0.7969,0 1.2422,-0.5937 Q 168,274.1948 168,273.1323 Z m 0.9844,2.3281 q 0,1.5469 -0.6797,2.2891 -0.6797,0.7422 -2.0859,0.7422 -0.5313,0 -0.9922,-0.0781 -0.461,-0.0782 -0.8985,-0.2344 l 0,-0.9531 q 0.4375,0.2343 0.8594,0.3437 0.4219,0.1094 0.875,0.1094 0.9687,0 1.4531,-0.5078 Q 168,276.6636 168,275.6479 l 0,-0.5 q -0.3125,0.5313 -0.7891,0.7969 -0.4765,0.2656 -1.1484,0.2656 -1.1094,0 -1.7813,-0.8437 -0.6718,-0.8438 -0.6718,-2.2344 0,-1.3906 0.6718,-2.2344 0.6719,-0.8437 1.7813,-0.8437 0.6719,0 1.1484,0.2578 0.4766,0.2578 0.7891,0.7891 l 0,-0.9063 0.9844,0 0,5.2656 z m 7.2031,-2.5 0,0.4844 -4.5469,0 q 0.0625,1.0156 0.6094,1.5469 0.5469,0.5312 1.5312,0.5312 0.5782,0 1.1094,-0.1406 0.5313,-0.1406 1.0625,-0.4062 l 0,0.9218 q -0.5312,0.2344 -1.0937,0.3516 -0.5625,0.1172 -1.125,0.1172 -1.4532,0 -2.2891,-0.8359 -0.8359,-0.836 -0.8359,-2.2735 0,-1.4687 0.7968,-2.3359 0.7969,-0.8672 2.1563,-0.8672 1.2031,0 1.9141,0.7812 0.7109,0.7813 0.7109,2.125 z m -1,-0.2968 q 0,-0.8125 -0.4453,-1.2969 -0.4453,-0.4844 -1.1797,-0.4844 -0.8281,0 -1.3203,0.4688 -0.4922,0.4687 -0.5703,1.3125 l 3.5156,0 z" />
    <path
       transform="translate(250.69217,29.493193)"
       style="fill:#000028;stroke:none;stroke-linecap:butt;stroke-linejoin:round;text-rendering:geometricPrecision"
       inkscape:connector-curvature="0"
       id="path123"
       clip-path="url(#clipPath1)"
       d="m 181.875,267.8667 0.8594,0 q 0.8125,1.2656 1.2109,2.4766 0.3985,1.2109 0.3985,2.414 0,1.2031 -0.3985,2.4219 -0.3984,1.2187 -1.2109,2.4844 l -0.8594,0 q 0.7188,-1.2344 1.0703,-2.4532 0.3516,-1.2187 0.3516,-2.4531 0,-1.2344 -0.3516,-2.4453 -0.3515,-1.2109 -1.0703,-2.4453 z" />
    <path
       transform="translate(250.69217,29.493193)"
       style="fill:#404040;stroke:none;stroke-linecap:butt;stroke-linejoin:round;text-rendering:geometricPrecision"
       inkscape:connector-curvature="0"
       id="path125"
       clip-path="url(#clipPath1)"
       d="m 190.2969,274.8511 1.125,0 0,1.3593 -1.125,0 0,-1.3593 z m 0,-4.3282 1.125,0 0,1.3594 -1.125,0 0,-1.3594 z m 7.7812,-2.3281 1.625,0 2.0469,5.4531 2.0469,-5.4531 1.625,0 0,8.0156 -1.0625,0 0,-7.0468 -2.0625,5.5 -1.0938,0 -2.0781,-5.5 0,7.0468 -1.0469,0 0,-8.0156 z m 14.1094,4.7656 0,0.4844 -4.5469,0 q 0.0625,1.0156 0.6094,1.5469 0.5469,0.5312 1.5312,0.5312 0.5782,0 1.1094,-0.1406 0.5313,-0.1406 1.0625,-0.4062 l 0,0.9218 q -0.5312,0.2344 -1.0937,0.3516 -0.5625,0.1172 -1.125,0.1172 -1.4532,0 -2.2891,-0.8359 -0.8359,-0.836 -0.8359,-2.2735 0,-1.4687 0.7968,-2.3359 0.7969,-0.8672 2.1563,-0.8672 1.2031,0 1.9141,0.7812 0.7109,0.7813 0.7109,2.125 z m -1,-0.2968 q 0,-0.8125 -0.4453,-1.2969 -0.4453,-0.4844 -1.1797,-0.4844 -0.8281,0 -1.3203,0.4688 -0.4922,0.4687 -0.5703,1.3125 l 3.5156,0 z m 6.6875,-2.2969 0,0.9375 q -0.4219,-0.2188 -0.875,-0.3203 -0.4531,-0.1016 -0.9375,-0.1016 -0.7344,0 -1.1016,0.2266 -0.3671,0.2265 -0.3671,0.664 0,0.3438 0.2656,0.5391 0.2656,0.1953 1.0625,0.3828 l 0.3281,0.0781 q 1.0625,0.2188 1.5,0.6329 0.4375,0.414 0.4375,1.1484 0,0.8281 -0.6563,1.3203 -0.6562,0.4922 -1.8281,0.4922 -0.4843,0 -1.0078,-0.0938 -0.5234,-0.0937 -1.1015,-0.2812 l 0,-1.0156 q 0.5468,0.2812 1.0781,0.4218 0.5312,0.1407 1.0625,0.1407 0.6875,0 1.0625,-0.2422 0.375,-0.2422 0.375,-0.6641 0,-0.4062 -0.2657,-0.625 -0.2656,-0.2187 -1.1874,-0.4062 l -0.3438,-0.0938 q -0.9219,-0.1875 -1.3281,-0.5859 -0.4063,-0.3985 -0.4063,-1.1016 0,-0.8437 0.6016,-1.3047 0.6016,-0.4609 1.7109,-0.4609 0.5469,0 1.0313,0.0781 0.4844,0.0781 0.8906,0.2344 z m 7,0 0,0.9375 q -0.4219,-0.2188 -0.875,-0.3203 -0.4531,-0.1016 -0.9375,-0.1016 -0.7344,0 -1.1016,0.2266 -0.3671,0.2265 -0.3671,0.664 0,0.3438 0.2656,0.5391 0.2656,0.1953 1.0625,0.3828 l 0.3281,0.0781 q 1.0625,0.2188 1.5,0.6329 0.4375,0.414 0.4375,1.1484 0,0.8281 -0.6563,1.3203 -0.6562,0.4922 -1.8281,0.4922 -0.4843,0 -1.0078,-0.0938 -0.5234,-0.0937 -1.1015,-0.2812 l 0,-1.0156 q 0.5468,0.2812 1.0781,0.4218 0.5312,0.1407 1.0625,0.1407 0.6875,0 1.0625,-0.2422 0.375,-0.2422 0.375,-0.6641 0,-0.4062 -0.2657,-0.625 -0.2656,-0.2187 -1.1874,-0.4062 l -0.3438,-0.0938 q -0.9219,-0.1875 -1.3281,-0.5859 -0.4063,-0.3985 -0.4063,-1.1016 0,-0.8437 0.6016,-1.3047 0.6016,-0.4609 1.7109,-0.4609 0.5469,0 1.0313,0.0781 0.4844,0.0781 0.8906,0.2344 z m 5.8906,2.8125 q -1.1875,0 -1.6484,0.2812 -0.461,0.2813 -0.461,0.9375 0,0.5157 0.3438,0.8282 0.3438,0.3125 0.9375,0.3125 0.8281,0 1.3203,-0.586 0.4922,-0.5859 0.4922,-1.539 l 0,-0.2344 -0.9844,0 z m 1.9688,-0.4063 0,3.4375 -0.9844,0 0,-0.9062 q -0.3281,0.5469 -0.8359,0.8047 -0.5079,0.2578 -1.2422,0.2578 -0.9219,0 -1.4688,-0.5156 -0.5469,-0.5157 -0.5469,-1.3907 0,-1.0156 0.6797,-1.5312 0.6797,-0.5156 2.0391,-0.5156 l 1.375,0 0,-0.0938 q 0,-0.6875 -0.4453,-1.0625 -0.4453,-0.375 -1.2578,-0.375 -0.5157,0 -1.0078,0.125 -0.4922,0.125 -0.9453,0.375 l 0,-0.9062 q 0.5468,-0.2188 1.0624,-0.3203 0.5157,-0.1016 0.9844,-0.1016 1.3125,0 1.9532,0.6719 0.6406,0.6718 0.6406,2.0468 z M 239,273.1323 q 0,-1.0781 -0.4453,-1.664 -0.4453,-0.586 -1.2422,-0.586 -0.7969,0 -1.2422,0.586 -0.4453,0.5859 -0.4453,1.664 0,1.0625 0.4453,1.6563 0.4453,0.5937 1.2422,0.5937 0.7969,0 1.2422,-0.5937 Q 239,274.1948 239,273.1323 Z m 0.9844,2.3281 q 0,1.5469 -0.6797,2.2891 -0.6797,0.7422 -2.0859,0.7422 -0.5313,0 -0.9922,-0.0781 -0.461,-0.0782 -0.8985,-0.2344 l 0,-0.9531 q 0.4375,0.2343 0.8594,0.3437 0.4219,0.1094 0.875,0.1094 0.9687,0 1.4531,-0.5078 Q 239,276.6636 239,275.6479 l 0,-0.5 q -0.3125,0.5313 -0.7891,0.7969 -0.4765,0.2656 -1.1484,0.2656 -1.1094,0 -1.7813,-0.8437 -0.6718,-0.8438 -0.6718,-2.2344 0,-1.3906 0.6718,-2.2344 0.6719,-0.8437 1.7813,-0.8437 0.6719,0 1.1484,0.2578 0.4766,0.2578 0.7891,0.7891 l 0,-0.9063 0.9844,0 0,5.2656 z m 7.2031,-2.5 0,0.4844 -4.5469,0 q 0.0625,1.0156 0.6094,1.5469 0.5469,0.5312 1.5312,0.5312 0.5782,0 1.1094,-0.1406 0.5313,-0.1406 1.0625,-0.4062 l 0,0.9218 q -0.5312,0.2344 -1.0937,0.3516 -0.5625,0.1172 -1.125,0.1172 -1.4532,0 -2.2891,-0.8359 -0.8359,-0.836 -0.8359,-2.2735 0,-1.4687 0.7968,-2.3359 0.7969,-0.8672 2.1563,-0.8672 1.2031,0 1.9141,0.7812 0.7109,0.7813 0.7109,2.125 z m -1,-0.2968 q 0,-0.8125 -0.4453,-1.2969 -0.4453,-0.4844 -1.1797,-0.4844 -0.8281,0 -1.3203,0.4688 -0.4922,0.4687 -0.5703,1.3125 l 3.5156,0 z" />
    <path
       transform="translate(250.69217,29.493193)"
       style="fill:#000000;stroke:none;stroke-linecap:butt;stroke-linejoin:round;text-rendering:geometricPrecision"
       inkscape:connector-curvature="0"
       id="path127"
       clip-path="url(#clipPath1)"
       d="m 50.0625,281.3198 0,2.9844 2.9844,0 0,0.9219 -2.9844,0 0,2.9843 -0.9063,0 0,-2.9843 -2.9843,0 0,-0.9219 2.9843,0 0,-2.9844 0.9063,0 z" />
    <path
       transform="translate(250.69217,29.493193)"
       style="fill:#000028;stroke:none;stroke-linecap:butt;stroke-linejoin:round;text-rendering:geometricPrecision"
       inkscape:connector-curvature="0"
       id="path129"
       clip-path="url(#clipPath1)"
       d="m 59,283.1011 0,-3.25 0.9844,0 0,8.3593 -0.9844,0 0,-0.9062 q -0.3125,0.5469 -0.7891,0.8047 -0.4765,0.2578 -1.1484,0.2578 -1.0781,0 -1.7656,-0.8672 -0.6875,-0.8672 -0.6875,-2.2891 0,-1.4218 0.6875,-2.289 0.6875,-0.8672 1.7656,-0.8672 0.6719,0 1.1484,0.2578 0.4766,0.2578 0.7891,0.7891 z m -3.375,2.1093 q 0,1.0938 0.4531,1.711 0.4531,0.6172 1.2344,0.6172 0.7813,0 1.2344,-0.6172 Q 59,286.3042 59,285.2104 q 0,-1.0937 -0.4531,-1.7109 -0.4531,-0.6172 -1.2344,-0.6172 -0.7813,0 -1.2344,0.6172 -0.4531,0.6172 -0.4531,1.7109 z m 11.5625,-0.25 0,0.4844 -4.5469,0 q 0.0625,1.0156 0.6094,1.5469 0.5469,0.5312 1.5312,0.5312 0.5782,0 1.1094,-0.1406 0.5313,-0.1406 1.0625,-0.4062 l 0,0.9218 q -0.5312,0.2344 -1.0937,0.3516 -0.5625,0.1172 -1.125,0.1172 -1.4532,0 -2.2891,-0.8359 -0.8359,-0.836 -0.8359,-2.2735 0,-1.4687 0.7968,-2.3359 0.7969,-0.8672 2.1563,-0.8672 1.2031,0 1.9141,0.7812 0.7109,0.7813 0.7109,2.125 z m -1,-0.2968 q 0,-0.8125 -0.4453,-1.2969 -0.4453,-0.4844 -1.1797,-0.4844 -0.8281,0 -1.3203,0.4688 -0.4922,0.4687 -0.5703,1.3125 l 3.5156,0 z m 2.8437,-4.8125 1,0 0,8.3593 -1,0 0,-8.3593 z m 8.1563,5.1093 0,0.4844 -4.5469,0 q 0.0625,1.0156 0.6094,1.5469 0.5469,0.5312 1.5312,0.5312 0.5782,0 1.1094,-0.1406 0.5313,-0.1406 1.0625,-0.4062 l 0,0.9218 q -0.5312,0.2344 -1.0937,0.3516 -0.5625,0.1172 -1.125,0.1172 -1.4532,0 -2.2891,-0.8359 -0.8359,-0.836 -0.8359,-2.2735 0,-1.4687 0.7968,-2.3359 0.7969,-0.8672 2.1563,-0.8672 1.2031,0 1.9141,0.7812 0.7109,0.7813 0.7109,2.125 z m -1,-0.2968 q 0,-0.8125 -0.4453,-1.2969 -0.4453,-0.4844 -1.1797,-0.4844 -0.8281,0 -1.3203,0.4688 -0.4922,0.4687 -0.5703,1.3125 l 3.5156,0 z m 3.8281,-4.1719 0,1.7031 2.0313,0 0,0.7656 -2.0313,0 0,3.2657 q 0,0.7343 0.2032,0.9453 0.2031,0.2109 0.8124,0.2109 l 1.0157,0 0,0.8281 -1.0157,0 q -1.1406,0 -1.5781,-0.4296 -0.4375,-0.4297 -0.4375,-1.5547 l 0,-3.2657 -0.7187,0 0,-0.7656 0.7187,0 0,-1.7031 1,0 z m 8.1719,4.4687 0,0.4844 -4.5469,0 q 0.0625,1.0156 0.6094,1.5469 0.5469,0.5312 1.5312,0.5312 0.5782,0 1.1094,-0.1406 0.5313,-0.1406 1.0625,-0.4062 l 0,0.9218 q -0.5312,0.2344 -1.0937,0.3516 -0.5625,0.1172 -1.125,0.1172 -1.4532,0 -2.2891,-0.8359 -0.8359,-0.836 -0.8359,-2.2735 0,-1.4687 0.7968,-2.3359 0.7969,-0.8672 2.1563,-0.8672 1.2031,0 1.9141,0.7812 0.7109,0.7813 0.7109,2.125 z m -1,-0.2968 q 0,-0.8125 -0.4453,-1.2969 -0.4453,-0.4844 -1.1797,-0.4844 -0.8281,0 -1.3203,0.4688 -0.4922,0.4687 -0.5703,1.3125 l 3.5156,0 z m 5.2187,-4.7969 q -0.7187,1.2344 -1.0624,2.4453 Q 91,283.5229 91,284.7573 q 0,1.2344 0.3516,2.4531 0.3515,1.2188 1.0546,2.4532 l -0.8593,0 q -0.7969,-1.2657 -1.1953,-2.4844 -0.3985,-1.2188 -0.3985,-2.4219 0,-1.2031 0.3907,-2.414 0.3906,-1.211 1.2031,-2.4766 l 0.8593,0 z m 10.3126,3.4844 q 0.375,-0.6719 0.8906,-0.9844 0.5156,-0.3125 1.2187,-0.3125 0.9375,0 1.4453,0.6562 0.5078,0.6563 0.5078,1.875 l 0,3.625 -1,0 0,-3.5937 q 0,-0.875 -0.3046,-1.2891 -0.3047,-0.414 -0.9297,-0.414 -0.7657,0 -1.211,0.5078 -0.4453,0.5078 -0.4453,1.3828 l 0,3.4062 -1,0 0,-3.5937 q 0,-0.875 -0.3047,-1.2891 -0.3047,-0.414 -0.9453,-0.414 -0.75,0 -1.1953,0.5078 Q 99,283.9292 99,284.8042 l 0,3.4062 -1,0 0,-6.0156 1,0 0,0.9375 q 0.3281,-0.5625 0.8047,-0.8203 0.4765,-0.2578 1.1172,-0.2578 0.6562,0 1.1172,0.3281 0.4609,0.3281 0.6797,0.9688 z m 10.1562,-0.9844 0,0.9375 q -0.4219,-0.2188 -0.875,-0.3203 -0.4531,-0.1016 -0.9375,-0.1016 -0.7344,0 -1.1016,0.2266 -0.3671,0.2265 -0.3671,0.664 0,0.3438 0.2656,0.5391 0.2656,0.1953 1.0625,0.3828 l 0.3281,0.0781 q 1.0625,0.2188 1.5,0.6329 0.4375,0.414 0.4375,1.1484 0,0.8281 -0.6563,1.3203 -0.6562,0.4922 -1.8281,0.4922 -0.4843,0 -1.0078,-0.0938 -0.5234,-0.0937 -1.1015,-0.2812 l 0,-1.0156 q 0.5468,0.2812 1.0781,0.4218 0.5312,0.1407 1.0625,0.1407 0.6875,0 1.0625,-0.2422 0.375,-0.2422 0.375,-0.6641 0,-0.4062 -0.2657,-0.625 -0.2656,-0.2187 -1.1874,-0.4062 l -0.3438,-0.0938 q -0.9219,-0.1875 -1.3281,-0.5859 -0.4063,-0.3985 -0.4063,-1.1016 0,-0.8437 0.6016,-1.3047 0.6016,-0.4609 1.7109,-0.4609 0.5469,0 1.0313,0.0781 0.4844,0.0781 0.8906,0.2344 z m 7.125,2.7656 q 0,-1.0781 -0.4453,-1.664 -0.4453,-0.586 -1.2422,-0.586 -0.7969,0 -1.2422,0.586 -0.4453,0.5859 -0.4453,1.664 0,1.0625 0.4453,1.6563 0.4453,0.5937 1.2422,0.5937 0.7969,0 1.2422,-0.5937 Q 120,286.1948 120,285.1323 Z m 0.9844,2.3281 q 0,1.5469 -0.6797,2.2891 -0.6797,0.7422 -2.0859,0.7422 -0.5313,0 -0.9922,-0.0781 -0.461,-0.0782 -0.8985,-0.2344 l 0,-0.9531 q 0.4375,0.2343 0.8594,0.3437 0.4219,0.1094 0.875,0.1094 0.9687,0 1.4531,-0.5078 Q 120,288.6636 120,287.6479 l 0,-0.5 q -0.3125,0.5313 -0.7891,0.7969 -0.4765,0.2656 -1.1484,0.2656 -1.1094,0 -1.7813,-0.8437 -0.6718,-0.8438 -0.6718,-2.2344 0,-1.3906 0.6718,-2.2344 0.6719,-0.8437 1.7813,-0.8437 0.6719,0 1.1484,0.2578 0.4766,0.2578 0.7891,0.7891 l 0,-0.9063 0.9844,0 0,5.2656 z" />
    <path
       transform="translate(250.69217,29.493193)"
       style="fill:#404040;stroke:none;stroke-linecap:butt;stroke-linejoin:round;text-rendering:geometricPrecision"
       inkscape:connector-curvature="0"
       id="path131"
       clip-path="url(#clipPath1)"
       d="m 127.2969,286.8511 1.125,0 0,1.3593 -1.125,0 0,-1.3593 z m 0,-4.3282 1.125,0 0,1.3594 -1.125,0 0,-1.3594 z m 7.7812,-2.3281 1.625,0 2.0469,5.4531 2.0469,-5.4531 1.625,0 0,8.0156 -1.0625,0 0,-7.0468 -2.0625,5.5 -1.0938,0 -2.0781,-5.5 0,7.0468 -1.0469,0 0,-8.0156 z m 14.1094,4.7656 0,0.4844 -4.5469,0 q 0.0625,1.0156 0.6094,1.5469 0.5469,0.5312 1.5312,0.5312 0.5782,0 1.1094,-0.1406 0.5313,-0.1406 1.0625,-0.4062 l 0,0.9218 q -0.5312,0.2344 -1.0937,0.3516 -0.5625,0.1172 -1.125,0.1172 -1.4532,0 -2.2891,-0.8359 -0.8359,-0.836 -0.8359,-2.2735 0,-1.4687 0.7968,-2.3359 0.7969,-0.8672 2.1563,-0.8672 1.2031,0 1.9141,0.7812 0.7109,0.7813 0.7109,2.125 z m -1,-0.2968 q 0,-0.8125 -0.4453,-1.2969 -0.4453,-0.4844 -1.1797,-0.4844 -0.8281,0 -1.3203,0.4688 -0.4922,0.4687 -0.5703,1.3125 l 3.5156,0 z m 6.6875,-2.2969 0,0.9375 q -0.4219,-0.2188 -0.875,-0.3203 -0.4531,-0.1016 -0.9375,-0.1016 -0.7344,0 -1.1016,0.2266 -0.3671,0.2265 -0.3671,0.664 0,0.3438 0.2656,0.5391 0.2656,0.1953 1.0625,0.3828 l 0.3281,0.0781 q 1.0625,0.2188 1.5,0.6329 0.4375,0.414 0.4375,1.1484 0,0.8281 -0.6563,1.3203 -0.6562,0.4922 -1.8281,0.4922 -0.4843,0 -1.0078,-0.0938 -0.5234,-0.0937 -1.1015,-0.2812 l 0,-1.0156 q 0.5468,0.2812 1.0781,0.4218 0.5312,0.1407 1.0625,0.1407 0.6875,0 1.0625,-0.2422 0.375,-0.2422 0.375,-0.6641 0,-0.4062 -0.2657,-0.625 -0.2656,-0.2187 -1.1874,-0.4062 l -0.3438,-0.0938 q -0.9219,-0.1875 -1.3281,-0.5859 -0.4063,-0.3985 -0.4063,-1.1016 0,-0.8437 0.6016,-1.3047 0.6016,-0.4609 1.7109,-0.4609 0.5469,0 1.0313,0.0781 0.4844,0.0781 0.8906,0.2344 z m 7,0 0,0.9375 q -0.4219,-0.2188 -0.875,-0.3203 -0.4531,-0.1016 -0.9375,-0.1016 -0.7344,0 -1.1016,0.2266 -0.3671,0.2265 -0.3671,0.664 0,0.3438 0.2656,0.5391 0.2656,0.1953 1.0625,0.3828 l 0.3281,0.0781 q 1.0625,0.2188 1.5,0.6329 0.4375,0.414 0.4375,1.1484 0,0.8281 -0.6563,1.3203 -0.6562,0.4922 -1.8281,0.4922 -0.4843,0 -1.0078,-0.0938 -0.5234,-0.0937 -1.1015,-0.2812 l 0,-1.0156 q 0.5468,0.2812 1.0781,0.4218 0.5312,0.1407 1.0625,0.1407 0.6875,0 1.0625,-0.2422 0.375,-0.2422 0.375,-0.6641 0,-0.4062 -0.2657,-0.625 -0.2656,-0.2187 -1.1874,-0.4062 l -0.3438,-0.0938 q -0.9219,-0.1875 -1.3281,-0.5859 -0.4063,-0.3985 -0.4063,-1.1016 0,-0.8437 0.6016,-1.3047 0.6016,-0.4609 1.7109,-0.4609 0.5469,0 1.0313,0.0781 0.4844,0.0781 0.8906,0.2344 z m 5.8906,2.8125 q -1.1875,0 -1.6484,0.2812 -0.461,0.2813 -0.461,0.9375 0,0.5157 0.3438,0.8282 0.3438,0.3125 0.9375,0.3125 0.8281,0 1.3203,-0.586 0.4922,-0.5859 0.4922,-1.539 l 0,-0.2344 -0.9844,0 z m 1.9688,-0.4063 0,3.4375 -0.9844,0 0,-0.9062 q -0.3281,0.5469 -0.8359,0.8047 -0.5079,0.2578 -1.2422,0.2578 -0.9219,0 -1.4688,-0.5156 -0.5469,-0.5157 -0.5469,-1.3907 0,-1.0156 0.6797,-1.5312 0.6797,-0.5156 2.0391,-0.5156 l 1.375,0 0,-0.0938 q 0,-0.6875 -0.4453,-1.0625 -0.4453,-0.375 -1.2578,-0.375 -0.5157,0 -1.0078,0.125 -0.4922,0.125 -0.9453,0.375 l 0,-0.9062 q 0.5468,-0.2188 1.0624,-0.3203 0.5157,-0.1016 0.9844,-0.1016 1.3125,0 1.9532,0.6719 0.6406,0.6718 0.6406,2.0468 z M 176,285.1323 q 0,-1.0781 -0.4453,-1.664 -0.4453,-0.586 -1.2422,-0.586 -0.7969,0 -1.2422,0.586 -0.4453,0.5859 -0.4453,1.664 0,1.0625 0.4453,1.6563 0.4453,0.5937 1.2422,0.5937 0.7969,0 1.2422,-0.5937 Q 176,286.1948 176,285.1323 Z m 0.9844,2.3281 q 0,1.5469 -0.6797,2.2891 -0.6797,0.7422 -2.0859,0.7422 -0.5313,0 -0.9922,-0.0781 -0.461,-0.0782 -0.8985,-0.2344 l 0,-0.9531 q 0.4375,0.2343 0.8594,0.3437 0.4219,0.1094 0.875,0.1094 0.9687,0 1.4531,-0.5078 Q 176,288.6636 176,287.6479 l 0,-0.5 q -0.3125,0.5313 -0.7891,0.7969 -0.4765,0.2656 -1.1484,0.2656 -1.1094,0 -1.7813,-0.8437 -0.6718,-0.8438 -0.6718,-2.2344 0,-1.3906 0.6718,-2.2344 0.6719,-0.8437 1.7813,-0.8437 0.6719,0 1.1484,0.2578 0.4766,0.2578 0.7891,0.7891 l 0,-0.9063 0.9844,0 0,5.2656 z m 7.2031,-2.5 0,0.4844 -4.5469,0 q 0.0625,1.0156 0.6094,1.5469 0.5469,0.5312 1.5312,0.5312 0.5782,0 1.1094,-0.1406 0.5313,-0.1406 1.0625,-0.4062 l 0,0.9218 q -0.5312,0.2344 -1.0937,0.3516 -0.5625,0.1172 -1.125,0.1172 -1.4532,0 -2.2891,-0.8359 -0.8359,-0.836 -0.8359,-2.2735 0,-1.4687 0.7968,-2.3359 0.7969,-0.8672 2.1563,-0.8672 1.2031,0 1.9141,0.7812 0.7109,0.7813 0.7109,2.125 z m -1,-0.2968 q 0,-0.8125 -0.4453,-1.2969 -0.4453,-0.4844 -1.1797,-0.4844 -0.8281,0 -1.3203,0.4688 -0.4922,0.4687 -0.5703,1.3125 l 3.5156,0 z" />
    <path
       transform="translate(250.69217,29.493193)"
       style="fill:#000028;stroke:none;stroke-linecap:butt;stroke-linejoin:round;text-rendering:geometricPrecision"
       inkscape:connector-curvature="0"
       id="path133"
       clip-path="url(#clipPath1)"
       d="m 189.875,279.8667 0.8594,0 q 0.8125,1.2656 1.2109,2.4766 0.3985,1.2109 0.3985,2.414 0,1.2031 -0.3985,2.4219 -0.3984,1.2187 -1.2109,2.4844 l -0.8594,0 q 0.7188,-1.2344 1.0703,-2.4532 0.3516,-1.2187 0.3516,-2.4531 0,-1.2344 -0.3516,-2.4453 -0.3515,-1.2109 -1.0703,-2.4453 z" />
    <path
       transform="translate(250.69217,29.493193)"
       style="fill:#000000;stroke:none;stroke-linecap:butt;stroke-linejoin:round;text-rendering:geometricPrecision"
       inkscape:connector-curvature="0"
       id="path135"
       clip-path="url(#clipPath1)"
       d="m 86.9531,232.7417 q 0.6407,0 0.9219,-0.2422 0.2812,-0.2422 0.2812,-0.7891 0,-0.5468 -0.2812,-0.7812 -0.2812,-0.2344 -0.9219,-0.2344 l -0.875,0 0,2.0469 0.875,0 z m -0.875,1.4375 0,3.0312 -2.0625,0 0,-8.0156 3.1563,0 q 1.5781,0 2.3203,0.5313 0.7422,0.5312 0.7422,1.6718 0,0.7969 -0.3828,1.3125 -0.3828,0.5157 -1.1641,0.75 0.4219,0.0938 0.7578,0.4375 0.3359,0.3438 0.6797,1.0313 l 1.125,2.2812 -2.2031,0 -0.9688,-2 q -0.2969,-0.5937 -0.6015,-0.8125 -0.3047,-0.2187 -0.8204,-0.2187 l -0.5781,0 z m 5.9375,-4.9844 5.5782,0 0,1.5625 -3.5157,0 0,1.4844 3.2969,0 0,1.5625 -3.2969,0 0,1.8437 3.625,0 0,1.5625 -5.6875,0 0,-8.0156 z m 13.5782,0.25 0,1.7031 q -0.6563,-0.2968 -1.2891,-0.4531 -0.6328,-0.1562 -1.1953,-0.1562 -0.7344,0 -1.086,0.2109 -0.3515,0.2109 -0.3515,0.6328 0,0.3281 0.2343,0.5078 0.2344,0.1797 0.8594,0.3047 l 0.8906,0.1719 q 1.3282,0.2656 1.8907,0.8203 0.5625,0.5547 0.5625,1.5547 0,1.3281 -0.7813,1.9766 -0.7812,0.6484 -2.4062,0.6484 -0.7657,0 -1.5313,-0.1484 -0.7656,-0.1485 -1.5312,-0.4297 l 0,-1.75 q 0.7656,0.4218 1.4844,0.625 0.7187,0.2031 1.3906,0.2031 0.6718,0 1.0312,-0.2266 0.3594,-0.2265 0.3594,-0.6484 0,-0.375 -0.2422,-0.5781 -0.2422,-0.2032 -0.9766,-0.3594 l -0.7968,-0.1719 q -1.2032,-0.2656 -1.7578,-0.8281 -0.5547,-0.5625 -0.5547,-1.5156 0,-1.2032 0.7734,-1.8516 0.7735,-0.6484 2.2109,-0.6484 0.6719,0 1.3672,0.1015 0.6954,0.1016 1.4454,0.3047 z m 1.4531,-0.25 7.3906,0 0,1.5625 -2.6563,0 0,6.4531 -2.0624,0 0,-6.4531 -2.6719,0 0,-1.5625 z m 8.9687,0 2.625,0 1.8282,4.2813 1.8437,-4.2813 2.625,0 0,8.0156 -1.9687,0 0,-5.8593 -1.8438,4.3125 -1.3125,0 -1.8437,-4.3125 0,5.8593 -1.9532,0 0,-8.0156 z m 16.9063,4.9844 0,0.5625 -4.4844,0 q 0.0625,0.6719 0.4844,1.0078 0.4219,0.3359 1.1719,0.3359 0.6093,0 1.2421,-0.1796 0.6329,-0.1797 1.3047,-0.5391 l 0,1.4844 q -0.6718,0.25 -1.3594,0.3828 -0.6874,0.1328 -1.3593,0.1328 -1.6407,0 -2.5469,-0.8281 -0.9062,-0.8282 -0.9062,-2.3282 0,-1.4687 0.8906,-2.3125 0.8906,-0.8437 2.4531,-0.8437 1.4063,0 2.2578,0.8516 0.8516,0.8515 0.8516,2.2734 z m -1.9688,-0.625 q 0,-0.5625 -0.3203,-0.8906 -0.3203,-0.3282 -0.8359,-0.3282 -0.5625,0 -0.9063,0.3125 -0.3437,0.3125 -0.4375,0.9063 l 2.5,0 z m 8.6719,-2.1719 0,1.4688 q -0.625,-0.2657 -1.1953,-0.3907 -0.5703,-0.125 -1.0859,-0.125 -0.5469,0 -0.8126,0.1329 -0.2656,0.1328 -0.2656,0.414 0,0.2344 0.2032,0.3594 0.2031,0.125 0.7187,0.1875 l 0.3437,0.0469 q 1.4688,0.1875 1.9844,0.6172 0.5156,0.4296 0.5156,1.3515 0,0.9531 -0.7109,1.4375 -0.7109,0.4844 -2.1172,0.4844 -0.5937,0 -1.2343,-0.0938 -0.6407,-0.0937 -1.3126,-0.2812 l 0,-1.4688 q 0.5782,0.2813 1.1797,0.4219 0.6016,0.1406 1.2266,0.1406 0.5625,0 0.8516,-0.1562 0.289,-0.1563 0.289,-0.4531 0,-0.2657 -0.1953,-0.3907 -0.1953,-0.125 -0.789,-0.2031 l -0.3282,-0.0312 q -1.2968,-0.1719 -1.8125,-0.6016 -0.5156,-0.4297 -0.5156,-1.3203 0,-0.9531 0.6563,-1.4141 0.6562,-0.4609 2.0156,-0.4609 0.5312,0 1.1172,0.0781 0.5859,0.0781 1.2734,0.25 z m 7,0 0,1.4688 q -0.625,-0.2657 -1.1953,-0.3907 -0.5703,-0.125 -1.0859,-0.125 -0.5469,0 -0.8126,0.1329 -0.2656,0.1328 -0.2656,0.414 0,0.2344 0.2032,0.3594 0.2031,0.125 0.7187,0.1875 l 0.3437,0.0469 q 1.4688,0.1875 1.9844,0.6172 0.5156,0.4296 0.5156,1.3515 0,0.9531 -0.7109,1.4375 -0.7109,0.4844 -2.1172,0.4844 -0.5937,0 -1.2343,-0.0938 -0.6407,-0.0937 -1.3126,-0.2812 l 0,-1.4688 q 0.5782,0.2813 1.1797,0.4219 0.6016,0.1406 1.2266,0.1406 0.5625,0 0.8516,-0.1562 0.289,-0.1563 0.289,-0.4531 0,-0.2657 -0.1953,-0.3907 -0.1953,-0.125 -0.789,-0.2031 l -0.3282,-0.0312 q -1.2968,-0.1719 -1.8125,-0.6016 -0.5156,-0.4297 -0.5156,-1.3203 0,-0.9531 0.6563,-1.4141 0.6562,-0.4609 2.0156,-0.4609 0.5312,0 1.1172,0.0781 0.5859,0.0781 1.2734,0.25 z m 5,3.125 q -0.6094,0 -0.9141,0.2031 -0.3047,0.2032 -0.3047,0.5938 0,0.375 0.25,0.5781 0.25,0.2031 0.6719,0.2031 0.5469,0 0.9219,-0.3906 0.375,-0.3906 0.375,-0.9687 l 0,-0.2188 -1,0 z m 2.9375,-0.7344 0,3.4375 -1.9375,0 0,-0.8906 q -0.3906,0.5469 -0.875,0.7969 -0.4844,0.25 -1.1719,0.25 -0.9375,0 -1.5234,-0.5469 -0.5859,-0.5469 -0.5859,-1.4219 0,-1.0468 0.7265,-1.539 0.7266,-0.4922 2.2891,-0.4922 l 1.1406,0 0,-0.1563 q 0,-0.4531 -0.3594,-0.664 -0.3594,-0.211 -1.125,-0.211 -0.625,0 -1.1562,0.1172 -0.5313,0.1172 -0.9844,0.3672 l 0,-1.4687 q 0.6094,-0.1407 1.2344,-0.2188 0.625,-0.0781 1.25,-0.0781 1.625,0 2.3515,0.6406 0.7266,0.6406 0.7266,2.0781 z m 6.4531,2.4219 q -0.3906,0.5156 -0.875,0.7656 -0.4844,0.25 -1.1094,0.25 -1.0937,0 -1.8124,-0.8671 -0.7188,-0.8672 -0.7188,-2.211 0,-1.3437 0.7188,-2.2109 0.7187,-0.8672 1.8124,-0.8672 0.625,0 1.1094,0.25 0.4844,0.25 0.875,0.7812 l 0,-0.8906 1.9375,0 0,5.4063 q 0,1.4531 -0.914,2.2187 -0.9141,0.7656 -2.6641,0.7656 -0.5625,0 -1.0859,-0.0859 -0.5235,-0.0859 -1.0547,-0.2578 l 0,-1.5 q 0.5,0.2812 0.9844,0.4219 0.4843,0.1406 0.9687,0.1406 0.9531,0 1.3906,-0.4063 0.4375,-0.4062 0.4375,-1.2968 l 0,-0.4063 z m -1.2656,-3.75 q -0.5938,0 -0.9297,0.4375 -0.3359,0.4375 -0.3359,1.25 0,0.8281 0.3203,1.2578 0.3203,0.4297 0.9453,0.4297 0.5938,0 0.9297,-0.4453 0.3359,-0.4453 0.3359,-1.2422 0,-0.8125 -0.3359,-1.25 -0.3359,-0.4375 -0.9297,-0.4375 z m 11.1719,1.7344 0,0.5625 -4.4844,0 q 0.0625,0.6719 0.4844,1.0078 0.4219,0.3359 1.1719,0.3359 0.6093,0 1.2421,-0.1796 0.6329,-0.1797 1.3047,-0.5391 l 0,1.4844 q -0.6718,0.25 -1.3594,0.3828 -0.6874,0.1328 -1.3593,0.1328 -1.6407,0 -2.5469,-0.8281 -0.9062,-0.8282 -0.9062,-2.3282 0,-1.4687 0.8906,-2.3125 0.8906,-0.8437 2.4531,-0.8437 1.4063,0 2.2578,0.8516 0.8516,0.8515 0.8516,2.2734 z m -1.9688,-0.625 q 0,-0.5625 -0.3203,-0.8906 -0.3203,-0.3282 -0.8359,-0.3282 -0.5625,0 -0.9063,0.3125 -0.3437,0.3125 -0.4375,0.9063 l 2.5,0 z m 10.4219,3.2187 q -0.5781,0.2969 -1.1953,0.4454 -0.6172,0.1484 -1.2891,0.1484 -2,0 -3.1718,-1.1172 -1.1719,-1.1172 -1.1719,-3.0391 0,-1.9218 1.1719,-3.0468 1.1718,-1.125 3.1718,-1.125 0.6719,0 1.2891,0.1562 0.6172,0.1563 1.1953,0.4531 l 0,1.6563 q -0.5781,-0.3906 -1.1406,-0.5781 -0.5625,-0.1875 -1.1719,-0.1875 -1.1094,0 -1.7422,0.7109 -0.6328,0.7109 -0.6328,1.9609 0,1.2344 0.6328,1.9454 0.6328,0.7109 1.7422,0.7109 0.6094,0 1.1719,-0.1797 0.5625,-0.1797 1.1406,-0.5703 l 0,1.6562 z m 2.5469,-7.9218 1.9219,0 0,8.3593 -1.9219,0 0,-8.3593 z m 4,2.3437 1.9219,0 0,6.0156 -1.9219,0 0,-6.0156 z m 0,-2.3437 1.9219,0 0,1.5625 -1.9219,0 0,-1.5625 z m 10,5.3281 0,0.5625 -4.4844,0 q 0.0625,0.6719 0.4844,1.0078 0.4219,0.3359 1.1719,0.3359 0.6093,0 1.2421,-0.1796 0.6329,-0.1797 1.3047,-0.5391 l 0,1.4844 q -0.6718,0.25 -1.3594,0.3828 -0.6874,0.1328 -1.3593,0.1328 -1.6407,0 -2.5469,-0.8281 -0.9062,-0.8282 -0.9062,-2.3282 0,-1.4687 0.8906,-2.3125 0.8906,-0.8437 2.4531,-0.8437 1.4063,0 2.2578,0.8516 0.8516,0.8515 0.8516,2.2734 z m -1.9688,-0.625 q 0,-0.5625 -0.3203,-0.8906 -0.3203,-0.3282 -0.8359,-0.3282 -0.5625,0 -0.9063,0.3125 -0.3437,0.3125 -0.4375,0.9063 l 2.5,0 z m 10.0157,0 0,3.6562 -1.9376,0 0,-0.5937 0,-2.2031 q 0,-0.7813 -0.0312,-1.0782 -0.0312,-0.2968 -0.125,-0.4375 -0.1094,-0.1875 -0.2969,-0.289 -0.1875,-0.1016 -0.4375,-0.1016 -0.6094,0 -0.9531,0.461 -0.3437,0.4609 -0.3437,1.289 l 0,2.9531 -1.9219,0 0,-6.0156 1.9219,0 0,0.875 q 0.4374,-0.5156 0.9296,-0.7656 0.4922,-0.25 1.0704,-0.25 1.0468,0 1.5859,0.6406 0.5391,0.6406 0.5391,1.8594 z m 4.0624,-4.0625 0,1.7031 1.9688,0 0,1.375 -1.9688,0 0,2.5469 q 0,0.4219 0.1641,0.5703 0.1641,0.1484 0.6485,0.1484 l 1,0 0,1.375 -1.6563,0 q -1.1406,0 -1.6172,-0.4765 -0.4765,-0.4766 -0.4765,-1.6172 l 0,-2.5469 -0.9532,0 0,-1.375 0.9532,0 0,-1.7031 1.9374,0 z" />
    <rect
       transform="translate(250.69217,29.493193)"
       style="fill:#b2b2b2;stroke:none;stroke-linecap:butt;stroke-linejoin:round;text-rendering:geometricPrecision"
       id="rect137"
       height="36"
       width="87"
       clip-path="url(#clipPath1)"
       y="143"
       x="101" />
    <rect
       transform="translate(250.69217,29.493193)"
       style="fill:url(#linearGradient2);stroke:none;stroke-linecap:butt;stroke-linejoin:round;text-rendering:geometricPrecision"
       id="rect139"
       height="36"
       width="87"
       clip-path="url(#clipPath1)"
       y="140"
       x="98" />
    <rect
       transform="translate(250.69217,29.493193)"
       style="fill:none;stroke:#99795c;stroke-linecap:butt;stroke-linejoin:round;text-rendering:geometricPrecision"
       id="rect141"
       height="36"
       width="87"
       clip-path="url(#clipPath1)"
       y="140"
       x="98" />
    <line
       transform="translate(250.69217,29.493193)"
       style="fill:none;stroke:#99795c;stroke-linecap:butt;stroke-linejoin:round;text-rendering:geometricPrecision"
       id="line143"
       y2="158"
       y1="158"
       x2="185"
       x1="98"
       clip-path="url(#clipPath1)" />
    <line
       transform="translate(250.69217,29.493193)"
       style="fill:none;stroke:#99795c;stroke-linecap:butt;stroke-linejoin:round;text-rendering:geometricPrecision"
       id="line145"
       y2="167"
       y1="167"
       x2="185"
       x1="98"
       clip-path="url(#clipPath1)" />
    <path
       transform="translate(250.69217,29.493193)"
       style="fill:#000000;stroke:none;stroke-linecap:butt;stroke-linejoin:round;text-rendering:geometricPrecision"
       inkscape:connector-curvature="0"
       id="path147"
       clip-path="url(#clipPath1)"
       d="m 104.9531,148.7417 q 0.6407,0 0.9219,-0.2422 0.2812,-0.2422 0.2812,-0.7891 0,-0.5468 -0.2812,-0.7812 -0.2812,-0.2344 -0.9219,-0.2344 l -0.875,0 0,2.0469 0.875,0 z m -0.875,1.4375 0,3.0312 -2.0625,0 0,-8.0156 3.1563,0 q 1.5781,0 2.3203,0.5313 0.7422,0.5312 0.7422,1.6718 0,0.7969 -0.3828,1.3125 -0.3828,0.5157 -1.1641,0.75 0.4219,0.0938 0.7578,0.4375 0.3359,0.3438 0.6797,1.0313 l 1.125,2.2812 -2.2031,0 -0.9688,-2 q -0.2969,-0.5937 -0.6015,-0.8125 -0.3047,-0.2187 -0.8204,-0.2187 l -0.5781,0 z m 11.8438,0 0,0.5625 -4.4844,0 q 0.0625,0.6719 0.4844,1.0078 0.4219,0.3359 1.1719,0.3359 0.6093,0 1.2421,-0.1796 0.6329,-0.1797 1.3047,-0.5391 l 0,1.4844 q -0.6718,0.25 -1.3594,0.3828 -0.6874,0.1328 -1.3593,0.1328 -1.6407,0 -2.5469,-0.8281 -0.9062,-0.8282 -0.9062,-2.3282 0,-1.4687 0.8906,-2.3125 0.8906,-0.8437 2.4531,-0.8437 1.4063,0 2.2578,0.8516 0.8516,0.8515 0.8516,2.2734 z m -1.9688,-0.625 q 0,-0.5625 -0.3203,-0.8906 -0.3203,-0.3282 -0.8359,-0.3282 -0.5625,0 -0.9063,0.3125 -0.3437,0.3125 -0.4375,0.9063 l 2.5,0 z m 8.8281,-2.1719 0,1.5625 q -0.3906,-0.2656 -0.7812,-0.3906 -0.3906,-0.125 -0.8281,-0.125 -0.7969,0 -1.25,0.4687 -0.4531,0.4688 -0.4531,1.3125 0,0.8438 0.4531,1.3125 0.4531,0.4688 1.25,0.4688 0.4531,0 0.8593,-0.1328 0.4063,-0.1328 0.75,-0.3985 l 0,1.5782 q -0.4531,0.1562 -0.914,0.2422 -0.461,0.0859 -0.9297,0.0859 -1.625,0 -2.5469,-0.8359 -0.9218,-0.836 -0.9218,-2.3204 0,-1.4843 0.9218,-2.3203 0.9219,-0.8359 2.5469,-0.8359 0.4687,0 0.9297,0.0781 0.4609,0.0781 0.914,0.25 z m 8.1407,2.7969 0,0.5625 -4.4844,0 q 0.0625,0.6719 0.4844,1.0078 0.4219,0.3359 1.1719,0.3359 0.6093,0 1.2421,-0.1796 0.6329,-0.1797 1.3047,-0.5391 l 0,1.4844 q -0.6718,0.25 -1.3594,0.3828 -0.6874,0.1328 -1.3593,0.1328 -1.6407,0 -2.5469,-0.8281 -0.9062,-0.8282 -0.9062,-2.3282 0,-1.4687 0.8906,-2.3125 0.8906,-0.8437 2.4531,-0.8437 1.4063,0 2.2578,0.8516 0.8516,0.8515 0.8516,2.2734 z m -1.9688,-0.625 q 0,-0.5625 -0.3203,-0.8906 -0.3203,-0.3282 -0.8359,-0.3282 -0.5625,0 -0.9063,0.3125 -0.3437,0.3125 -0.4375,0.9063 l 2.5,0 z m 5.8907,2.7812 0,3.1563 -1.9219,0 0,-8.2969 1.9219,0 0,0.875 q 0.4062,-0.5156 0.8906,-0.7656 0.4844,-0.25 1.1094,-0.25 1.1093,0 1.8203,0.8828 0.7109,0.8828 0.7109,2.2734 0,1.3907 -0.7109,2.2735 -0.711,0.8828 -1.8203,0.8828 -0.625,0 -1.1094,-0.25 -0.4844,-0.25 -0.8906,-0.7813 z m 1.2812,-3.8906 q -0.625,0 -0.9531,0.4531 -0.3281,0.4532 -0.3281,1.3125 0,0.8438 0.3281,1.3047 0.3281,0.461 0.9531,0.461 0.625,0 0.9453,-0.4532 0.3203,-0.4531 0.3203,-1.3125 0,-0.8593 -0.3203,-1.3125 -0.3203,-0.4531 -0.9453,-0.4531 z m 6.9062,-2.9531 0,1.7031 1.9688,0 0,1.375 -1.9688,0 0,2.5469 q 0,0.4219 0.1641,0.5703 0.1641,0.1484 0.6485,0.1484 l 1,0 0,1.375 -1.6563,0 q -1.1406,0 -1.6172,-0.4765 -0.4765,-0.4766 -0.4765,-1.6172 l 0,-2.5469 -0.9532,0 0,-1.375 0.9532,0 0,-1.7031 1.9374,0 z m 2.8907,1.7031 1.9219,0 0,6.0156 -1.9219,0 0,-6.0156 z m 0,-2.3437 1.9219,0 0,1.5625 -1.9219,0 0,-1.5625 z m 6.8593,3.5781 q -0.6406,0 -0.9765,0.4531 -0.3359,0.4531 -0.3359,1.3281 0,0.8594 0.3359,1.3204 0.3359,0.4609 0.9765,0.4609 0.6407,0 0.9688,-0.4609 0.3281,-0.461 0.3281,-1.3204 0,-0.875 -0.3281,-1.3281 -0.3281,-0.4531 -0.9688,-0.4531 z m 0,-1.375 q 1.5626,0 2.4297,0.8359 0.8672,0.836 0.8672,2.3203 0,1.4844 -0.8672,2.3204 -0.8671,0.8359 -2.4297,0.8359 -1.5468,0 -2.4296,-0.8359 -0.8828,-0.836 -0.8828,-2.3204 0,-1.4843 0.8828,-2.3203 0.8828,-0.8359 2.4296,-0.8359 z m 11.1876,2.5 0,3.6562 -1.9376,0 0,-0.5937 0,-2.2031 q 0,-0.7813 -0.0312,-1.0782 -0.0312,-0.2968 -0.125,-0.4375 -0.1094,-0.1875 -0.2969,-0.289 -0.1875,-0.1016 -0.4375,-0.1016 -0.6094,0 -0.9531,0.461 -0.3437,0.4609 -0.3437,1.289 l 0,2.9531 -1.9219,0 0,-6.0156 1.9219,0 0,0.875 q 0.4374,-0.5156 0.9296,-0.7656 0.4922,-0.25 1.0704,-0.25 1.0468,0 1.5859,0.6406 0.5391,0.6406 0.5391,1.8594 z m 1.9531,-2.3594 1.9219,0 0,6.0156 -1.9219,0 0,-6.0156 z m 0,-2.3437 1.9219,0 0,1.5625 -1.9219,0 0,-1.5625 z m 8.7031,2.5312 0,1.4688 q -0.625,-0.2657 -1.1953,-0.3907 -0.5703,-0.125 -1.0859,-0.125 -0.5469,0 -0.8126,0.1329 -0.2656,0.1328 -0.2656,0.414 0,0.2344 0.2032,0.3594 0.2031,0.125 0.7187,0.1875 l 0.3437,0.0469 q 1.4688,0.1875 1.9844,0.6172 0.5156,0.4296 0.5156,1.3515 0,0.9531 -0.7109,1.4375 -0.7109,0.4844 -2.1172,0.4844 -0.5937,0 -1.2343,-0.0938 -0.6407,-0.0937 -1.3126,-0.2812 l 0,-1.4688 q 0.5782,0.2813 1.1797,0.4219 0.6016,0.1406 1.2266,0.1406 0.5625,0 0.8516,-0.1562 0.289,-0.1563 0.289,-0.4531 0,-0.2657 -0.1953,-0.3907 -0.1953,-0.125 -0.789,-0.2031 l -0.3282,-0.0312 q -1.2968,-0.1719 -1.8125,-0.6016 -0.5156,-0.4297 -0.5156,-1.3203 0,-0.9531 0.6563,-1.4141 0.6562,-0.4609 2.0156,-0.4609 0.5312,0 1.1172,0.0781 0.5859,0.0781 1.2734,0.25 z m 4.4062,-1.8906 0,1.7031 1.9688,0 0,1.375 -1.9688,0 0,2.5469 q 0,0.4219 0.1641,0.5703 0.1641,0.1484 0.6485,0.1484 l 1,0 0,1.375 -1.6563,0 q -1.1406,0 -1.6172,-0.4765 -0.4765,-0.4766 -0.4765,-1.6172 l 0,-2.5469 -0.9532,0 0,-1.375 0.9532,0 0,-1.7031 1.9374,0 z" />
    <rect
       transform="translate(250.69217,29.493193)"
       style="fill:#b2b2b2;stroke:none;stroke-linecap:butt;stroke-linejoin:round;text-rendering:geometricPrecision"
       id="rect149"
       height="36"
       width="41"
       clip-path="url(#clipPath1)"
       y="80"
       x="122" />
    <rect
       transform="translate(250.69217,29.493193)"
       style="fill:url(#linearGradient3);stroke:none;stroke-linecap:butt;stroke-linejoin:round;text-rendering:geometricPrecision"
       id="rect151"
       height="36"
       width="41"
       clip-path="url(#clipPath1)"
       y="77"
       x="119" />
    <rect
       transform="translate(250.69217,29.493193)"
       style="fill:none;stroke:#99795c;stroke-linecap:butt;stroke-linejoin:round;text-rendering:geometricPrecision"
       id="rect153"
       height="36"
       width="41"
       clip-path="url(#clipPath1)"
       y="77"
       x="119" />
    <line
       transform="translate(250.69217,29.493193)"
       style="fill:none;stroke:#99795c;stroke-linecap:butt;stroke-linejoin:round;text-rendering:geometricPrecision"
       id="line155"
       y2="95"
       y1="95"
       x2="160"
       x1="119"
       clip-path="url(#clipPath1)" />
    <line
       transform="translate(250.69217,29.493193)"
       style="fill:none;stroke:#99795c;stroke-linecap:butt;stroke-linejoin:round;text-rendering:geometricPrecision"
       id="line157"
       y2="104"
       y1="104"
       x2="160"
       x1="119"
       clip-path="url(#clipPath1)" />
    <path
       transform="translate(250.69217,29.493193)"
       style="fill:#000000;stroke:none;stroke-linecap:butt;stroke-linejoin:round;text-rendering:geometricPrecision"
       inkscape:connector-curvature="0"
       id="path159"
       clip-path="url(#clipPath1)"
       d="m 127.4062,88.7417 -3.2031,0 -0.7969,1.4687 -2.125,0 4.5313,-8.0156 2.375,0 1.4063,8.0156 -1.9532,0 -0.2344,-1.4687 z m -2.4218,-1.4531 2.1562,0 -0.4844,-3.0782 -1.6718,3.0782 z m 12.4062,-2.9063 -0.3125,1.5625 q -0.375,-0.25 -0.75,-0.3828 -0.375,-0.1328 -0.7343,-0.1328 -0.9532,0 -1.5469,0.625 -0.5938,0.625 -0.5938,1.6094 0,0.6406 0.375,0.9843 0.375,0.3438 1.0469,0.3438 0.4531,0 0.8828,-0.1328 0.4297,-0.1328 0.836,-0.3985 l -0.2969,1.5782 q -0.4844,0.1562 -0.9688,0.2422 -0.4843,0.0859 -0.9687,0.0859 -1.4219,0 -2.1875,-0.6406 -0.7657,-0.6407 -0.7657,-1.7969 0,-0.75 0.2813,-1.4375 0.2813,-0.6875 0.8125,-1.25 0.5781,-0.5938 1.3359,-0.8906 0.7579,-0.2969 1.7579,-0.2969 0.4531,0 0.9062,0.0781 0.4531,0.0781 0.8906,0.25 z m 4.5625,-1.8906 -0.3281,1.7031 1.9688,0 -0.2657,1.375 -1.9687,0 -0.5,2.5469 q -0.0156,0.0781 -0.0235,0.1406 -0.008,0.0625 -0.008,0.1094 0,0.25 0.1641,0.3594 0.164,0.1093 0.5547,0.1093 l 0.9843,0 -0.2656,1.375 -1.625,0 q -0.875,0 -1.3281,-0.3671 -0.4531,-0.3672 -0.4531,-1.0547 0,-0.1407 0.0156,-0.3125 0.0156,-0.1719 0.0469,-0.3594 l 0.5,-2.5469 -0.9531,0 0.2656,-1.375 0.9531,0 0.3437,-1.7031 1.9219,0 z m 5.1719,2.9375 q -0.75,0 -1.2344,0.6719 -0.4844,0.6718 -0.4844,1.7187 0,0.5781 0.2657,0.875 0.2656,0.2969 0.7656,0.2969 0.7344,0 1.2187,-0.6797 0.4844,-0.6797 0.4844,-1.7266 0,-0.5625 -0.2578,-0.8593 -0.2578,-0.2969 -0.7578,-0.2969 z m 0.1562,-1.375 q 1.3438,0 2.1094,0.6797 0.7656,0.6797 0.7656,1.8515 0,0.6875 -0.2421,1.3282 -0.2422,0.6406 -0.6953,1.1718 -0.5469,0.6407 -1.2969,0.961 -0.75,0.3203 -1.6719,0.3203 -1.3281,0 -2.0938,-0.6797 -0.7656,-0.6797 -0.7656,-1.8672 0,-0.6719 0.25,-1.3203 0.25,-0.6484 0.7188,-1.1797 0.5312,-0.625 1.2734,-0.9453 0.7422,-0.3203 1.6484,-0.3203 z m 9.375,1.7812 q -0.2031,-0.1093 -0.4453,-0.1718 -0.2421,-0.0625 -0.5234,-0.0625 -0.7344,0 -1.2187,0.4765 -0.4844,0.4766 -0.6563,1.3672 l -0.5469,2.7656 -1.9218,0 1.1718,-6.0156 1.9219,0 -0.2031,1.0313 q 0.375,-0.5625 0.9531,-0.8672 0.5781,-0.3047 1.2656,-0.3047 0.1094,0 0.2344,0.0078 0.125,0.0078 0.3125,0.0234 l -0.3438,1.75 z" />
    <polygon
       transform="translate(250.69217,29.493193)"
       style="fill:none;stroke:#424242;stroke-linecap:butt;stroke-linejoin:round;text-rendering:geometricPrecision"
       id="polygon161"
       clip-path="url(#clipPath1)"
       points="137,188 139,181 137,176 135,181 " />
    <polygon
       transform="translate(250.69217,29.493193)"
       style="fill:#424242;stroke:none;stroke-linecap:butt;stroke-linejoin:round;text-rendering:geometricPrecision"
       id="polygon163"
       clip-path="url(#clipPath1)"
       points="137,188 139,181 137,176 135,181 " />
    <polygon
       transform="translate(250.69217,29.493193)"
       style="fill:none;stroke:#424242;stroke-linecap:butt;stroke-linejoin:round;text-rendering:geometricPrecision"
       id="polygon165"
       clip-path="url(#clipPath1)"
       points="137,188 139,181 137,176 135,181 " />
    <path
       transform="translate(250.69217,29.493193)"
       style="fill:none;stroke:#424242;stroke-linecap:butt;stroke-linejoin:round;text-rendering:geometricPrecision"
       inkscape:connector-curvature="0"
       id="path167"
       clip-path="url(#clipPath1)"
       d="m 137,224 0,-36" />
    <path
       transform="translate(250.69217,29.493193)"
       style="fill:#000000;stroke:none;stroke-linecap:butt;stroke-linejoin:round;text-rendering:geometricPrecision"
       inkscape:connector-curvature="0"
       id="path169"
       clip-path="url(#clipPath1)"
       d="m 141.3594,218.3042 1.7812,0 0,-6.125 -1.9375,0.3906 0,-0.9844 1.9219,-0.3906 1.0938,0 0,7.1094 1.7656,0 0,0.9062 -4.625,0 0,-0.9062 z" />
    <polygon
       transform="translate(250.69217,29.493193)"
       style="fill:none;stroke:#424242;stroke-linecap:butt;stroke-linejoin:round;text-rendering:geometricPrecision"
       id="polygon171"
       clip-path="url(#clipPath1)"
       points="137,113 133,120 141,120 " />
    <path
       transform="translate(250.69217,29.493193)"
       style="fill:none;stroke:#424242;stroke-linecap:butt;stroke-linejoin:round;text-rendering:geometricPrecision"
       inkscape:connector-curvature="0"
       id="path173"
       clip-path="url(#clipPath1)"
       d="m 137,120 0,20" />
  </g>
</svg>
