<?xml version="1.0" encoding="UTF-8" standalone="no"?>
<!-- Created with Inkscape (http://www.inkscape.org/) -->

<svg
   xmlns:dc="http://purl.org/dc/elements/1.1/"
   xmlns:cc="http://creativecommons.org/ns#"
   xmlns:rdf="http://www.w3.org/1999/02/22-rdf-syntax-ns#"
   xmlns:svg="http://www.w3.org/2000/svg"
   xmlns="http://www.w3.org/2000/svg"
   xmlns:sodipodi="http://sodipodi.sourceforge.net/DTD/sodipodi-0.dtd"
   xmlns:inkscape="http://www.inkscape.org/namespaces/inkscape"
   width="82.706161mm"
   height="102.34349mm"
   viewBox="-3543305 0 0 362.63441"
   id="svg2"
   version="1.1"
   inkscape:version="0.91 r13725"
   sodipodi:docname="mountain-trivial.svg">
  <defs
     id="defs4" />
  <sodipodi:namedview
     id="base"
     pagecolor="#ffffff"
     bordercolor="#666666"
     borderopacity="1.0"
     inkscape:pageopacity="0.0"
     inkscape:pageshadow="2"
     inkscape:zoom="1.4"
     inkscape:cx="395.54301"
     inkscape:cy="119.2293"
     inkscape:document-units="px"
     inkscape:current-layer="layer1"
     showgrid="false"
     fit-margin-top="0"
     fit-margin-left="0"
     fit-margin-right="0"
     fit-margin-bottom="0"
     inkscape:window-width="1918"
     inkscape:window-height="1059"
     inkscape:window-x="0"
     inkscape:window-y="19"
     inkscape:window-maximized="1" />
  <metadata
     id="metadata7">
    <rdf:RDF>
      <cc:Work
         rdf:about="">
        <dc:format>image/svg+xml</dc:format>
        <dc:type
           rdf:resource="http://purl.org/dc/dcmitype/StillImage" />
        <dc:title></dc:title>
      </cc:Work>
    </rdf:RDF>
  </metadata>
  <g
     inkscape:label="Layer 1"
     inkscape:groupmode="layer"
     id="layer1"
     transform="translate(-95.846042,-38.668318)">
    <path
       sodipodi:nodetypes="sscccssscsssssscssscccssssssssssss"
       inkscape:connector-curvature="0"
       id="path4138"
       d="m 220.66117,397.91593 c 0,-0.3149 3.00947,-6.36829 6.68771,-13.45245 l 6.68771,-12.8803 0,-6.768 0,-6.768 -8.65468,0 c -5.24526,0 -8.65468,-0.35316 -8.65468,-0.89633 0,-0.54318 3.40942,-0.89634 8.65468,-0.89634 l 8.65468,0 0,-3.02842 c 0,-2.53025 -0.39444,-3.21451 -2.39745,-4.15978 -4.27762,-2.01849 -6.07585,-9.17951 -3.28925,-13.09853 4.83969,-6.8066 13.5546,-3.56037 13.5546,5.04901 0,3.9214 -2.23259,7.6112 -5.10164,8.43154 -1.64046,0.46908 -1.97947,1.10027 -1.97947,3.68609 l 0,3.12009 9.04809,0 c 5.50753,0 9.04807,0.35076 9.04807,0.89634 0,0.54557 -3.54054,0.89633 -9.04807,0.89633 l -9.04809,0 0.0109,6.49844 0.0109,6.49844 6.67884,12.98475 c 6.13776,11.93287 7.21361,14.35352 6.37924,14.35352 -0.16469,0 -3.21554,-5.66939 -6.77955,-12.59873 -5.69531,-11.07293 -6.59497,-12.40273 -7.42881,-10.98012 -0.52191,0.89023 -3.37613,6.37868 -6.3429,12.19651 -4.89503,9.59935 -6.68687,12.52433 -6.68687,10.91594 z m 18.82588,-52.09018 c 3.35372,-4.85713 0.81916,-11.97966 -4.26303,-11.97966 -3.73977,0 -5.01421,0.7494 -6.37578,3.74884 -0.96419,2.12414 -1.02335,3.23184 -0.30527,5.71068 1.06819,3.68729 2.56388,4.81828 6.42005,4.85462 2.20542,0.0179 3.28106,-0.53421 4.52403,-2.33448 z"
       style="fill:#000000;stroke:#000000;stroke-width:1.67955768;stroke-miterlimit:4;stroke-dasharray:none;stroke-opacity:1" />
    <path
       style="fill:#dbdbdb;fill-opacity:1;fill-rule:evenodd;stroke:#000000;stroke-width:3;stroke-linecap:butt;stroke-linejoin:miter;stroke-miterlimit:4;stroke-dasharray:none;stroke-opacity:1"
       d="m 511.13672,43.220703 -119.19727,296.984377 -55.55859,-81.82227 -57.57813,141.41992 338.40039,0 -106.0664,-356.582027 z"
       id="path6650"
       inkscape:connector-curvature="0" />
    <path
       style="fill:none;fill-rule:evenodd;stroke:#000000;stroke-width:2.22688699;stroke-linecap:butt;stroke-linejoin:miter;stroke-miterlimit:4;stroke-dasharray:none;stroke-opacity:1"
       d="m 170.45368,221.14636 c -40.58962,0 -73.494257,16.59605 -73.494256,37.06676 0,20.4707 32.904646,37.06534 73.494256,37.06534 3.03049,0 6.01051,-0.10413 8.94484,-0.28385 l -0.0479,-0.0801 c 0,0 19.85468,26.77459 21.92435,24.91125 0,0 -0.23068,-27.47814 4.22509,-29.02572 22.90163,-6.27789 38.44784,-18.51642 38.44784,-32.58692 0,-20.47071 -32.90464,-37.06676 -73.49425,-37.06676 z"
       id="path6654"
       inkscape:connector-curvature="0"
       sodipodi:nodetypes="sssccscss" />
    <flowRoot
       xml:space="preserve"
       id="flowRoot6663"
       style="font-style:normal;font-variant:normal;font-weight:normal;font-stretch:normal;font-size:16px;line-height:125%;font-family:FreeSans;-inkscape-font-specification:FreeSans;letter-spacing:0px;word-spacing:0px;fill:#000000;fill-opacity:1;stroke:none;stroke-width:1px;stroke-linecap:butt;stroke-linejoin:miter;stroke-opacity:1"
       transform="translate(2.1428573,32.142857)"><flowRegion
         id="flowRegion6665"><rect
           id="rect6667"
           width="85"
           height="40"
           x="129.28572"
           y="216.64792" /></flowRegion><flowPara
         id="flowPara6669"
         style="font-style:normal;font-variant:normal;font-weight:normal;font-stretch:normal;font-size:20px;font-family:Monaco;-inkscape-font-specification:Monaco">Pfff...</flowPara></flowRoot>    <path
       style="fill:#ffffff;fill-opacity:1;fill-rule:evenodd;stroke:#ffffff;stroke-width:1px;stroke-linecap:butt;stroke-linejoin:miter;stroke-opacity:1"
       d="m 314.66252,316.46608 21.97081,-54.16944 28.66309,42.04761 -4.67196,12.37436 -9.84899,-11.11168 -10.85914,17.42514 -4.04061,-15.65737 -10.10152,11.61676 z"
       id="path6675"
       inkscape:connector-curvature="0"
       sodipodi:nodetypes="ccccccccc" />
    <path
       sodipodi:nodetypes="ccccccccc"
       inkscape:connector-curvature="0"
       id="path6677"
       d="m 489.03752,103.34108 21.97081,-54.169441 14.37738,49.279758 -7.79696,14.070783 -4.04542,-20.040246 -5.23414,19.925136 -6.18347,-10.83594 -9.11938,8.40247 z"
       style="fill:#ffffff;fill-opacity:1;fill-rule:evenodd;stroke:#ffffff;stroke-width:1px;stroke-linecap:butt;stroke-linejoin:miter;stroke-opacity:1" />
    <path
       sodipodi:nodetypes="sssccscss"
       inkscape:connector-curvature="0"
       id="path6679"
       d="m 201.16796,471.86065 c -40.58962,0 -73.49425,16.59605 -73.49425,37.06676 0,20.4707 32.90464,37.06534 73.49425,37.06534 3.03049,0 6.01051,-0.10413 8.94484,-0.28385 l -0.0479,-0.0801 c 0,0 19.85468,26.77459 21.92435,24.91125 0,0 -0.23068,-27.47814 4.22509,-29.02572 22.90163,-6.27789 38.44784,-18.51642 38.44784,-32.58692 0,-20.47071 -32.90464,-37.06676 -73.49425,-37.06676 z"
       style="fill:none;fill-rule:evenodd;stroke:#000000;stroke-width:2.22688699;stroke-linecap:butt;stroke-linejoin:miter;stroke-miterlimit:4;stroke-dasharray:none;stroke-opacity:1" />
    <flowRoot
       transform="translate(32.857143,282.85714)"
       style="font-style:normal;font-variant:normal;font-weight:normal;font-stretch:normal;font-size:16px;line-height:125%;font-family:FreeSans;-inkscape-font-specification:FreeSans;letter-spacing:0px;word-spacing:0px;fill:#000000;fill-opacity:1;stroke:none;stroke-width:1px;stroke-linecap:butt;stroke-linejoin:miter;stroke-opacity:1"
       id="flowRoot6681"
       xml:space="preserve"><flowRegion
         id="flowRegion6683"><rect
           y="216.64792"
           x="129.28572"
           height="40"
           width="85"
           id="rect6685" /></flowRegion><flowPara
         style="font-style:normal;font-variant:normal;font-weight:normal;font-stretch:normal;font-size:20px;font-family:Monaco;-inkscape-font-specification:Monaco"
         id="flowPara6687">Oh...</flowPara></flowRoot>  </g>
</svg>
