<?xml version="1.0" encoding="UTF-8" standalone="no"?>
<svg
   xmlns:dc="http://purl.org/dc/elements/1.1/"
   xmlns:cc="http://creativecommons.org/ns#"
   xmlns:rdf="http://www.w3.org/1999/02/22-rdf-syntax-ns#"
   xmlns:svg="http://www.w3.org/2000/svg"
   xmlns="http://www.w3.org/2000/svg"
   xmlns:sodipodi="http://sodipodi.sourceforge.net/DTD/sodipodi-0.dtd"
   xmlns:inkscape="http://www.inkscape.org/namespaces/inkscape"
   width="1.6927084in"
   stroke-miterlimit="10"
   font-weight="normal"
   viewBox="0 0 162.5 179.49999"
   height="1.8697916in"
   font-style="normal"
   font-size="12"
   id="svg2"
   version="1.1"
   inkscape:version="0.91 r13725"
   sodipodi:docname="first_generation_class_structure.svg"
   style="font-style:normal;font-weight:normal;font-size:12px;font-family:Dialog;color-interpolation:auto;fill:#000000;fill-opacity:1;stroke:#000000;stroke-width:1;stroke-linecap:square;stroke-linejoin:miter;stroke-miterlimit:10;stroke-dasharray:none;stroke-dashoffset:0;stroke-opacity:1;color-rendering:auto;image-rendering:auto;shape-rendering:auto;text-rendering:auto">
  <metadata
     id="metadata135">
    <rdf:RDF>
      <cc:Work
         rdf:about="">
        <dc:format>image/svg+xml</dc:format>
        <dc:type
           rdf:resource="http://purl.org/dc/dcmitype/StillImage" />
        <dc:title></dc:title>
      </cc:Work>
    </rdf:RDF>
  </metadata>
  <sodipodi:namedview
     pagecolor="#ffffff"
     bordercolor="#666666"
     borderopacity="1"
     objecttolerance="10"
     gridtolerance="10"
     guidetolerance="10"
     inkscape:pageopacity="0"
     inkscape:pageshadow="2"
     inkscape:window-width="1918"
     inkscape:window-height="1059"
     id="namedview133"
     showgrid="false"
     fit-margin-top="0"
     fit-margin-left="0"
     fit-margin-right="0"
     fit-margin-bottom="0"
     inkscape:zoom="0.81045752"
     inkscape:cx="154.81149"
     inkscape:cy="88.593746"
     inkscape:window-x="0"
     inkscape:window-y="19"
     inkscape:window-maximized="0"
     inkscape:current-layer="svg2" />
  <!--Generated by the Batik Graphics2D SVG Generator
 This is MagicDraw diagram.-->
  <defs
     id="genericDefs">
    <defs
       id="defs1">
      <linearGradient
         spreadMethod="pad"
         id="linearGradient1"
         y2="150"
         y1="42"
         x2="201"
         gradientUnits="userSpaceOnUse"
         x1="42">
        <stop
           id="stop9"
           offset="0%"
           stop-color="rgb(255,204,153)"
           stop-opacity="1" />
        <stop
           id="stop11"
           offset="100%"
           stop-color="rgb(255,255,218)"
           stop-opacity="1" />
      </linearGradient>
      <linearGradient
         spreadMethod="pad"
         id="linearGradient2"
         y2="218"
         y1="182"
         x2="194"
         gradientUnits="userSpaceOnUse"
         x1="133">
        <stop
           id="stop14"
           offset="0%"
           stop-color="rgb(255,204,153)"
           stop-opacity="1" />
        <stop
           id="stop16"
           offset="100%"
           stop-color="rgb(255,255,218)"
           stop-opacity="1" />
      </linearGradient>
      <linearGradient
         spreadMethod="pad"
         id="linearGradient3"
         y2="218"
         y1="182"
         x2="103"
         gradientUnits="userSpaceOnUse"
         x1="42">
        <stop
           id="stop19"
           offset="0%"
           stop-color="rgb(255,204,153)"
           stop-opacity="1" />
        <stop
           id="stop21"
           offset="100%"
           stop-color="rgb(255,255,218)"
           stop-opacity="1" />
      </linearGradient>
      <clipPath
         id="clipPath1"
         clipPathUnits="userSpaceOnUse">
        <path
           id="path24"
           d="m 0,-5 408,0 0,258 L 0,253 0,-5 Z"
           inkscape:connector-curvature="0" />
      </clipPath>
      <clipPath
         id="clipPath2"
         clipPathUnits="userSpaceOnUse">
        <path
           id="path27"
           d="M -7.0437,61.8079 344.7704,-101.81 443.0255,109.4598 91.2113,273.0777 -7.0437,61.8079 Z"
           inkscape:connector-curvature="0" />
      </clipPath>
    </defs>
  </defs>
  <rect
     x="45"
     y="45"
     clip-path="url(#clipPath1)"
     width="159"
     height="108"
     id="rect61"
     style="fill:#b2b2b2;stroke:none;stroke-linecap:butt;stroke-linejoin:round;text-rendering:geometricPrecision"
     transform="translate(-41.5,-41.5)" />
  <rect
     x="42"
     y="42"
     clip-path="url(#clipPath1)"
     width="159"
     height="108"
     id="rect63"
     style="fill:url(#linearGradient1);stroke:none;stroke-linecap:butt;stroke-linejoin:round;text-rendering:geometricPrecision"
     transform="translate(-41.5,-41.5)" />
  <rect
     x="42"
     y="42"
     clip-path="url(#clipPath1)"
     width="159"
     height="108"
     id="rect65"
     style="fill:none;stroke:#99795c;stroke-linecap:butt;stroke-linejoin:round;text-rendering:geometricPrecision"
     transform="translate(-41.5,-41.5)" />
  <line
     clip-path="url(#clipPath1)"
     x1="42"
     x2="201"
     y1="60"
     y2="60"
     id="line67"
     style="fill:none;stroke:#99795c;stroke-linecap:butt;stroke-linejoin:round;text-rendering:geometricPrecision"
     transform="translate(-41.5,-41.5)" />
  <path
     d="m 45.5312,69.7573 2.9063,0 0,0.875 -2.9063,0 0,-0.875 z"
     clip-path="url(#clipPath1)"
     id="path69"
     inkscape:connector-curvature="0"
     style="fill:#000000;stroke:none;stroke-linecap:butt;stroke-linejoin:round;text-rendering:geometricPrecision"
     transform="translate(-41.5,-41.5)" />
  <path
     d="m 54.3594,67.4292 0,0.9219 q -0.4063,-0.2344 -0.8282,-0.3516 -0.4218,-0.1172 -0.8593,-0.1172 -0.9531,0 -1.4844,0.6094 -0.5313,0.6094 -0.5313,1.7187 0,1.0938 0.5313,1.7032 0.5313,0.6093 1.4844,0.6093 0.4375,0 0.8593,-0.1093 0.4219,-0.1094 0.8282,-0.3438 l 0,0.9063 q -0.4063,0.2031 -0.8516,0.2968 -0.4453,0.0938 -0.9453,0.0938 -1.3594,0 -2.1563,-0.8516 -0.7968,-0.8515 -0.7968,-2.3047 0,-1.4687 0.8047,-2.3125 0.8047,-0.8437 2.2109,-0.8437 0.4688,0 0.8984,0.0937 0.4297,0.0938 0.836,0.2813 z m 4.4062,2.75 q -1.1875,0 -1.6484,0.2812 -0.461,0.2813 -0.461,0.9375 0,0.5157 0.3438,0.8282 0.3438,0.3125 0.9375,0.3125 0.8281,0 1.3203,-0.586 0.4922,-0.5859 0.4922,-1.539 l 0,-0.2344 -0.9844,0 z m 1.9688,-0.4063 0,3.4375 -0.9844,0 0,-0.9062 q -0.3281,0.5469 -0.8359,0.8047 -0.5079,0.2578 -1.2422,0.2578 -0.9219,0 -1.4688,-0.5156 -0.5469,-0.5157 -0.5469,-1.3907 0,-1.0156 0.6797,-1.5312 0.6797,-0.5156 2.0391,-0.5156 l 1.375,0 0,-0.0938 q 0,-0.6875 -0.4453,-1.0625 -0.4453,-0.375 -1.2578,-0.375 -0.5157,0 -1.0078,0.125 -0.4922,0.125 -0.9453,0.375 l 0,-0.9062 q 0.5468,-0.2188 1.0624,-0.3203 0.5157,-0.1016 0.9844,-0.1016 1.3125,0 1.9532,0.6719 0.6406,0.6718 0.6406,2.0468 z m 2.2968,-4.9218 1,0 0,8.3593 -1,0 0,-8.3593 z m 3,0 1,0 0,8.3593 -1,0 0,-8.3593 z m 8.1563,5.1093 0,0.4844 -4.5469,0 q 0.0625,1.0156 0.6094,1.5469 0.5469,0.5312 1.5312,0.5312 0.5782,0 1.1094,-0.1406 0.5313,-0.1406 1.0625,-0.4062 l 0,0.9218 q -0.5312,0.2344 -1.0937,0.3516 -0.5625,0.1172 -1.125,0.1172 -1.4532,0 -2.2891,-0.8359 -0.8359,-0.836 -0.8359,-2.2735 0,-1.4687 0.7968,-2.3359 0.7969,-0.8672 2.1563,-0.8672 1.2031,0 1.9141,0.7812 0.7109,0.7813 0.7109,2.125 z m -1,-0.2968 q 0,-0.8125 -0.4453,-1.2969 -0.4453,-0.4844 -1.1797,-0.4844 -0.8281,0 -1.3203,0.4688 -0.4922,0.4687 -0.5703,1.3125 l 3.5156,0 z m 6.3281,-1.5469 q -0.1562,-0.0938 -0.3515,-0.1406 -0.1953,-0.0469 -0.4297,-0.0469 -0.8438,0 -1.2891,0.5469 Q 77,69.0229 77,70.0386 l 0,3.1718 -1,0 0,-6.0156 1,0 0,0.9375 q 0.2969,-0.5469 0.7969,-0.8125 0.5,-0.2656 1.2187,-0.2656 0.1094,0 0.2266,0.0078 0.1172,0.0078 0.2734,0.0391 l 0,1.0156 z"
     clip-path="url(#clipPath1)"
     id="path71"
     inkscape:connector-curvature="0"
     style="fill:#280000;stroke:none;stroke-linecap:butt;stroke-linejoin:round;text-rendering:geometricPrecision"
     transform="translate(-41.5,-41.5)" />
  <path
     d="m 85.2969,71.8511 1.125,0 0,1.3593 -1.125,0 0,-1.3593 z m 0,-4.3282 1.125,0 0,1.3594 -1.125,0 0,-1.3594 z m 13.7812,-1.7187 0,1.1562 q -0.5469,-0.5156 -1.164,-0.7656 -0.6172,-0.25 -1.3203,-0.25 -1.375,0 -2.1016,0.836 -0.7266,0.8359 -0.7266,2.4296 0,1.5782 0.7266,2.4219 0.7266,0.8438 2.1016,0.8438 0.7031,0 1.3203,-0.25 0.6171,-0.25 1.164,-0.7657 l 0,1.125 q -0.5625,0.3907 -1.1953,0.586 -0.6328,0.1953 -1.3516,0.1953 -1.8124,0 -2.8593,-1.1172 -1.0469,-1.1172 -1.0469,-3.0391 0,-1.9375 1.0469,-3.0546 1.0469,-1.1172 2.8593,-1.1172 0.7188,0 1.3594,0.1953 0.6406,0.1953 1.1875,0.5703 z m 4.6875,4.375 q -1.1875,0 -1.6484,0.2812 -0.461,0.2813 -0.461,0.9375 0,0.5157 0.3438,0.8282 0.3438,0.3125 0.9375,0.3125 0.8281,0 1.3203,-0.586 0.4922,-0.5859 0.4922,-1.539 l 0,-0.2344 -0.9844,0 z m 1.9688,-0.4063 0,3.4375 -0.9844,0 0,-0.9062 q -0.3281,0.5469 -0.8359,0.8047 -0.5079,0.2578 -1.2422,0.2578 -0.9219,0 -1.4688,-0.5156 -0.5469,-0.5157 -0.5469,-1.3907 0,-1.0156 0.6797,-1.5312 0.6797,-0.5156 2.0391,-0.5156 l 1.375,0 0,-0.0938 q 0,-0.6875 -0.4453,-1.0625 -0.4453,-0.375 -1.2578,-0.375 -0.5157,0 -1.0078,0.125 -0.4922,0.125 -0.9453,0.375 l 0,-0.9062 q 0.5468,-0.2188 1.0624,-0.3203 0.5157,-0.1016 0.9844,-0.1016 1.3125,0 1.9532,0.6719 0.6406,0.6718 0.6406,2.0468 z m 2.2968,-4.9218 1,0 0,8.3593 -1,0 0,-8.3593 z m 3,0 1,0 0,8.3593 -1,0 0,-8.3593 z m 8.1563,5.1093 0,0.4844 -4.5469,0 q 0.0625,1.0156 0.6094,1.5469 0.5469,0.5312 1.5312,0.5312 0.5782,0 1.1094,-0.1406 0.5313,-0.1406 1.0625,-0.4062 l 0,0.9218 q -0.5312,0.2344 -1.0937,0.3516 -0.5625,0.1172 -1.125,0.1172 -1.4532,0 -2.2891,-0.8359 -0.8359,-0.836 -0.8359,-2.2735 0,-1.4687 0.7968,-2.3359 0.7969,-0.8672 2.1563,-0.8672 1.2031,0 1.9141,0.7812 0.7109,0.7813 0.7109,2.125 z m -1,-0.2968 q 0,-0.8125 -0.4453,-1.2969 -0.4453,-0.4844 -1.1797,-0.4844 -0.8281,0 -1.3203,0.4688 -0.4922,0.4687 -0.5703,1.3125 l 3.5156,0 z m 6.3281,-1.5469 q -0.1562,-0.0938 -0.3515,-0.1406 -0.1953,-0.0469 -0.4297,-0.0469 -0.8438,0 -1.2891,0.5469 Q 122,69.0229 122,70.0386 l 0,3.1718 -1,0 0,-6.0156 1,0 0,0.9375 q 0.2969,-0.5469 0.7969,-0.8125 0.5,-0.2656 1.2187,-0.2656 0.1094,0 0.2266,0.0078 0.1172,0.0078 0.2734,0.0391 l 0,1.0156 z"
     clip-path="url(#clipPath1)"
     id="path73"
     inkscape:connector-curvature="0"
     style="fill:#404040;stroke:none;stroke-linecap:butt;stroke-linejoin:round;text-rendering:geometricPrecision"
     transform="translate(-41.5,-41.5)" />
  <path
     d="m 45.5312,81.7573 2.9063,0 0,0.875 -2.9063,0 0,-0.875 z"
     clip-path="url(#clipPath1)"
     id="path75"
     inkscape:connector-curvature="0"
     style="fill:#000000;stroke:none;stroke-linecap:butt;stroke-linejoin:round;text-rendering:geometricPrecision"
     transform="translate(-41.5,-41.5)" />
  <path
     d="m 53.5156,80.1167 q -0.1562,-0.0938 -0.3515,-0.1406 -0.1953,-0.0469 -0.4297,-0.0469 -0.8438,0 -1.2891,0.5469 Q 51,81.0229 51,82.0386 l 0,3.1718 -1,0 0,-6.0156 1,0 0,0.9375 q 0.2969,-0.5469 0.7969,-0.8125 0.5,-0.2656 1.2187,-0.2656 0.1094,0 0.2266,0.0078 0.1172,0.0078 0.2734,0.0391 l 0,1.0156 z m 6.6719,1.8437 0,0.4844 -4.5469,0 q 0.0625,1.0156 0.6094,1.5469 0.5469,0.5312 1.5312,0.5312 0.5782,0 1.1094,-0.1406 0.5313,-0.1406 1.0625,-0.4062 l 0,0.9218 q -0.5312,0.2344 -1.0937,0.3516 -0.5625,0.1172 -1.125,0.1172 -1.4532,0 -2.2891,-0.8359 -0.8359,-0.836 -0.8359,-2.2735 0,-1.4687 0.7968,-2.3359 0.7969,-0.8672 2.1563,-0.8672 1.2031,0 1.9141,0.7812 0.7109,0.7813 0.7109,2.125 z m -1,-0.2968 q 0,-0.8125 -0.4453,-1.2969 -0.4453,-0.4844 -1.1797,-0.4844 -0.8281,0 -1.3203,0.4688 -0.4922,0.4687 -0.5703,1.3125 l 3.5156,0 z m 7.1719,-2.2344 0,0.9219 q -0.4063,-0.2344 -0.8282,-0.3516 -0.4218,-0.1172 -0.8593,-0.1172 -0.9531,0 -1.4844,0.6094 -0.5313,0.6094 -0.5313,1.7187 0,1.0938 0.5313,1.7032 0.5313,0.6093 1.4844,0.6093 0.4375,0 0.8593,-0.1093 0.4219,-0.1094 0.8282,-0.3438 l 0,0.9063 q -0.4063,0.2031 -0.8516,0.2968 -0.4453,0.0938 -0.9453,0.0938 -1.3594,0 -2.1563,-0.8516 -0.7968,-0.8515 -0.7968,-2.3047 0,-1.4687 0.8047,-2.3125 0.8047,-0.8437 2.2109,-0.8437 0.4688,0 0.8984,0.0937 0.4297,0.0938 0.836,0.2813 z m 6.8281,2.5312 0,0.4844 -4.5469,0 q 0.0625,1.0156 0.6094,1.5469 0.5469,0.5312 1.5312,0.5312 0.5782,0 1.1094,-0.1406 0.5313,-0.1406 1.0625,-0.4062 l 0,0.9218 q -0.5312,0.2344 -1.0937,0.3516 -0.5625,0.1172 -1.125,0.1172 -1.4532,0 -2.2891,-0.8359 -0.8359,-0.836 -0.8359,-2.2735 0,-1.4687 0.7968,-2.3359 0.7969,-0.8672 2.1563,-0.8672 1.2031,0 1.9141,0.7812 0.7109,0.7813 0.7109,2.125 z m -1,-0.2968 q 0,-0.8125 -0.4453,-1.2969 -0.4453,-0.4844 -1.1797,-0.4844 -0.8281,0 -1.3203,0.4688 -0.4922,0.4687 -0.5703,1.3125 l 3.5156,0 z M 76,84.3042 l 0,3.1875 -1,0 0,-8.2969 1,0 0,0.9063 q 0.2969,-0.5313 0.7734,-0.7891 0.4766,-0.2578 1.1485,-0.2578 1.0937,0 1.7734,0.8672 0.6797,0.8672 0.6797,2.289 0,1.4219 -0.6797,2.2891 -0.6797,0.8672 -1.7734,0.8672 -0.6719,0 -1.1485,-0.2578 Q 76.2969,84.8511 76,84.3042 Z m 3.3594,-2.0938 q 0,-1.0937 -0.4532,-1.7109 -0.4531,-0.6172 -1.2343,-0.6172 -0.7813,0 -1.2266,0.6172 Q 76,81.1167 76,82.2104 q 0,1.0938 0.4453,1.711 0.4453,0.6172 1.2266,0.6172 0.7812,0 1.2343,-0.6172 0.4532,-0.6172 0.4532,-1.711 z m 3.6562,-4.7187 0,1.7031 2.0313,0 0,0.7656 -2.0313,0 0,3.2657 q 0,0.7343 0.2032,0.9453 0.2031,0.2109 0.8124,0.2109 l 1.0157,0 0,0.8281 -1.0157,0 q -1.1406,0 -1.5781,-0.4296 -0.4375,-0.4297 -0.4375,-1.5547 l 0,-3.2657 -0.7187,0 0,-0.7656 0.7187,0 0,-1.7031 1,0 z m 3.0156,1.7031 1,0 0,6.0156 -1,0 0,-6.0156 z m 0,-2.3437 1,0 0,1.25 -1,0 0,-1.25 z m 5.3438,3.0312 q -0.7969,0 -1.2578,0.625 -0.461,0.625 -0.461,1.7031 0,1.0782 0.4532,1.6954 0.4531,0.6171 1.2656,0.6171 0.7812,0 1.2422,-0.6171 0.4609,-0.6172 0.4609,-1.6954 0,-1.0781 -0.4609,-1.7031 -0.461,-0.625 -1.2422,-0.625 z m 0,-0.8281 q 1.2812,0 2.0156,0.8359 0.7344,0.836 0.7344,2.3203 0,1.4688 -0.7344,2.3125 -0.7344,0.8438 -2.0156,0.8438 -1.2969,0 -2.0312,-0.8438 -0.7344,-0.8437 -0.7344,-2.3125 0,-1.4843 0.7344,-2.3203 0.7343,-0.8359 2.0312,-0.8359 z m 9.6562,2.5312 0,3.625 -0.9843,0 0,-3.5937 q 0,-0.8594 -0.3281,-1.2813 -0.3282,-0.4218 -1,-0.4218 -0.7969,0 -1.2579,0.5078 Q 97,80.9292 97,81.8042 l 0,3.4062 -1,0 0,-6.0156 1,0 0,0.9375 q 0.3438,-0.5469 0.8281,-0.8125 0.4844,-0.2656 1.1094,-0.2656 1.0313,0 1.5625,0.6406 0.5312,0.6406 0.5312,1.8906 z m 2,-2.3906 1,0 0,6.0156 -1,0 0,-6.0156 z m 0,-2.3437 1,0 0,1.25 -1,0 0,-1.25 z m 6.8438,2.5156 0,0.9375 q -0.4219,-0.2188 -0.875,-0.3203 -0.4531,-0.1016 -0.9375,-0.1016 -0.7344,0 -1.1016,0.2266 -0.3671,0.2265 -0.3671,0.664 0,0.3438 0.2656,0.5391 0.2656,0.1953 1.0625,0.3828 l 0.3281,0.0781 q 1.0625,0.2188 1.5,0.6329 0.4375,0.414 0.4375,1.1484 0,0.8281 -0.6563,1.3203 -0.6562,0.4922 -1.8281,0.4922 -0.4843,0 -1.0078,-0.0938 -0.5234,-0.0937 -1.1015,-0.2812 l 0,-1.0156 q 0.5468,0.2812 1.0781,0.4218 0.5312,0.1407 1.0625,0.1407 0.6875,0 1.0625,-0.2422 0.375,-0.2422 0.375,-0.6641 0,-0.4062 -0.2657,-0.625 -0.2656,-0.2187 -1.1874,-0.4062 l -0.3438,-0.0938 q -0.9219,-0.1875 -1.3281,-0.5859 -0.4063,-0.3985 -0.4063,-1.1016 0,-0.8437 0.6016,-1.3047 0.6016,-0.4609 1.7109,-0.4609 0.5469,0 1.0313,0.0781 0.4844,0.0781 0.8906,0.2344 z m 4.1406,-1.875 0,1.7031 2.0313,0 0,0.7656 -2.0313,0 0,3.2657 q 0,0.7343 0.2032,0.9453 0.2031,0.2109 0.8124,0.2109 l 1.0157,0 0,0.8281 -1.0157,0 q -1.1406,0 -1.5781,-0.4296 -0.4375,-0.4297 -0.4375,-1.5547 l 0,-3.2657 -0.7187,0 0,-0.7656 0.7187,0 0,-1.7031 1,0 z"
     clip-path="url(#clipPath1)"
     id="path77"
     inkscape:connector-curvature="0"
     style="fill:#280000;stroke:none;stroke-linecap:butt;stroke-linejoin:round;text-rendering:geometricPrecision"
     transform="translate(-41.5,-41.5)" />
  <path
     d="m 121.2969,83.8511 1.125,0 0,1.3593 -1.125,0 0,-1.3593 z m 0,-4.3282 1.125,0 0,1.3594 -1.125,0 0,-1.3594 z m 11.5781,1.9219 q 0.3594,0.125 0.6875,0.5078 0.3281,0.3828 0.6563,1.0703 l 1.1093,2.1875 -1.1719,0 -1.0156,-2.0625 q -0.4062,-0.7968 -0.7812,-1.0625 -0.375,-0.2656 -1.0156,-0.2656 l -1.1719,0 0,3.3906 -1.0938,0 0,-8.0156 2.4531,0 q 1.375,0 2.0469,0.5703 0.6719,0.5703 0.6719,1.7422 0,0.75 -0.3516,1.25 -0.3515,0.5 -1.0234,0.6875 z m -2.7031,-3.3594 0,2.8438 1.3593,0 q 0.7813,0 1.1797,-0.3594 0.3985,-0.3594 0.3985,-1.0625 0,-0.7031 -0.3985,-1.0625 -0.3984,-0.3594 -1.1797,-0.3594 l -1.3593,0 z m 11.0156,3.875 0,0.4844 -4.5469,0 q 0.0625,1.0156 0.6094,1.5469 0.5469,0.5312 1.5312,0.5312 0.5782,0 1.1094,-0.1406 0.5313,-0.1406 1.0625,-0.4062 l 0,0.9218 q -0.5312,0.2344 -1.0937,0.3516 -0.5625,0.1172 -1.125,0.1172 -1.4532,0 -2.2891,-0.8359 -0.8359,-0.836 -0.8359,-2.2735 0,-1.4687 0.7968,-2.3359 0.7969,-0.8672 2.1563,-0.8672 1.2031,0 1.9141,0.7812 0.7109,0.7813 0.7109,2.125 z m -1,-0.2968 q 0,-0.8125 -0.4453,-1.2969 -0.4453,-0.4844 -1.1797,-0.4844 -0.8281,0 -1.3203,0.4688 -0.4922,0.4687 -0.5703,1.3125 l 3.5156,0 z m 7.1719,-2.2344 0,0.9219 q -0.4063,-0.2344 -0.8282,-0.3516 -0.4218,-0.1172 -0.8593,-0.1172 -0.9531,0 -1.4844,0.6094 -0.5313,0.6094 -0.5313,1.7187 0,1.0938 0.5313,1.7032 0.5313,0.6093 1.4844,0.6093 0.4375,0 0.8593,-0.1093 0.4219,-0.1094 0.8282,-0.3438 l 0,0.9063 q -0.4063,0.2031 -0.8516,0.2968 -0.4453,0.0938 -0.9453,0.0938 -1.3594,0 -2.1563,-0.8516 -0.7968,-0.8515 -0.7968,-2.3047 0,-1.4687 0.8047,-2.3125 0.8047,-0.8437 2.2109,-0.8437 0.4688,0 0.8984,0.0937 0.4297,0.0938 0.836,0.2813 z m 6.8281,2.5312 0,0.4844 -4.5469,0 q 0.0625,1.0156 0.6094,1.5469 0.5469,0.5312 1.5312,0.5312 0.5782,0 1.1094,-0.1406 0.5313,-0.1406 1.0625,-0.4062 l 0,0.9218 q -0.5312,0.2344 -1.0937,0.3516 -0.5625,0.1172 -1.125,0.1172 -1.4532,0 -2.2891,-0.8359 -0.8359,-0.836 -0.8359,-2.2735 0,-1.4687 0.7968,-2.3359 0.7969,-0.8672 2.1563,-0.8672 1.2031,0 1.9141,0.7812 0.7109,0.7813 0.7109,2.125 z m -1,-0.2968 q 0,-0.8125 -0.4453,-1.2969 -0.4453,-0.4844 -1.1797,-0.4844 -0.8281,0 -1.3203,0.4688 -0.4922,0.4687 -0.5703,1.3125 l 3.5156,0 z m 3.8125,2.6406 0,3.1875 -1,0 0,-8.2969 1,0 0,0.9063 q 0.2969,-0.5313 0.7734,-0.7891 0.4766,-0.2578 1.1485,-0.2578 1.0937,0 1.7734,0.8672 0.6797,0.8672 0.6797,2.289 0,1.4219 -0.6797,2.2891 -0.6797,0.8672 -1.7734,0.8672 -0.6719,0 -1.1485,-0.2578 Q 157.2969,84.8511 157,84.3042 Z m 3.3594,-2.0938 q 0,-1.0937 -0.4532,-1.7109 -0.4531,-0.6172 -1.2343,-0.6172 -0.7813,0 -1.2266,0.6172 Q 157,81.1167 157,82.2104 q 0,1.0938 0.4453,1.711 0.4453,0.6172 1.2266,0.6172 0.7812,0 1.2343,-0.6172 0.4532,-0.6172 0.4532,-1.711 z m 3.6562,-4.7187 0,1.7031 2.0313,0 0,0.7656 -2.0313,0 0,3.2657 q 0,0.7343 0.2032,0.9453 0.2031,0.2109 0.8124,0.2109 l 1.0157,0 0,0.8281 -1.0157,0 q -1.1406,0 -1.5781,-0.4296 -0.4375,-0.4297 -0.4375,-1.5547 l 0,-3.2657 -0.7187,0 0,-0.7656 0.7187,0 0,-1.7031 1,0 z m 3.0156,1.7031 1,0 0,6.0156 -1,0 0,-6.0156 z m 0,-2.3437 1,0 0,1.25 -1,0 0,-1.25 z m 5.3438,3.0312 q -0.7969,0 -1.2578,0.625 -0.461,0.625 -0.461,1.7031 0,1.0782 0.4532,1.6954 0.4531,0.6171 1.2656,0.6171 0.7812,0 1.2422,-0.6171 0.4609,-0.6172 0.4609,-1.6954 0,-1.0781 -0.4609,-1.7031 -0.461,-0.625 -1.2422,-0.625 z m 0,-0.8281 q 1.2812,0 2.0156,0.8359 0.7344,0.836 0.7344,2.3203 0,1.4688 -0.7344,2.3125 -0.7344,0.8438 -2.0156,0.8438 -1.2969,0 -2.0312,-0.8438 -0.7344,-0.8437 -0.7344,-2.3125 0,-1.4843 0.7344,-2.3203 0.7343,-0.8359 2.0312,-0.8359 z m 9.6562,2.5312 0,3.625 -0.9843,0 0,-3.5937 q 0,-0.8594 -0.3281,-1.2813 -0.3282,-0.4218 -1,-0.4218 -0.7969,0 -1.2579,0.5078 Q 178,80.9292 178,81.8042 l 0,3.4062 -1,0 0,-6.0156 1,0 0,0.9375 q 0.3438,-0.5469 0.8281,-0.8125 0.4844,-0.2656 1.1094,-0.2656 1.0313,0 1.5625,0.6406 0.5312,0.6406 0.5312,1.8906 z m 2,-2.3906 1,0 0,6.0156 -1,0 0,-6.0156 z m 0,-2.3437 1,0 0,1.25 -1,0 0,-1.25 z m 6.8438,2.5156 0,0.9375 q -0.4219,-0.2188 -0.875,-0.3203 -0.4531,-0.1016 -0.9375,-0.1016 -0.7344,0 -1.1016,0.2266 -0.3671,0.2265 -0.3671,0.664 0,0.3438 0.2656,0.5391 0.2656,0.1953 1.0625,0.3828 l 0.3281,0.0781 q 1.0625,0.2188 1.5,0.6329 0.4375,0.414 0.4375,1.1484 0,0.8281 -0.6563,1.3203 -0.6562,0.4922 -1.8281,0.4922 -0.4843,0 -1.0078,-0.0938 -0.5234,-0.0937 -1.1015,-0.2812 l 0,-1.0156 q 0.5468,0.2812 1.0781,0.4218 0.5312,0.1407 1.0625,0.1407 0.6875,0 1.0625,-0.2422 0.375,-0.2422 0.375,-0.6641 0,-0.4062 -0.2657,-0.625 -0.2656,-0.2187 -1.1874,-0.4062 l -0.3438,-0.0938 q -0.9219,-0.1875 -1.3281,-0.5859 -0.4063,-0.3985 -0.4063,-1.1016 0,-0.8437 0.6016,-1.3047 0.6016,-0.4609 1.7109,-0.4609 0.5469,0 1.0313,0.0781 0.4844,0.0781 0.8906,0.2344 z m 4.1406,-1.875 0,1.7031 2.0313,0 0,0.7656 -2.0313,0 0,3.2657 q 0,0.7343 0.2032,0.9453 0.2031,0.2109 0.8124,0.2109 l 1.0157,0 0,0.8281 -1.0157,0 q -1.1406,0 -1.5781,-0.4296 -0.4375,-0.4297 -0.4375,-1.5547 l 0,-3.2657 -0.7187,0 0,-0.7656 0.7187,0 0,-1.7031 1,0 z"
     clip-path="url(#clipPath1)"
     id="path79"
     inkscape:connector-curvature="0"
     style="fill:#404040;stroke:none;stroke-linecap:butt;stroke-linejoin:round;text-rendering:geometricPrecision"
     transform="translate(-41.5,-41.5)" />
  <line
     clip-path="url(#clipPath1)"
     x1="42"
     x2="201"
     y1="93"
     y2="93"
     id="line81"
     style="fill:none;stroke:#99795c;stroke-linecap:butt;stroke-linejoin:round;text-rendering:geometricPrecision"
     transform="translate(-41.5,-41.5)" />
  <path
     d="m 50.0625,99.3198 0,2.9844 2.9844,0 0,0.9219 -2.9844,0 0,2.9843 -0.9063,0 0,-2.9843 -2.9843,0 0,-0.9219 2.9843,0 0,-2.9844 0.9063,0 z"
     clip-path="url(#clipPath1)"
     id="path83"
     inkscape:connector-curvature="0"
     style="fill:#000000;stroke:none;stroke-linecap:butt;stroke-linejoin:round;text-rendering:geometricPrecision"
     transform="translate(-41.5,-41.5)" />
  <path
     d="m 59.3594,100.4292 0,0.9219 q -0.4063,-0.2344 -0.8282,-0.3516 -0.4218,-0.1172 -0.8593,-0.1172 -0.9531,0 -1.4844,0.6094 -0.5313,0.6094 -0.5313,1.7187 0,1.0938 0.5313,1.7032 0.5313,0.6093 1.4844,0.6093 0.4375,0 0.8593,-0.1093 0.4219,-0.1094 0.8282,-0.3438 l 0,0.9063 q -0.4063,0.2031 -0.8516,0.2968 -0.4453,0.0938 -0.9453,0.0938 -1.3594,0 -2.1563,-0.8516 -0.7968,-0.8515 -0.7968,-2.3047 0,-1.4687 0.8047,-2.3125 0.8047,-0.8437 2.2109,-0.8437 0.4688,0 0.8984,0.0937 0.4297,0.0938 0.836,0.2813 z m 4.4062,2.75 q -1.1875,0 -1.6484,0.2812 -0.461,0.2813 -0.461,0.9375 0,0.5157 0.3438,0.8282 0.3438,0.3125 0.9375,0.3125 0.8281,0 1.3203,-0.586 0.4922,-0.5859 0.4922,-1.539 l 0,-0.2344 -0.9844,0 z m 1.9688,-0.4063 0,3.4375 -0.9844,0 0,-0.9062 q -0.3281,0.5469 -0.8359,0.8047 -0.5079,0.2578 -1.2422,0.2578 -0.9219,0 -1.4688,-0.5156 -0.5469,-0.5157 -0.5469,-1.3907 0,-1.0156 0.6797,-1.5312 0.6797,-0.5156 2.0391,-0.5156 l 1.375,0 0,-0.0938 q 0,-0.6875 -0.4453,-1.0625 -0.4453,-0.375 -1.2578,-0.375 -0.5157,0 -1.0078,0.125 -0.4922,0.125 -0.9453,0.375 l 0,-0.9062 q 0.5468,-0.2188 1.0624,-0.3203 0.5157,-0.1016 0.9844,-0.1016 1.3125,0 1.9532,0.6719 0.6406,0.6718 0.6406,2.0468 z m 2.2968,-4.9218 1,0 0,8.3593 -1,0 0,-8.3593 z m 3,0 1,0 0,8.3593 -1,0 0,-8.3593 z m 8.1563,5.1093 0,0.4844 -4.5469,0 q 0.0625,1.0156 0.6094,1.5469 0.5469,0.5312 1.5312,0.5312 0.5782,0 1.1094,-0.1406 0.5313,-0.1406 1.0625,-0.4062 l 0,0.9218 q -0.5312,0.2344 -1.0937,0.3516 -0.5625,0.1172 -1.125,0.1172 -1.4532,0 -2.2891,-0.8359 -0.8359,-0.836 -0.8359,-2.2735 0,-1.4687 0.7968,-2.3359 0.7969,-0.8672 2.1563,-0.8672 1.2031,0 1.9141,0.7812 0.7109,0.7813 0.7109,2.125 z m -1,-0.2968 q 0,-0.8125 -0.4453,-1.2969 -0.4453,-0.4844 -1.1797,-0.4844 -0.8281,0 -1.3203,0.4688 -0.4922,0.4687 -0.5703,1.3125 l 3.5156,0 z m 6.3281,-1.5469 q -0.1562,-0.0938 -0.3515,-0.1406 -0.1953,-0.0469 -0.4297,-0.0469 -0.8438,0 -1.2891,0.5469 Q 82,102.0229 82,103.0386 l 0,3.1718 -1,0 0,-6.0156 1,0 0,0.9375 q 0.2969,-0.5469 0.7969,-0.8125 0.5,-0.2656 1.2187,-0.2656 0.1094,0 0.2266,0.008 0.1172,0.008 0.2734,0.0391 l 0,1.0156 z m 6.0938,6.9219 0,0.7656 -5.7188,0 0,-0.7656 5.7188,0 z M 96,101.1011 l 0,-3.25 0.9844,0 0,8.3593 -0.9844,0 0,-0.9062 q -0.3125,0.5469 -0.7891,0.8047 -0.4765,0.2578 -1.1484,0.2578 -1.0781,0 -1.7656,-0.8672 -0.6875,-0.8672 -0.6875,-2.2891 0,-1.4218 0.6875,-2.289 0.6875,-0.8672 1.7656,-0.8672 0.6719,0 1.1484,0.2578 0.4766,0.2578 0.7891,0.7891 z m -3.375,2.1093 q 0,1.0938 0.4531,1.711 0.4531,0.6172 1.2344,0.6172 0.7813,0 1.2344,-0.6172 Q 96,104.3042 96,103.2104 q 0,-1.0937 -0.4531,-1.7109 -0.4531,-0.6172 -1.2344,-0.6172 -0.7813,0 -1.2344,0.6172 -0.4531,0.6172 -0.4531,1.7109 z m 6.4062,-3.0156 1,0 0,6.0156 -1,0 0,-6.0156 z m 0,-2.3437 1,0 0,1.25 -1,0 0,-1.25 z m 5.7344,5.3281 q -1.1875,0 -1.6484,0.2812 -0.461,0.2813 -0.461,0.9375 0,0.5157 0.3438,0.8282 0.3438,0.3125 0.9375,0.3125 0.8281,0 1.3203,-0.586 0.4922,-0.5859 0.4922,-1.539 l 0,-0.2344 -0.9844,0 z m 1.9688,-0.4063 0,3.4375 -0.9844,0 0,-0.9062 q -0.3281,0.5469 -0.8359,0.8047 -0.5079,0.2578 -1.2422,0.2578 -0.9219,0 -1.4688,-0.5156 -0.5469,-0.5157 -0.5469,-1.3907 0,-1.0156 0.6797,-1.5312 0.6797,-0.5156 2.0391,-0.5156 l 1.375,0 0,-0.0938 q 0,-0.6875 -0.4453,-1.0625 -0.4453,-0.375 -1.2578,-0.375 -0.5157,0 -1.0078,0.125 -0.4922,0.125 -0.9453,0.375 l 0,-0.9062 q 0.5468,-0.2188 1.0624,-0.3203 0.5157,-0.1016 0.9844,-0.1016 1.3125,0 1.9532,0.6719 0.6406,0.6718 0.6406,2.0468 z m 2.2968,-4.9218 1,0 0,8.3593 -1,0 0,-8.3593 z m 6.8438,2.5156 0,0.9375 q -0.4219,-0.2188 -0.875,-0.3203 -0.4531,-0.1016 -0.9375,-0.1016 -0.7344,0 -1.1016,0.2266 -0.3671,0.2265 -0.3671,0.664 0,0.3438 0.2656,0.5391 0.2656,0.1953 1.0625,0.3828 l 0.3281,0.0781 q 1.0625,0.2188 1.5,0.6329 0.4375,0.414 0.4375,1.1484 0,0.8281 -0.6563,1.3203 -0.6562,0.4922 -1.8281,0.4922 -0.4843,0 -1.0078,-0.0938 -0.5234,-0.0937 -1.1015,-0.2812 l 0,-1.0156 q 0.5468,0.2812 1.0781,0.4218 0.5312,0.1407 1.0625,0.1407 0.6875,0 1.0625,-0.2422 0.375,-0.2422 0.375,-0.6641 0,-0.4062 -0.2657,-0.625 -0.2656,-0.2187 -1.1874,-0.4062 l -0.3438,-0.0938 q -0.9219,-0.1875 -1.3281,-0.5859 -0.4063,-0.3985 -0.4063,-1.1016 0,-0.8437 0.6016,-1.3047 0.6016,-0.4609 1.7109,-0.4609 0.5469,0 1.0313,0.0781 0.4844,0.0781 0.8906,0.2344 z m 7.7344,7.6719 0,0.7656 -5.7188,0 0,-0.7656 5.7188,0 z m 4.9062,-6.9219 q -0.1562,-0.0938 -0.3515,-0.1406 -0.1953,-0.0469 -0.4297,-0.0469 -0.8438,0 -1.2891,0.5469 Q 126,102.0229 126,103.0386 l 0,3.1718 -1,0 0,-6.0156 1,0 0,0.9375 q 0.2969,-0.5469 0.7969,-0.8125 0.5,-0.2656 1.2187,-0.2656 0.1094,0 0.2266,0.008 0.1172,0.008 0.2734,0.0391 l 0,1.0156 z m 6.6719,1.8437 0,0.4844 -4.5469,0 q 0.0625,1.0156 0.6094,1.5469 0.5469,0.5312 1.5312,0.5312 0.5782,0 1.1094,-0.1406 0.5313,-0.1406 1.0625,-0.4062 l 0,0.9218 q -0.5312,0.2344 -1.0937,0.3516 -0.5625,0.1172 -1.125,0.1172 -1.4532,0 -2.2891,-0.8359 -0.8359,-0.836 -0.8359,-2.2735 0,-1.4687 0.7968,-2.3359 0.7969,-0.8672 2.1563,-0.8672 1.2031,0 1.9141,0.7812 0.7109,0.7813 0.7109,2.125 z m -1,-0.2968 q 0,-0.8125 -0.4453,-1.2969 -0.4453,-0.4844 -1.1797,-0.4844 -0.8281,0 -1.3203,0.4688 -0.4922,0.4687 -0.5703,1.3125 l 3.5156,0 z m 7.1719,-2.2344 0,0.9219 q -0.4063,-0.2344 -0.8282,-0.3516 -0.4218,-0.1172 -0.8593,-0.1172 -0.9531,0 -1.4844,0.6094 -0.5313,0.6094 -0.5313,1.7187 0,1.0938 0.5313,1.7032 0.5313,0.6093 1.4844,0.6093 0.4375,0 0.8593,-0.1093 0.4219,-0.1094 0.8282,-0.3438 l 0,0.9063 q -0.4063,0.2031 -0.8516,0.2968 -0.4453,0.0938 -0.9453,0.0938 -1.3594,0 -2.1563,-0.8516 -0.7968,-0.8515 -0.7968,-2.3047 0,-1.4687 0.8047,-2.3125 0.8047,-0.8437 2.2109,-0.8437 0.4688,0 0.8984,0.0937 0.4297,0.0938 0.836,0.2813 z m 6.8281,2.5312 0,0.4844 -4.5469,0 q 0.0625,1.0156 0.6094,1.5469 0.5469,0.5312 1.5312,0.5312 0.5782,0 1.1094,-0.1406 0.5313,-0.1406 1.0625,-0.4062 l 0,0.9218 q -0.5312,0.2344 -1.0937,0.3516 -0.5625,0.1172 -1.125,0.1172 -1.4532,0 -2.2891,-0.8359 -0.8359,-0.836 -0.8359,-2.2735 0,-1.4687 0.7968,-2.3359 0.7969,-0.8672 2.1563,-0.8672 1.2031,0 1.9141,0.7812 0.7109,0.7813 0.7109,2.125 z m -1,-0.2968 q 0,-0.8125 -0.4453,-1.2969 -0.4453,-0.4844 -1.1797,-0.4844 -0.8281,0 -1.3203,0.4688 -0.4922,0.4687 -0.5703,1.3125 l 3.5156,0 z m 3.8125,2.6406 0,3.1875 -1,0 0,-8.2969 1,0 0,0.9063 q 0.2969,-0.5313 0.7734,-0.7891 0.4766,-0.2578 1.1485,-0.2578 1.0937,0 1.7734,0.8672 0.6797,0.8672 0.6797,2.289 0,1.4219 -0.6797,2.2891 -0.6797,0.8672 -1.7734,0.8672 -0.6719,0 -1.1485,-0.2578 -0.4765,-0.2578 -0.7734,-0.8047 z m 3.3594,-2.0938 q 0,-1.0937 -0.4532,-1.7109 -0.4531,-0.6172 -1.2343,-0.6172 -0.7813,0 -1.2266,0.6172 -0.4453,0.6172 -0.4453,1.7109 0,1.0938 0.4453,1.711 0.4453,0.6172 1.2266,0.6172 0.7812,0 1.2343,-0.6172 0.4532,-0.6172 0.4532,-1.711 z m 3.6562,-4.7187 0,1.7031 2.0313,0 0,0.7656 -2.0313,0 0,3.2657 q 0,0.7343 0.2032,0.9453 0.2031,0.2109 0.8124,0.2109 l 1.0157,0 0,0.8281 -1.0157,0 q -1.1406,0 -1.5781,-0.4296 -0.4375,-0.4297 -0.4375,-1.5547 l 0,-3.2657 -0.7187,0 0,-0.7656 0.7187,0 0,-1.7031 1,0 z m 3.0156,1.7031 1,0 0,6.0156 -1,0 0,-6.0156 z m 0,-2.3437 1,0 0,1.25 -1,0 0,-1.25 z m 5.3438,3.0312 q -0.7969,0 -1.2578,0.625 -0.461,0.625 -0.461,1.7031 0,1.0782 0.4532,1.6954 0.4531,0.6171 1.2656,0.6171 0.7812,0 1.2422,-0.6171 0.4609,-0.6172 0.4609,-1.6954 0,-1.0781 -0.4609,-1.7031 -0.461,-0.625 -1.2422,-0.625 z m 0,-0.8281 q 1.2812,0 2.0156,0.8359 0.7344,0.836 0.7344,2.3203 0,1.4688 -0.7344,2.3125 -0.7344,0.8438 -2.0156,0.8438 -1.2969,0 -2.0312,-0.8438 -0.7344,-0.8437 -0.7344,-2.3125 0,-1.4843 0.7344,-2.3203 0.7343,-0.8359 2.0312,-0.8359 z m 9.6562,2.5312 0,3.625 -0.9843,0 0,-3.5937 q 0,-0.8594 -0.3281,-1.2813 -0.3282,-0.4218 -1,-0.4218 -0.7969,0 -1.2579,0.5078 Q 172,101.9292 172,102.8042 l 0,3.4062 -1,0 0,-6.0156 1,0 0,0.9375 q 0.3438,-0.5469 0.8281,-0.8125 0.4844,-0.2656 1.1094,-0.2656 1.0313,0 1.5625,0.6406 0.5312,0.6406 0.5312,1.8906 z m 4.375,-4.7187 q -0.7187,1.2344 -1.0624,2.4453 -0.3438,1.2109 -0.3438,2.4453 0,1.2344 0.3516,2.4531 0.3515,1.2188 1.0546,2.4532 l -0.8593,0 q -0.7969,-1.2657 -1.1953,-2.4844 -0.3985,-1.2188 -0.3985,-2.4219 0,-1.2031 0.3907,-2.414 0.3906,-1.211 1.2031,-2.4766 l 0.8593,0 z m 1.4688,0 0.8594,0 q 0.8125,1.2656 1.2109,2.4766 0.3985,1.2109 0.3985,2.414 0,1.2031 -0.3985,2.4219 -0.3984,1.2187 -1.2109,2.4844 l -0.8594,0 q 0.7188,-1.2344 1.0703,-2.4532 0.3516,-1.2187 0.3516,-2.4531 0,-1.2344 -0.3516,-2.4453 -0.3515,-1.2109 -1.0703,-2.4453 z"
     clip-path="url(#clipPath1)"
     id="path85"
     inkscape:connector-curvature="0"
     style="fill:#000028;stroke:none;stroke-linecap:butt;stroke-linejoin:round;text-rendering:geometricPrecision"
     transform="translate(-41.5,-41.5)" />
  <path
     d="m 50.0625,111.3198 0,2.9844 2.9844,0 0,0.9219 -2.9844,0 0,2.9843 -0.9063,0 0,-2.9843 -2.9843,0 0,-0.9219 2.9843,0 0,-2.9844 0.9063,0 z"
     clip-path="url(#clipPath1)"
     id="path87"
     inkscape:connector-curvature="0"
     style="fill:#000000;stroke:none;stroke-linecap:butt;stroke-linejoin:round;text-rendering:geometricPrecision"
     transform="translate(-41.5,-41.5)" />
  <path
     d="m 58.9062,113.1011 q -0.1562,-0.0782 -0.3515,-0.1172 -0.1953,-0.0391 -0.4141,-0.0391 -0.7812,0 -1.375,0.5938 -0.5937,0.5937 -0.7812,1.6093 l -0.6094,3.0625 -0.9844,0 1.1719,-6.0156 0.9844,0 -0.1875,0.9375 q 0.3906,-0.5312 0.9375,-0.8047 0.5469,-0.2734 1.1719,-0.2734 0.1562,0 0.3124,0.0156 0.1563,0.0156 0.3126,0.0625 l -0.1876,0.9688 z m 0.8282,2.7187 0.7031,-3.625 1,0 -0.7031,3.5938 q -0.0625,0.2656 -0.086,0.4531 -0.0234,0.1875 -0.0234,0.3125 0,0.4531 0.2812,0.7031 0.2813,0.25 0.7969,0.25 0.7813,0 1.3672,-0.539 0.5859,-0.5391 0.7578,-1.4454 l 0.6563,-3.3281 1,0 -1.1719,6.0156 -0.9844,0 0.1875,-0.9531 q -0.4062,0.5313 -0.9844,0.8203 -0.5781,0.2891 -1.2343,0.2891 -0.7813,0 -1.2266,-0.4297 -0.4453,-0.4297 -0.4453,-1.2109 0,-0.1563 0.0312,-0.3985 0.0313,-0.2422 0.0782,-0.5078 z m 12.3906,-1.2344 -0.7031,3.625 -0.9844,0 0.7031,-3.5937 q 0.0469,-0.25 0.0703,-0.4453 0.0235,-0.1953 0.0235,-0.3047 0,-0.4531 -0.2813,-0.7031 -0.2812,-0.25 -0.7969,-0.25 -0.7968,0 -1.3671,0.5234 -0.5703,0.5234 -0.7579,1.4453 l -0.6562,3.3281 -0.9844,0 1.1563,-6.0156 1,0 -0.2031,0.9375 q 0.4062,-0.5156 0.9921,-0.7969 0.586,-0.2812 1.2266,-0.2812 0.7813,0 1.2187,0.4297 0.4376,0.4297 0.4376,1.2109 0,0.1875 -0.0235,0.4063 -0.0234,0.2187 -0.0703,0.4843 z m 5.5625,-4.7187 q -1.4219,1.7812 -2.1172,3.375 -0.6953,1.5937 -0.6953,3.0781 0,0.8438 0.2031,1.6797 0.2031,0.8359 0.6094,1.6641 l -0.8594,0 q -0.5,-0.9219 -0.7422,-1.7969 -0.2421,-0.875 -0.2421,-1.7188 0,-1.5937 0.7421,-3.1562 0.7422,-1.5625 2.2266,-3.125 l 0.875,0 z m -1.375,9.7969 q 1.4375,-1.7813 2.1328,-3.3828 0.6953,-1.6016 0.6953,-3.0704 0,-0.8593 -0.2031,-1.6953 -0.2031,-0.8359 -0.6094,-1.6484 l 0.8594,0 q 0.5,0.9219 0.7422,1.7891 0.2422,0.8671 0.2422,1.7109 0,1.5937 -0.7422,3.1719 -0.7422,1.5781 -2.2266,3.125 l -0.8906,0 z"
     clip-path="url(#clipPath1)"
     id="path89"
     inkscape:connector-curvature="0"
     style="fill:#000028;stroke:none;stroke-linecap:butt;stroke-linejoin:round;text-rendering:geometricPrecision"
     transform="translate(-41.5,-41.5)" />
  <path
     d="m 50.0625,123.3198 0,2.9844 2.9844,0 0,0.9219 -2.9844,0 0,2.9843 -0.9063,0 0,-2.9843 -2.9843,0 0,-0.9219 2.9843,0 0,-2.9844 0.9063,0 z"
     clip-path="url(#clipPath1)"
     id="path91"
     inkscape:connector-curvature="0"
     style="fill:#000000;stroke:none;stroke-linecap:butt;stroke-linejoin:round;text-rendering:geometricPrecision"
     transform="translate(-41.5,-41.5)" />
  <path
     d="m 59.4531,126.5073 q 0,-0.7969 -0.3437,-1.2109 -0.3438,-0.4141 -0.9844,-0.4141 -0.4375,0 -0.8359,0.2266 -0.3985,0.2265 -0.711,0.6484 -0.3125,0.4219 -0.4922,1.0235 -0.1797,0.6015 -0.1797,1.1953 0,0.75 0.3438,1.1562 0.3438,0.4063 0.9688,0.4063 0.4687,0 0.8671,-0.2188 0.3985,-0.2187 0.6953,-0.6406 0.2969,-0.4375 0.4844,-1.0313 0.1875,-0.5937 0.1875,-1.1406 z m -3.0625,-1.4062 q 0.4063,-0.5157 0.9453,-0.7813 0.5391,-0.2656 1.1953,-0.2656 0.9219,0 1.4376,0.6016 0.5156,0.6015 0.5156,1.6953 0,0.8906 -0.3203,1.6953 -0.3203,0.8047 -0.9141,1.4453 -0.4062,0.4219 -0.9062,0.6484 -0.5,0.2266 -1.0469,0.2266 -0.6407,0 -1.0781,-0.2656 -0.4376,-0.2657 -0.6407,-0.7969 l -0.625,3.1875 -0.9843,0 1.6093,-8.2969 1,0 -0.1875,0.9063 z m 9.5156,0 q -0.1562,-0.0782 -0.3515,-0.1172 -0.1953,-0.0391 -0.4141,-0.0391 -0.7812,0 -1.375,0.5938 -0.5937,0.5937 -0.7812,1.6093 l -0.6094,3.0625 -0.9844,0 1.1719,-6.0156 0.9844,0 -0.1875,0.9375 q 0.3906,-0.5312 0.9375,-0.8047 0.5469,-0.2734 1.1719,-0.2734 0.1562,0 0.3124,0.0156 0.1563,0.0156 0.3126,0.0625 l -0.1876,0.9688 z m 5.3907,1.5625 q 0.0156,-0.0782 0.0234,-0.1719 0.0078,-0.0938 0.0078,-0.1875 0,-0.6563 -0.3828,-1.0391 -0.3828,-0.3828 -1.0547,-0.3828 -0.7344,0 -1.2968,0.4688 -0.5626,0.4687 -0.8594,1.3125 l 3.5625,0 z m 0.8593,0.7812 -4.6093,0 q -0.0313,0.2031 -0.0391,0.3203 -0.0078,0.1172 -0.0078,0.1953 0,0.75 0.4609,1.1563 0.461,0.4062 1.2891,0.4062 0.6562,0 1.2266,-0.1406 0.5703,-0.1406 1.0703,-0.4219 l -0.1875,0.9688 q -0.5313,0.2187 -1.1016,0.3281 -0.5703,0.1094 -1.1484,0.1094 -1.25,0 -1.9297,-0.6016 -0.6797,-0.6015 -0.6797,-1.6953 0,-0.9375 0.3359,-1.75 0.336,-0.8125 0.9922,-1.4375 0.4219,-0.4062 1,-0.6172 0.5781,-0.2109 1.2188,-0.2109 1.0312,0 1.6328,0.6094 0.6015,0.6093 0.6015,1.6406 0,0.25 -0.0312,0.5312 -0.0312,0.2813 -0.0938,0.6094 z m 6.7344,-3.0156 -0.1875,0.9687 q -0.3593,-0.25 -0.7578,-0.3828 -0.3984,-0.1328 -0.8359,-0.1328 -0.4688,0 -0.8985,0.1719 -0.4297,0.1719 -0.7109,0.4687 -0.4688,0.4688 -0.7188,1.1016 -0.25,0.6328 -0.25,1.3047 0,0.7969 0.4063,1.1953 0.4063,0.3984 1.2344,0.3984 0.4062,0 0.8672,-0.1171 Q 77.5,129.2886 78,129.0386 l -0.1875,0.9687 q -0.4375,0.1875 -0.8906,0.2735 -0.4531,0.0859 -0.9375,0.0859 -1.1875,0 -1.836,-0.6016 -0.6484,-0.6015 -0.6484,-1.7109 0,-0.9375 0.3359,-1.7188 0.336,-0.7812 1.0079,-1.4218 0.4374,-0.4219 1.0468,-0.6407 0.6094,-0.2187 1.3282,-0.2187 0.4218,0 0.8359,0.0937 0.4141,0.0938 0.8359,0.2813 z m 2.9063,5.9375 q -1.0625,0 -1.6797,-0.6563 -0.6172,-0.6562 -0.6172,-1.7812 0,-0.6563 0.2109,-1.3359 0.211,-0.6797 0.5547,-1.1329 0.5313,-0.7187 1.1875,-1.0625 0.6563,-0.3437 1.4844,-0.3437 1.0313,0 1.6563,0.6406 0.625,0.6406 0.625,1.6719 0,0.7031 -0.2032,1.4141 -0.2031,0.7109 -0.5468,1.1796 -0.5313,0.7188 -1.1876,1.0625 -0.6562,0.3438 -1.4843,0.3438 z m -1.2657,-2.4688 q 0,0.8125 0.3438,1.2188 0.3438,0.4062 1.0312,0.4062 1,0 1.6485,-0.8671 0.6484,-0.8672 0.6484,-2.1954 0,-0.7812 -0.3515,-1.1796 -0.3516,-0.3985 -1.0235,-0.3985 -0.5625,0 -0.9922,0.2656 -0.4297,0.2657 -0.7734,0.7969 -0.25,0.3906 -0.3906,0.8985 -0.1407,0.5078 -0.1407,1.0546 z m 11.5938,-1.3125 -0.7031,3.625 -0.9844,0 0.7031,-3.5937 q 0.0469,-0.25 0.0703,-0.4453 0.0235,-0.1953 0.0235,-0.3047 0,-0.4531 -0.2813,-0.7031 -0.2812,-0.25 -0.7969,-0.25 -0.7968,0 -1.3671,0.5234 -0.5703,0.5234 -0.7579,1.4453 l -0.6562,3.3281 -0.9844,0 1.1563,-6.0156 1,0 -0.2031,0.9375 q 0.4062,-0.5156 0.9921,-0.7969 0.586,-0.2812 1.2266,-0.2812 0.7813,0 1.2187,0.4297 0.4376,0.4297 0.4376,1.2109 0,0.1875 -0.0235,0.4063 -0.0234,0.2187 -0.0703,0.4843 z m 5.4688,2.7188 q -0.3907,0.5312 -0.9376,0.7969 -0.5468,0.2656 -1.2031,0.2656 -0.9062,0 -1.4297,-0.6172 -0.5234,-0.6172 -0.5234,-1.6797 0,-0.8906 0.3203,-1.7031 0.3203,-0.8125 0.9141,-1.4531 0.4062,-0.4219 0.9062,-0.6407 0.5,-0.2187 1.0469,-0.2187 0.5781,0 1.0234,0.2734 0.4453,0.2735 0.6797,0.8047 l 0.6406,-3.2812 1,0 -1.625,8.3593 -1,0 0.1876,-0.9062 z m -3.0626,-1.4219 q 0,0.7813 0.3516,1.2188 0.3516,0.4375 0.9766,0.4375 0.4531,0 0.8515,-0.2266 0.3985,-0.2266 0.6953,-0.6484 0.3282,-0.4532 0.5079,-1.0469 0.1797,-0.5938 0.1797,-1.1719 0,-0.7344 -0.3516,-1.1562 -0.3516,-0.4219 -0.9766,-0.4219 -0.4687,0 -0.8672,0.2187 -0.3984,0.2188 -0.6796,0.6407 -0.3126,0.4375 -0.5,1.0312 -0.1876,0.5938 -0.1876,1.125 z m 7.4844,-6.0312 0.9844,0 -0.2344,1.25 -1,0 0.25,-1.25 z m -0.4531,2.3437 0.9844,0 -1.1719,6.0156 -0.9844,0 1.1719,-6.0156 z m 6.0937,0 -0.1562,0.7656 -1.9688,0 -0.6406,3.2657 q -0.0312,0.1875 -0.0468,0.3125 -0.0157,0.125 -0.0157,0.1875 0,0.3437 0.2031,0.5 0.2032,0.1562 0.6719,0.1562 l 1,0 -0.1719,0.8281 -0.9531,0 q -0.875,0 -1.3047,-0.3437 -0.4296,-0.3438 -0.4296,-1.0469 0,-0.125 0.0156,-0.2734 0.0156,-0.1485 0.0468,-0.3203 l 0.6407,-3.2657 -0.8438,0 0.1563,-0.7656 0.8281,0 0.3281,-1.7031 0.9844,0 -0.3281,1.7031 1.9843,0 z m 1.3594,-2.3437 0.9844,0 -0.2344,1.25 -1,0 0.25,-1.25 z m -0.4531,2.3437 0.9844,0 -1.1719,6.0156 -0.9844,0 1.1719,-6.0156 z m 4.2344,6.1719 q -1.0625,0 -1.6797,-0.6563 -0.6172,-0.6562 -0.6172,-1.7812 0,-0.6563 0.2109,-1.3359 0.211,-0.6797 0.5547,-1.1329 0.5313,-0.7187 1.1875,-1.0625 0.6563,-0.3437 1.4844,-0.3437 1.0313,0 1.6563,0.6406 0.625,0.6406 0.625,1.6719 0,0.7031 -0.2032,1.4141 -0.2031,0.7109 -0.5468,1.1796 -0.5313,0.7188 -1.1876,1.0625 -0.6562,0.3438 -1.4843,0.3438 z m -1.2657,-2.4688 q 0,0.8125 0.3438,1.2188 0.3438,0.4062 1.0312,0.4062 1,0 1.6485,-0.8671 0.6484,-0.8672 0.6484,-2.1954 0,-0.7812 -0.3515,-1.1796 -0.3516,-0.3985 -1.0235,-0.3985 -0.5625,0 -0.9922,0.2656 -0.4297,0.2657 -0.7734,0.7969 -0.25,0.3906 -0.3906,0.8985 -0.1407,0.5078 -0.1407,1.0546 z m 11.5938,-1.3125 -0.7031,3.625 -0.9844,0 0.7031,-3.5937 q 0.0469,-0.25 0.0703,-0.4453 0.0235,-0.1953 0.0235,-0.3047 0,-0.4531 -0.2813,-0.7031 -0.2812,-0.25 -0.7969,-0.25 -0.7968,0 -1.3671,0.5234 -0.5703,0.5234 -0.7579,1.4453 l -0.6562,3.3281 -0.9844,0 1.1563,-6.0156 1,0 -0.2031,0.9375 q 0.4062,-0.5156 0.9921,-0.7969 0.586,-0.2812 1.2266,-0.2812 0.7813,0 1.2187,0.4297 0.4376,0.4297 0.4376,1.2109 0,0.1875 -0.0235,0.4063 -0.0234,0.2187 -0.0703,0.4843 z m 6.375,-2.2187 -0.1875,0.9375 q -0.3906,-0.2188 -0.8281,-0.3203 -0.4375,-0.1016 -0.8906,-0.1016 -0.7813,0 -1.2344,0.2656 -0.4532,0.2657 -0.4532,0.7188 0,0.5312 1.0469,0.8125 0.0781,0.0312 0.125,0.0312 l 0.3125,0.0938 q 0.9844,0.2812 1.3125,0.5781 0.3281,0.2969 0.3281,0.8281 0,0.9532 -0.7578,1.5547 -0.7578,0.6016 -1.9922,0.6016 -0.4687,0 -1,-0.0938 -0.5312,-0.0937 -1.1562,-0.2812 l 0.1875,-1.0156 q 0.5469,0.2656 1.0703,0.414 0.5234,0.1485 1.0078,0.1485 0.7344,0 1.1875,-0.3125 0.4531,-0.3125 0.4531,-0.7813 0,-0.5156 -1.1874,-0.8437 l -0.1094,-0.0157 -0.3438,-0.0937 q -0.75,-0.2031 -1.0937,-0.5234 -0.3438,-0.3204 -0.3438,-0.836 0,-0.9531 0.7188,-1.5156 0.7187,-0.5625 1.9531,-0.5625 0.5,0 0.9609,0.0781 0.461,0.0781 0.9141,0.2344 z m 5.1875,-2.5 q -1.4219,1.7812 -2.1172,3.375 -0.6953,1.5937 -0.6953,3.0781 0,0.8438 0.2031,1.6797 0.2031,0.8359 0.6094,1.6641 l -0.8594,0 q -0.5,-0.9219 -0.7422,-1.7969 -0.2421,-0.875 -0.2421,-1.7188 0,-1.5937 0.7421,-3.1562 0.7422,-1.5625 2.2266,-3.125 l 0.875,0 z m -1.375,9.7969 q 1.4375,-1.7813 2.1328,-3.3828 0.6953,-1.6016 0.6953,-3.0704 0,-0.8593 -0.2031,-1.6953 -0.2031,-0.8359 -0.6094,-1.6484 l 0.8594,0 q 0.5,0.9219 0.7422,1.7891 0.2422,0.8671 0.2422,1.7109 0,1.5937 -0.7422,3.1719 -0.7422,1.5781 -2.2266,3.125 l -0.8906,0 z"
     clip-path="url(#clipPath1)"
     id="path93"
     inkscape:connector-curvature="0"
     style="fill:#000028;stroke:none;stroke-linecap:butt;stroke-linejoin:round;text-rendering:geometricPrecision"
     transform="translate(-41.5,-41.5)" />
  <path
     d="m 50.0625,135.3198 0,2.9844 2.9844,0 0,0.9219 -2.9844,0 0,2.9843 -0.9063,0 0,-2.9843 -2.9843,0 0,-0.9219 2.9843,0 0,-2.9844 0.9063,0 z"
     clip-path="url(#clipPath1)"
     id="path95"
     inkscape:connector-curvature="0"
     style="fill:#000000;stroke:none;stroke-linecap:butt;stroke-linejoin:round;text-rendering:geometricPrecision"
     transform="translate(-41.5,-41.5)" />
  <path
     d="m 59.4531,138.5073 q 0,-0.7969 -0.3437,-1.2109 -0.3438,-0.4141 -0.9844,-0.4141 -0.4375,0 -0.8359,0.2266 -0.3985,0.2265 -0.711,0.6484 -0.3125,0.4219 -0.4922,1.0235 -0.1797,0.6015 -0.1797,1.1953 0,0.75 0.3438,1.1562 0.3438,0.4063 0.9688,0.4063 0.4687,0 0.8671,-0.2188 0.3985,-0.2187 0.6953,-0.6406 0.2969,-0.4375 0.4844,-1.0313 0.1875,-0.5937 0.1875,-1.1406 z m -3.0625,-1.4062 q 0.4063,-0.5157 0.9453,-0.7813 0.5391,-0.2656 1.1953,-0.2656 0.9219,0 1.4376,0.6016 0.5156,0.6015 0.5156,1.6953 0,0.8906 -0.3203,1.6953 -0.3203,0.8047 -0.9141,1.4453 -0.4062,0.4219 -0.9062,0.6484 -0.5,0.2266 -1.0469,0.2266 -0.6407,0 -1.0781,-0.2656 -0.4376,-0.2657 -0.6407,-0.7969 l -0.625,3.1875 -0.9843,0 1.6093,-8.2969 1,0 -0.1875,0.9063 z m 7.4063,5.2656 q -1.0625,0 -1.6797,-0.6563 -0.6172,-0.6562 -0.6172,-1.7812 0,-0.6563 0.2109,-1.3359 0.211,-0.6797 0.5547,-1.1329 0.5313,-0.7187 1.1875,-1.0625 0.6563,-0.3437 1.4844,-0.3437 1.0313,0 1.6563,0.6406 0.625,0.6406 0.625,1.6719 0,0.7031 -0.2032,1.4141 -0.2031,0.7109 -0.5468,1.1796 -0.5313,0.7188 -1.1876,1.0625 -0.6562,0.3438 -1.4843,0.3438 z m -1.2657,-2.4688 q 0,0.8125 0.3438,1.2188 0.3438,0.4062 1.0312,0.4062 1,0 1.6485,-0.8671 0.6484,-0.8672 0.6484,-2.1954 0,-0.7812 -0.3515,-1.1796 -0.3516,-0.3985 -1.0235,-0.3985 -0.5625,0 -0.9922,0.2656 -0.4297,0.2657 -0.7734,0.7969 -0.25,0.3906 -0.3906,0.8985 -0.1407,0.5078 -0.1407,1.0546 z m 10.9688,-3.5312 -0.1875,0.9375 q -0.3906,-0.2188 -0.8281,-0.3203 -0.4375,-0.1016 -0.8906,-0.1016 -0.7813,0 -1.2344,0.2656 -0.4532,0.2657 -0.4532,0.7188 0,0.5312 1.0469,0.8125 0.0781,0.0312 0.125,0.0312 l 0.3125,0.0938 q 0.9844,0.2812 1.3125,0.5781 0.3281,0.2969 0.3281,0.8281 0,0.9532 -0.7578,1.5547 -0.7578,0.6016 -1.9922,0.6016 -0.4687,0 -1,-0.0938 -0.5312,-0.0937 -1.1562,-0.2812 l 0.1875,-1.0156 q 0.5469,0.2656 1.0703,0.414 0.5234,0.1485 1.0078,0.1485 0.7344,0 1.1875,-0.3125 0.4531,-0.3125 0.4531,-0.7813 0,-0.5156 -1.1874,-0.8437 l -0.1094,-0.0157 -0.3438,-0.0937 q -0.75,-0.2031 -1.0937,-0.5234 -0.3438,-0.3204 -0.3438,-0.836 0,-0.9531 0.7188,-1.5156 0.7187,-0.5625 1.9531,-0.5625 0.5,0 0.9609,0.0781 0.461,0.0781 0.9141,0.2344 z m 5.1562,-0.1719 -0.1562,0.7656 -1.9688,0 -0.6406,3.2657 q -0.0312,0.1875 -0.0468,0.3125 -0.0157,0.125 -0.0157,0.1875 0,0.3437 0.2031,0.5 0.2032,0.1562 0.6719,0.1562 l 1,0 -0.1719,0.8281 -0.9531,0 q -0.875,0 -1.3047,-0.3437 -0.4296,-0.3438 -0.4296,-1.0469 0,-0.125 0.0156,-0.2734 0.0156,-0.1485 0.0468,-0.3203 l 0.6407,-3.2657 -0.8438,0 0.1563,-0.7656 0.8281,0 0.3281,-1.7031 0.9844,0 -0.3281,1.7031 1.9843,0 z m 5.2344,0.2344 -0.1875,0.9687 q -0.3593,-0.25 -0.7578,-0.3828 -0.3984,-0.1328 -0.8359,-0.1328 -0.4688,0 -0.8985,0.1719 -0.4297,0.1719 -0.7109,0.4687 -0.4688,0.4688 -0.7188,1.1016 -0.25,0.6328 -0.25,1.3047 0,0.7969 0.4063,1.1953 0.4063,0.3984 1.2344,0.3984 0.4062,0 0.8672,-0.1171 Q 82.5,141.2886 83,141.0386 l -0.1875,0.9687 q -0.4375,0.1875 -0.8906,0.2735 -0.4531,0.0859 -0.9375,0.0859 -1.1875,0 -1.836,-0.6016 -0.6484,-0.6015 -0.6484,-1.7109 0,-0.9375 0.3359,-1.7188 0.336,-0.7812 1.0079,-1.4218 0.4374,-0.4219 1.0468,-0.6407 0.6094,-0.2187 1.3282,-0.2187 0.4218,0 0.8359,0.0937 0.4141,0.0938 0.8359,0.2813 z m 2.9063,5.9375 q -1.0625,0 -1.6797,-0.6563 -0.6172,-0.6562 -0.6172,-1.7812 0,-0.6563 0.2109,-1.3359 0.211,-0.6797 0.5547,-1.1329 0.5313,-0.7187 1.1875,-1.0625 0.6563,-0.3437 1.4844,-0.3437 1.0313,0 1.6563,0.6406 0.625,0.6406 0.625,1.6719 0,0.7031 -0.2032,1.4141 -0.2031,0.7109 -0.5468,1.1796 -0.5313,0.7188 -1.1876,1.0625 -0.6562,0.3438 -1.4843,0.3438 z m -1.2657,-2.4688 q 0,0.8125 0.3438,1.2188 0.3438,0.4062 1.0312,0.4062 1,0 1.6485,-0.8671 0.6484,-0.8672 0.6484,-2.1954 0,-0.7812 -0.3515,-1.1796 -0.3516,-0.3985 -1.0235,-0.3985 -0.5625,0 -0.9922,0.2656 -0.4297,0.2657 -0.7734,0.7969 -0.25,0.3906 -0.3906,0.8985 -0.1407,0.5078 -0.1407,1.0546 z m 11.5938,-1.3125 -0.7031,3.625 -0.9844,0 0.7031,-3.5937 q 0.0469,-0.25 0.0703,-0.4453 0.0235,-0.1953 0.0235,-0.3047 0,-0.4531 -0.2813,-0.7031 -0.2812,-0.25 -0.7969,-0.25 -0.7968,0 -1.3671,0.5234 -0.5703,0.5234 -0.7579,1.4453 l -0.6562,3.3281 -0.9844,0 1.1563,-6.0156 1,0 -0.2031,0.9375 q 0.4062,-0.5156 0.9921,-0.7969 0.586,-0.2812 1.2266,-0.2812 0.7813,0 1.2187,0.4297 0.4376,0.4297 0.4376,1.2109 0,0.1875 -0.0235,0.4063 -0.0234,0.2187 -0.0703,0.4843 z m 5.4688,2.7188 q -0.3907,0.5312 -0.9376,0.7969 -0.5468,0.2656 -1.2031,0.2656 -0.9062,0 -1.4297,-0.6172 -0.5234,-0.6172 -0.5234,-1.6797 0,-0.8906 0.3203,-1.7031 0.3203,-0.8125 0.9141,-1.4531 0.4062,-0.4219 0.9062,-0.6407 0.5,-0.2187 1.0469,-0.2187 0.5781,0 1.0234,0.2734 0.4453,0.2735 0.6797,0.8047 l 0.6406,-3.2812 1,0 -1.625,8.3593 -1,0 0.1876,-0.9062 z m -3.0626,-1.4219 q 0,0.7813 0.3516,1.2188 0.3516,0.4375 0.9766,0.4375 0.4531,0 0.8515,-0.2266 0.3985,-0.2266 0.6953,-0.6484 0.3282,-0.4532 0.5079,-1.0469 0.1797,-0.5938 0.1797,-1.1719 0,-0.7344 -0.3516,-1.1562 -0.3516,-0.4219 -0.9766,-0.4219 -0.4687,0 -0.8672,0.2187 -0.3984,0.2188 -0.6796,0.6407 -0.3126,0.4375 -0.5,1.0312 -0.1876,0.5938 -0.1876,1.125 z m 7.4844,-6.0312 0.9844,0 -0.2344,1.25 -1,0 0.25,-1.25 z m -0.4531,2.3437 0.9844,0 -1.1719,6.0156 -0.9844,0 1.1719,-6.0156 z m 6.0937,0 -0.1562,0.7656 -1.9688,0 -0.6406,3.2657 q -0.0312,0.1875 -0.0468,0.3125 -0.0157,0.125 -0.0157,0.1875 0,0.3437 0.2031,0.5 0.2032,0.1562 0.6719,0.1562 l 1,0 -0.1719,0.8281 -0.9531,0 q -0.875,0 -1.3047,-0.3437 -0.4296,-0.3438 -0.4296,-1.0469 0,-0.125 0.0156,-0.2734 0.0156,-0.1485 0.0468,-0.3203 l 0.6407,-3.2657 -0.8438,0 0.1563,-0.7656 0.8281,0 0.3281,-1.7031 0.9844,0 -0.3281,1.7031 1.9843,0 z m 1.3594,-2.3437 0.9844,0 -0.2344,1.25 -1,0 0.25,-1.25 z m -0.4531,2.3437 0.9844,0 -1.1719,6.0156 -0.9844,0 1.1719,-6.0156 z m 4.2344,6.1719 q -1.0625,0 -1.6797,-0.6563 -0.6172,-0.6562 -0.6172,-1.7812 0,-0.6563 0.2109,-1.3359 0.211,-0.6797 0.5547,-1.1329 0.5313,-0.7187 1.1875,-1.0625 0.6563,-0.3437 1.4844,-0.3437 1.0313,0 1.6563,0.6406 0.625,0.6406 0.625,1.6719 0,0.7031 -0.2032,1.4141 -0.2031,0.7109 -0.5468,1.1796 -0.5313,0.7188 -1.1876,1.0625 -0.6562,0.3438 -1.4843,0.3438 z m -1.2657,-2.4688 q 0,0.8125 0.3438,1.2188 0.3438,0.4062 1.0312,0.4062 1,0 1.6485,-0.8671 0.6484,-0.8672 0.6484,-2.1954 0,-0.7812 -0.3515,-1.1796 -0.3516,-0.3985 -1.0235,-0.3985 -0.5625,0 -0.9922,0.2656 -0.4297,0.2657 -0.7734,0.7969 -0.25,0.3906 -0.3906,0.8985 -0.1407,0.5078 -0.1407,1.0546 z m 11.5938,-1.3125 -0.7031,3.625 -0.9844,0 0.7031,-3.5937 q 0.0469,-0.25 0.0703,-0.4453 0.0235,-0.1953 0.0235,-0.3047 0,-0.4531 -0.2813,-0.7031 -0.2812,-0.25 -0.7969,-0.25 -0.7968,0 -1.3671,0.5234 -0.5703,0.5234 -0.7579,1.4453 l -0.6562,3.3281 -0.9844,0 1.1563,-6.0156 1,0 -0.2031,0.9375 q 0.4062,-0.5156 0.9921,-0.7969 0.586,-0.2812 1.2266,-0.2812 0.7813,0 1.2187,0.4297 0.4376,0.4297 0.4376,1.2109 0,0.1875 -0.0235,0.4063 -0.0234,0.2187 -0.0703,0.4843 z m 6.375,-2.2187 -0.1875,0.9375 q -0.3906,-0.2188 -0.8281,-0.3203 -0.4375,-0.1016 -0.8906,-0.1016 -0.7813,0 -1.2344,0.2656 -0.4532,0.2657 -0.4532,0.7188 0,0.5312 1.0469,0.8125 0.0781,0.0312 0.125,0.0312 l 0.3125,0.0938 q 0.9844,0.2812 1.3125,0.5781 0.3281,0.2969 0.3281,0.8281 0,0.9532 -0.7578,1.5547 -0.7578,0.6016 -1.9922,0.6016 -0.4687,0 -1,-0.0938 -0.5312,-0.0937 -1.1562,-0.2812 l 0.1875,-1.0156 q 0.5469,0.2656 1.0703,0.414 0.5234,0.1485 1.0078,0.1485 0.7344,0 1.1875,-0.3125 0.4531,-0.3125 0.4531,-0.7813 0,-0.5156 -1.1874,-0.8437 l -0.1094,-0.0157 -0.3438,-0.0937 q -0.75,-0.2031 -1.0937,-0.5234 -0.3438,-0.3204 -0.3438,-0.836 0,-0.9531 0.7188,-1.5156 0.7187,-0.5625 1.9531,-0.5625 0.5,0 0.9609,0.0781 0.461,0.0781 0.9141,0.2344 z m 5.1875,-2.5 q -1.4219,1.7812 -2.1172,3.375 -0.6953,1.5937 -0.6953,3.0781 0,0.8438 0.2031,1.6797 0.2031,0.8359 0.6094,1.6641 l -0.8594,0 q -0.5,-0.9219 -0.7422,-1.7969 -0.2421,-0.875 -0.2421,-1.7188 0,-1.5937 0.7421,-3.1562 0.7422,-1.5625 2.2266,-3.125 l 0.875,0 z m -1.375,9.7969 q 1.4375,-1.7813 2.1328,-3.3828 0.6953,-1.6016 0.6953,-3.0704 0,-0.8593 -0.2031,-1.6953 -0.2031,-0.8359 -0.6094,-1.6484 l 0.8594,0 q 0.5,0.9219 0.7422,1.7891 0.2422,0.8671 0.2422,1.7109 0,1.5937 -0.7422,3.1719 -0.7422,1.5781 -2.2266,3.125 l -0.8906,0 z"
     clip-path="url(#clipPath1)"
     id="path97"
     inkscape:connector-curvature="0"
     style="fill:#000028;stroke:none;stroke-linecap:butt;stroke-linejoin:round;text-rendering:geometricPrecision"
     transform="translate(-41.5,-41.5)" />
  <path
     d="m 57.0469,50.7417 q 0.7031,0 1.0625,-0.3281 0.3594,-0.3282 0.3594,-0.9532 0,-0.4062 -0.25,-0.5859 -0.25,-0.1797 -0.7813,-0.1797 l -0.8594,0 -0.4062,2.0469 0.875,0 z m -1.1563,1.4375 -0.5937,3.0312 -2.0625,0 1.5625,-8.0156 3.0469,0 q 1.3281,0 2.0078,0.4922 0.6796,0.4922 0.6796,1.4609 0,0.9688 -0.5312,1.5938 -0.5312,0.625 -1.4531,0.7187 0.4219,0.0938 0.6953,0.4297 0.2734,0.336 0.4922,1.0391 l 0.6718,2.2812 -2.0468,0 -0.6094,-2 q -0.1719,-0.5937 -0.4375,-0.8125 -0.2656,-0.2187 -0.75,-0.2187 l -0.6719,0 z m 12.0313,0.25 -0.0625,0.3125 -4.5,0 q 0,0.0312 -0.0078,0.0859 -0.0078,0.0547 -0.0078,0.1016 0,0.5781 0.3515,0.8672 0.3516,0.289 1.0547,0.289 0.6094,0 1.2812,-0.1796 0.6719,-0.1797 1.4219,-0.5391 l -0.2969,1.4844 q -0.7031,0.2656 -1.3984,0.3906 -0.6953,0.125 -1.4297,0.125 -1.4062,0 -2.1719,-0.6484 -0.7656,-0.6485 -0.7656,-1.836 0,-0.6875 0.25,-1.3359 0.25,-0.6485 0.7188,-1.1797 0.5468,-0.6563 1.3203,-0.9844 0.7734,-0.3281 1.7109,-0.3281 1.2188,0 1.9375,0.6484 0.7188,0.6485 0.7188,1.7422 0,0.2188 -0.0313,0.461 -0.0312,0.2421 -0.0937,0.5234 z m -1.8125,-0.875 q 0.0156,-0.0781 0.0234,-0.1484 0.0078,-0.0704 0.0078,-0.1485 0,-0.4219 -0.2578,-0.6719 -0.2578,-0.25 -0.7109,-0.25 -0.5625,0 -0.9531,0.3047 -0.3907,0.3047 -0.6094,0.9141 l 2.5,0 z m 8.2812,-2.1719 -0.3125,1.5625 q -0.375,-0.25 -0.75,-0.3828 -0.375,-0.1328 -0.7343,-0.1328 -0.9532,0 -1.5469,0.625 -0.5938,0.625 -0.5938,1.6094 0,0.6406 0.375,0.9843 0.375,0.3438 1.0469,0.3438 0.4531,0 0.8828,-0.1328 0.4297,-0.1328 0.836,-0.3985 l -0.2969,1.5782 q -0.4844,0.1562 -0.9688,0.2422 -0.4843,0.0859 -0.9687,0.0859 -1.4219,0 -2.1875,-0.6406 -0.7657,-0.6407 -0.7657,-1.7969 0,-0.75 0.2813,-1.4375 0.2813,-0.6875 0.8125,-1.25 0.5781,-0.5938 1.3359,-0.8906 0.7579,-0.2969 1.7579,-0.2969 0.4531,0 0.9062,0.0781 0.4531,0.0781 0.8906,0.25 z m 7.5313,3.0469 -0.0625,0.3125 -4.5,0 q 0,0.0312 -0.0078,0.0859 -0.0078,0.0547 -0.0078,0.1016 0,0.5781 0.3515,0.8672 0.3516,0.289 1.0547,0.289 0.6094,0 1.2812,-0.1796 0.6719,-0.1797 1.4219,-0.5391 l -0.2969,1.4844 q -0.7031,0.2656 -1.3984,0.3906 -0.6953,0.125 -1.4297,0.125 -1.4062,0 -2.1719,-0.6484 -0.7656,-0.6485 -0.7656,-1.836 0,-0.6875 0.25,-1.3359 0.25,-0.6485 0.7188,-1.1797 0.5468,-0.6563 1.3203,-0.9844 0.7734,-0.3281 1.7109,-0.3281 1.2188,0 1.9375,0.6484 0.7188,0.6485 0.7188,1.7422 0,0.2188 -0.0313,0.461 -0.0312,0.2421 -0.0937,0.5234 z m -1.8125,-0.875 q 0.0156,-0.0781 0.0234,-0.1484 0.0078,-0.0704 0.0078,-0.1485 0,-0.4219 -0.2578,-0.6719 -0.2578,-0.25 -0.7109,-0.25 -0.5625,0 -0.9531,0.3047 -0.3907,0.3047 -0.6094,0.9141 l 2.5,0 z m 4.3281,2.7812 -0.6094,3.1563 -1.9375,0 1.625,-8.2969 1.9219,0 -0.1719,0.875 q 0.4375,-0.5156 0.9219,-0.7656 0.4844,-0.25 1.0625,-0.25 1.0156,0 1.6016,0.6406 0.5859,0.6406 0.5859,1.75 0,0.7031 -0.2031,1.3594 -0.2032,0.6562 -0.5938,1.1875 -0.4844,0.6719 -1.1015,1.0234 -0.6172,0.3516 -1.3203,0.3516 -0.6094,0 -1.0469,-0.25 -0.4375,-0.25 -0.7344,-0.7813 z m 2.0313,-3.8906 q -0.75,0 -1.2188,0.6875 -0.4688,0.6875 -0.4688,1.7813 0,0.4843 0.2657,0.7734 0.2656,0.2891 0.7343,0.2891 0.7344,0 1.2032,-0.6797 0.4687,-0.6797 0.4687,-1.7266 0,-0.5469 -0.25,-0.8359 -0.25,-0.2891 -0.7343,-0.2891 z m 7.4843,-2.9531 -0.3281,1.7031 1.9688,0 -0.2657,1.375 -1.9687,0 -0.5,2.5469 q -0.0156,0.0781 -0.0235,0.1406 -0.0078,0.0625 -0.0078,0.1094 0,0.25 0.1641,0.3594 0.164,0.1093 0.5547,0.1093 l 0.9843,0 -0.2656,1.375 -1.625,0 q -0.875,0 -1.3281,-0.3671 -0.4531,-0.3672 -0.4531,-1.0547 0,-0.1407 0.0156,-0.3125 0.0156,-0.1719 0.0469,-0.3594 l 0.5,-2.5469 -0.9531,0 0.2656,-1.375 0.9531,0 0.3437,-1.7031 1.9219,0 z m 2.5625,1.7031 1.9219,0 -1.1719,6.0156 -1.9218,0 1.1718,-6.0156 z m 0.4375,-2.3437 1.9375,0 -0.2968,1.5625 -1.9376,0 0.2969,-1.5625 z m 6.1719,3.5781 q -0.75,0 -1.2344,0.6719 -0.4844,0.6718 -0.4844,1.7187 0,0.5781 0.2657,0.875 0.2656,0.2969 0.7656,0.2969 0.7344,0 1.2187,-0.6797 0.4844,-0.6797 0.4844,-1.7266 0,-0.5625 -0.2578,-0.8593 -0.2578,-0.2969 -0.7578,-0.2969 z m 0.1562,-1.375 q 1.3438,0 2.1094,0.6797 0.7656,0.6797 0.7656,1.8515 0,0.6875 -0.2421,1.3282 -0.2422,0.6406 -0.6953,1.1718 -0.5469,0.6407 -1.2969,0.961 -0.75,0.3203 -1.6719,0.3203 -1.3281,0 -2.0938,-0.6797 -0.7656,-0.6797 -0.7656,-1.8672 0,-0.6719 0.25,-1.3203 0.25,-0.6484 0.7188,-1.1797 0.5312,-0.625 1.2734,-0.9453 0.7422,-0.3203 1.6484,-0.3203 z m 10.8126,2.5 -0.7188,3.6562 -1.9219,0 0.6094,-3.1406 q 0.0625,-0.2969 0.0937,-0.5156 0.0313,-0.2188 0.0313,-0.3281 0,-0.3438 -0.1875,-0.5313 -0.1875,-0.1875 -0.5312,-0.1875 -0.5938,0 -1.0235,0.461 -0.4297,0.4609 -0.6015,1.289 l -0.5782,2.9531 -1.9218,0 1.1718,-6.0156 1.9219,0 -0.1719,0.875 q 0.5313,-0.5156 1.0703,-0.7656 0.5391,-0.25 1.1172,-0.25 0.8438,0 1.2891,0.4297 0.4453,0.4297 0.4453,1.2265 0,0.1719 -0.0234,0.3829 -0.0235,0.2109 -0.0703,0.4609 z m 2.4218,-2.3594 1.9219,0 -1.1719,6.0156 -1.9218,0 1.1718,-6.0156 z m 0.4375,-2.3437 1.9375,0 -0.2968,1.5625 -1.9376,0 0.2969,-1.5625 z m 8.2031,2.5312 -0.2812,1.5 q -0.5625,-0.2812 -1.125,-0.414 -0.5625,-0.1329 -1.0469,-0.1329 -0.5781,0 -0.8828,0.1407 -0.3047,0.1406 -0.3047,0.4218 0,0.1563 0.1719,0.2579 0.1719,0.1015 0.6719,0.2109 l 0.3437,0.0625 q 1.1719,0.2344 1.6407,0.625 0.4687,0.3906 0.4687,1.0937 0,1.0469 -0.8281,1.6329 -0.8282,0.5859 -2.2969,0.5859 -0.625,0 -1.2656,-0.0938 -0.6407,-0.0937 -1.3125,-0.2968 l 0.2812,-1.5 q 0.5313,0.2968 1.125,0.4531 0.5938,0.1562 1.2188,0.1562 0.5937,0 0.9062,-0.1406 0.3125,-0.1406 0.3125,-0.4219 0,-0.2031 -0.1719,-0.3046 -0.1718,-0.1016 -0.7187,-0.2266 l -0.3437,-0.0625 q -1.0313,-0.2188 -1.4688,-0.6328 -0.4375,-0.4141 -0.4375,-1.1641 0,-1 0.7578,-1.539 0.7578,-0.5391 2.1641,-0.5391 0.625,0 1.2187,0.0781 0.5938,0.0781 1.2031,0.25 z m 4.7969,-1.8906 -0.3281,1.7031 1.9688,0 -0.2657,1.375 -1.9687,0 -0.5,2.5469 q -0.0156,0.0781 -0.0235,0.1406 -0.008,0.0625 -0.008,0.1094 0,0.25 0.1641,0.3594 0.164,0.1093 0.5547,0.1093 l 0.9843,0 -0.2656,1.375 -1.625,0 q -0.875,0 -1.3281,-0.3671 -0.4531,-0.3672 -0.4531,-1.0547 0,-0.1407 0.0156,-0.3125 0.0156,-0.1719 0.0469,-0.3594 l 0.5,-2.5469 -0.9531,0 0.2656,-1.375 0.9531,0 0.3437,-1.7031 1.9219,0 z m 2.8438,-0.2969 2.0625,0 -0.9375,4.7969 q -0.0469,0.2656 -0.0703,0.4609 -0.0235,0.1953 -0.0235,0.3516 0,0.5156 0.2813,0.7812 0.2812,0.2657 0.8437,0.2657 0.75,0 1.1485,-0.4219 0.3984,-0.4219 0.6015,-1.4375 l 0.9375,-4.7969 2.0625,0 -0.9375,4.7969 q -0.3437,1.7812 -1.3203,2.5781 -0.9765,0.7969 -2.7891,0.7969 -1.4218,0 -2.164,-0.6094 -0.7422,-0.6094 -0.7422,-1.7656 0,-0.2031 0.0234,-0.4375 0.0235,-0.2344 0.086,-0.5625 l 0.9375,-4.7969 z m 13.3593,2.1875 -0.2812,1.5 q -0.5625,-0.2812 -1.125,-0.414 -0.5625,-0.1329 -1.0469,-0.1329 -0.5781,0 -0.8828,0.1407 -0.3047,0.1406 -0.3047,0.4218 0,0.1563 0.1719,0.2579 0.1719,0.1015 0.6719,0.2109 l 0.3437,0.0625 q 1.1719,0.2344 1.6407,0.625 0.4687,0.3906 0.4687,1.0937 0,1.0469 -0.8281,1.6329 -0.8282,0.5859 -2.2969,0.5859 -0.625,0 -1.2656,-0.0938 -0.6407,-0.0937 -1.3125,-0.2968 l 0.2812,-1.5 q 0.5313,0.2968 1.125,0.4531 0.5938,0.1562 1.2188,0.1562 0.5937,0 0.9062,-0.1406 0.3125,-0.1406 0.3125,-0.4219 0,-0.2031 -0.1719,-0.3046 -0.1718,-0.1016 -0.7187,-0.2266 l -0.3437,-0.0625 q -1.0313,-0.2188 -1.4688,-0.6328 -0.4375,-0.4141 -0.4375,-1.1641 0,-1 0.7578,-1.539 0.7578,-0.5391 2.1641,-0.5391 0.625,0 1.2187,0.0781 0.5938,0.0781 1.2031,0.25 z m 7.7657,3.0469 -0.0625,0.3125 -4.5,0 q 0,0.0312 -0.008,0.0859 -0.008,0.0547 -0.008,0.1016 0,0.5781 0.3515,0.8672 0.3516,0.289 1.0547,0.289 0.6094,0 1.2812,-0.1796 0.6719,-0.1797 1.4219,-0.5391 l -0.2969,1.4844 q -0.7031,0.2656 -1.3984,0.3906 -0.6953,0.125 -1.4297,0.125 -1.4062,0 -2.1719,-0.6484 -0.7656,-0.6485 -0.7656,-1.836 0,-0.6875 0.25,-1.3359 0.25,-0.6485 0.7188,-1.1797 0.5468,-0.6563 1.3203,-0.9844 0.7734,-0.3281 1.7109,-0.3281 1.2188,0 1.9375,0.6484 0.7188,0.6485 0.7188,1.7422 0,0.2188 -0.0313,0.461 -0.0312,0.2421 -0.0937,0.5234 z m -1.8125,-0.875 q 0.0156,-0.0781 0.0234,-0.1484 0.008,-0.0704 0.008,-0.1485 0,-0.4219 -0.2578,-0.6719 -0.2578,-0.25 -0.7109,-0.25 -0.5625,0 -0.9531,0.3047 -0.3907,0.3047 -0.6094,0.9141 l 2.5,0 z m 8.5625,3.2812 q -0.75,0.2657 -1.4297,0.3985 -0.6797,0.1328 -1.2891,0.1328 -1.625,0 -2.5937,-0.8828 -0.9688,-0.8828 -0.9688,-2.3516 0,-0.9687 0.3125,-1.8125 0.3125,-0.8437 0.9063,-1.5625 0.7031,-0.8125 1.6953,-1.2656 0.9922,-0.4531 2.1328,-0.4531 0.625,0 1.25,0.1484 0.625,0.1484 1.2813,0.4609 l -0.3438,1.6563 q -0.5156,-0.3906 -1.0312,-0.5781 -0.5157,-0.1875 -1.1094,-0.1875 -1.25,0 -2.086,0.9609 -0.8359,0.9609 -0.8359,2.3984 0,0.9219 0.5156,1.4454 0.5157,0.5234 1.4219,0.5234 0.5469,0 1.1562,-0.1953 0.6094,-0.1953 1.3594,-0.6172 l -0.3437,1.7812 z m 4.9531,-2.3281 q -0.7188,0 -1.0859,0.2188 -0.3672,0.2187 -0.3672,0.6562 0,0.3281 0.2109,0.5156 0.211,0.1875 0.6016,0.1875 0.5937,0 0.9844,-0.3593 0.3906,-0.3594 0.5312,-1 l 0.0469,-0.2188 -0.9219,0 z m 3,-0.7344 -0.6719,3.4375 -1.9219,0 0.1563,-0.8906 q -0.4687,0.5313 -0.9922,0.7891 -0.5234,0.2578 -1.1484,0.2578 -0.8594,0 -1.3594,-0.4453 -0.5,-0.4453 -0.5,-1.1953 0,-1.1407 0.8906,-1.75 0.8907,-0.6094 2.5625,-0.6094 l 1.1406,0 0.0157,-0.1563 q 0.0156,-0.0781 0.0156,-0.1093 0,-0.0313 0,-0.0625 0,-0.3438 -0.3359,-0.5235 -0.336,-0.1797 -0.9922,-0.1797 -0.5938,0 -1.1563,0.1172 -0.5625,0.1172 -1.0781,0.3672 l 0.2969,-1.4687 q 0.5937,-0.1407 1.2265,-0.2188 0.6328,-0.0781 1.3047,-0.0781 1.3438,0 1.9922,0.4531 0.6485,0.4531 0.6485,1.4063 0,0.1718 -0.0235,0.3906 -0.0234,0.2187 -0.0703,0.4687 z m 6.5312,-2.3906 -0.2812,1.5 q -0.5625,-0.2812 -1.125,-0.414 -0.5625,-0.1329 -1.0469,-0.1329 -0.5781,0 -0.8828,0.1407 -0.3047,0.1406 -0.3047,0.4218 0,0.1563 0.1719,0.2579 0.1719,0.1015 0.6719,0.2109 l 0.3437,0.0625 q 1.1719,0.2344 1.6407,0.625 0.4687,0.3906 0.4687,1.0937 0,1.0469 -0.8281,1.6329 -0.8282,0.5859 -2.2969,0.5859 -0.625,0 -1.2656,-0.0938 -0.6407,-0.0937 -1.3125,-0.2968 l 0.2812,-1.5 q 0.5313,0.2968 1.125,0.4531 0.5938,0.1562 1.2188,0.1562 0.5937,0 0.9062,-0.1406 0.3125,-0.1406 0.3125,-0.4219 0,-0.2031 -0.1719,-0.3046 -0.1718,-0.1016 -0.7187,-0.2266 l -0.3437,-0.0625 q -1.0313,-0.2188 -1.4688,-0.6328 -0.4375,-0.4141 -0.4375,-1.1641 0,-1 0.7578,-1.539 0.7578,-0.5391 2.1641,-0.5391 0.625,0 1.2187,0.0781 0.5938,0.0781 1.2031,0.25 z m 7.7657,3.0469 -0.0625,0.3125 -4.5,0 q 0,0.0312 -0.008,0.0859 -0.008,0.0547 -0.008,0.1016 0,0.5781 0.3515,0.8672 0.3516,0.289 1.0547,0.289 0.6094,0 1.2812,-0.1796 0.6719,-0.1797 1.4219,-0.5391 l -0.2969,1.4844 q -0.7031,0.2656 -1.3984,0.3906 -0.6953,0.125 -1.4297,0.125 -1.4062,0 -2.1719,-0.6484 -0.7656,-0.6485 -0.7656,-1.836 0,-0.6875 0.25,-1.3359 0.25,-0.6485 0.7188,-1.1797 0.5468,-0.6563 1.3203,-0.9844 0.7734,-0.3281 1.7109,-0.3281 1.2188,0 1.9375,0.6484 0.7188,0.6485 0.7188,1.7422 0,0.2188 -0.0313,0.461 -0.0312,0.2421 -0.0937,0.5234 z m -1.8125,-0.875 q 0.0156,-0.0781 0.0234,-0.1484 0.008,-0.0704 0.008,-0.1485 0,-0.4219 -0.2578,-0.6719 -0.2578,-0.25 -0.7109,-0.25 -0.5625,0 -0.9531,0.3047 -0.3907,0.3047 -0.6094,0.9141 l 2.5,0 z m 8.0468,-2.1719 -0.2812,1.5 q -0.5625,-0.2812 -1.125,-0.414 -0.5625,-0.1329 -1.0469,-0.1329 -0.5781,0 -0.8828,0.1407 -0.3047,0.1406 -0.3047,0.4218 0,0.1563 0.1719,0.2579 0.1719,0.1015 0.6719,0.2109 l 0.3437,0.0625 q 1.1719,0.2344 1.6407,0.625 0.4687,0.3906 0.4687,1.0937 0,1.0469 -0.8281,1.6329 -0.8282,0.5859 -2.2969,0.5859 -0.625,0 -1.2656,-0.0938 -0.6407,-0.0937 -1.3125,-0.2968 l 0.2812,-1.5 q 0.5313,0.2968 1.125,0.4531 0.5938,0.1562 1.2188,0.1562 0.5937,0 0.9062,-0.1406 0.3125,-0.1406 0.3125,-0.4219 0,-0.2031 -0.1719,-0.3046 -0.1718,-0.1016 -0.7187,-0.2266 l -0.3437,-0.0625 q -1.0313,-0.2188 -1.4688,-0.6328 -0.4375,-0.4141 -0.4375,-1.1641 0,-1 0.7578,-1.539 0.7578,-0.5391 2.1641,-0.5391 0.625,0 1.2187,0.0781 0.5938,0.0781 1.2031,0.25 z"
     clip-path="url(#clipPath1)"
     id="path99"
     inkscape:connector-curvature="0"
     style="fill:#000000;stroke:none;stroke-linecap:butt;stroke-linejoin:round;text-rendering:geometricPrecision"
     transform="translate(-41.5,-41.5)" />
  <rect
     x="136"
     y="185"
     clip-path="url(#clipPath1)"
     width="61"
     height="36"
     id="rect101"
     style="fill:#b2b2b2;stroke:none;stroke-linecap:butt;stroke-linejoin:round;text-rendering:geometricPrecision"
     transform="translate(-41.5,-41.5)" />
  <rect
     x="133"
     y="182"
     clip-path="url(#clipPath1)"
     width="61"
     height="36"
     id="rect103"
     style="fill:url(#linearGradient2);stroke:none;stroke-linecap:butt;stroke-linejoin:round;text-rendering:geometricPrecision"
     transform="translate(-41.5,-41.5)" />
  <rect
     x="133"
     y="182"
     clip-path="url(#clipPath1)"
     width="61"
     height="36"
     id="rect105"
     style="fill:none;stroke:#99795c;stroke-linecap:butt;stroke-linejoin:round;text-rendering:geometricPrecision"
     transform="translate(-41.5,-41.5)" />
  <line
     clip-path="url(#clipPath1)"
     x1="133"
     x2="194"
     y1="200"
     y2="200"
     id="line107"
     style="fill:none;stroke:#99795c;stroke-linecap:butt;stroke-linejoin:round;text-rendering:geometricPrecision"
     transform="translate(-41.5,-41.5)" />
  <line
     clip-path="url(#clipPath1)"
     x1="133"
     x2="194"
     y1="209"
     y2="209"
     id="line109"
     style="fill:none;stroke:#99795c;stroke-linecap:butt;stroke-linejoin:round;text-rendering:geometricPrecision"
     transform="translate(-41.5,-41.5)" />
  <path
     d="m 136.0469,187.1948 2.0781,0 2.1406,5.9219 2.1094,-5.9219 2.0781,0 -2.9687,8.0156 -2.4532,0 -2.9843,-8.0156 z m 11.5781,5.3125 q -0.6094,0 -0.9141,0.2031 -0.3047,0.2032 -0.3047,0.5938 0,0.375 0.25,0.5781 0.25,0.2031 0.6719,0.2031 0.5469,0 0.9219,-0.3906 0.375,-0.3906 0.375,-0.9687 l 0,-0.2188 -1,0 z m 2.9375,-0.7344 0,3.4375 -1.9375,0 0,-0.8906 q -0.3906,0.5469 -0.875,0.7969 -0.4844,0.25 -1.1719,0.25 -0.9375,0 -1.5234,-0.5469 -0.5859,-0.5469 -0.5859,-1.4219 0,-1.0468 0.7265,-1.539 0.7266,-0.4922 2.2891,-0.4922 l 1.1406,0 0,-0.1563 q 0,-0.4531 -0.3594,-0.664 -0.3594,-0.211 -1.125,-0.211 -0.625,0 -1.1562,0.1172 -0.5313,0.1172 -0.9844,0.3672 l 0,-1.4687 q 0.6094,-0.1407 1.2344,-0.2188 0.625,-0.0781 1.25,-0.0781 1.625,0 2.3515,0.6406 0.7266,0.6406 0.7266,2.0781 z m 6.8281,-0.9375 q -0.25,-0.125 -0.5,-0.1796 -0.25,-0.0547 -0.5,-0.0547 -0.75,0 -1.1484,0.4765 -0.3984,0.4766 -0.3984,1.3672 l 0,2.7656 -1.9219,0 0,-6.0156 1.9219,0 0,0.9844 q 0.375,-0.5938 0.8515,-0.8594 0.4766,-0.2656 1.1485,-0.2656 0.1093,0 0.2187,0.008 0.1094,0.008 0.3281,0.0234 l 0,1.75 z m 0.5313,-1.6406 1.9219,0 0,6.0156 -1.9219,0 0,-6.0156 z m 0,-2.3437 1.9219,0 0,1.5625 -1.9219,0 0,-1.5625 z m 6.7031,5.6562 q -0.6094,0 -0.9141,0.2031 -0.3047,0.2032 -0.3047,0.5938 0,0.375 0.25,0.5781 0.25,0.2031 0.6719,0.2031 0.5469,0 0.9219,-0.3906 0.375,-0.3906 0.375,-0.9687 l 0,-0.2188 -1,0 z m 2.9375,-0.7344 0,3.4375 -1.9375,0 0,-0.8906 q -0.3906,0.5469 -0.875,0.7969 -0.4844,0.25 -1.1719,0.25 -0.9375,0 -1.5234,-0.5469 -0.5859,-0.5469 -0.5859,-1.4219 0,-1.0468 0.7265,-1.539 0.7266,-0.4922 2.2891,-0.4922 l 1.1406,0 0,-0.1563 q 0,-0.4531 -0.3594,-0.664 -0.3594,-0.211 -1.125,-0.211 -0.625,0 -1.1562,0.1172 -0.5313,0.1172 -0.9844,0.3672 l 0,-1.4687 q 0.6094,-0.1407 1.2344,-0.2188 0.625,-0.0781 1.25,-0.0781 1.625,0 2.3515,0.6406 0.7266,0.6406 0.7266,2.0781 z m 8.4063,-0.2187 0,3.6562 -1.9376,0 0,-0.5937 0,-2.2031 q 0,-0.7813 -0.0312,-1.0782 -0.0312,-0.2968 -0.125,-0.4375 -0.1094,-0.1875 -0.2969,-0.289 -0.1875,-0.1016 -0.4375,-0.1016 -0.6094,0 -0.9531,0.461 -0.3437,0.4609 -0.3437,1.289 l 0,2.9531 -1.9219,0 0,-6.0156 1.9219,0 0,0.875 q 0.4374,-0.5156 0.9296,-0.7656 0.4922,-0.25 1.0704,-0.25 1.0468,0 1.5859,0.6406 0.5391,0.6406 0.5391,1.8594 z m 4.0624,-4.0625 0,1.7031 1.9688,0 0,1.375 -1.9688,0 0,2.5469 q 0,0.4219 0.1641,0.5703 0.1641,0.1484 0.6485,0.1484 l 1,0 0,1.375 -1.6563,0 q -1.1406,0 -1.6172,-0.4765 -0.4765,-0.4766 -0.4765,-1.6172 l 0,-2.5469 -0.9532,0 0,-1.375 0.9532,0 0,-1.7031 1.9374,0 z m 5.1407,6.2031 3.5312,0 0,1.5156 -5.8281,0 0,-1.5156 2.9219,-2.5937 q 0.3906,-0.3438 0.5781,-0.6875 0.1875,-0.3438 0.1875,-0.7032 0,-0.5625 -0.375,-0.9062 -0.375,-0.3438 -1,-0.3438 -0.4844,0 -1.0625,0.2032 -0.5781,0.2031 -1.2344,0.6093 l 0,-1.75 q 0.7032,-0.2343 1.3828,-0.3593 0.6797,-0.125 1.336,-0.125 1.4375,0 2.2344,0.6406 0.7968,0.6406 0.7968,1.7656 0,0.6563 -0.3359,1.2266 -0.3359,0.5703 -1.4297,1.5078 l -1.7031,1.5156 z"
     clip-path="url(#clipPath1)"
     id="path111"
     inkscape:connector-curvature="0"
     style="fill:#000000;stroke:none;stroke-linecap:butt;stroke-linejoin:round;text-rendering:geometricPrecision"
     transform="translate(-41.5,-41.5)" />
  <rect
     x="45"
     y="185"
     clip-path="url(#clipPath1)"
     width="61"
     height="36"
     id="rect113"
     style="fill:#b2b2b2;stroke:none;stroke-linecap:butt;stroke-linejoin:round;text-rendering:geometricPrecision"
     transform="translate(-41.5,-41.5)" />
  <rect
     x="42"
     y="182"
     clip-path="url(#clipPath1)"
     width="61"
     height="36"
     id="rect115"
     style="fill:url(#linearGradient3);stroke:none;stroke-linecap:butt;stroke-linejoin:round;text-rendering:geometricPrecision"
     transform="translate(-41.5,-41.5)" />
  <rect
     x="42"
     y="182"
     clip-path="url(#clipPath1)"
     width="61"
     height="36"
     id="rect117"
     style="fill:none;stroke:#99795c;stroke-linecap:butt;stroke-linejoin:round;text-rendering:geometricPrecision"
     transform="translate(-41.5,-41.5)" />
  <line
     clip-path="url(#clipPath1)"
     x1="42"
     x2="103"
     y1="200"
     y2="200"
     id="line119"
     style="fill:none;stroke:#99795c;stroke-linecap:butt;stroke-linejoin:round;text-rendering:geometricPrecision"
     transform="translate(-41.5,-41.5)" />
  <line
     clip-path="url(#clipPath1)"
     x1="42"
     x2="103"
     y1="209"
     y2="209"
     id="line121"
     style="fill:none;stroke:#99795c;stroke-linecap:butt;stroke-linejoin:round;text-rendering:geometricPrecision"
     transform="translate(-41.5,-41.5)" />
  <path
     d="m 45.0469,187.1948 2.0781,0 2.1406,5.9219 2.1094,-5.9219 2.0781,0 -2.9687,8.0156 -2.4532,0 -2.9843,-8.0156 z m 11.5781,5.3125 q -0.6094,0 -0.9141,0.2031 -0.3047,0.2032 -0.3047,0.5938 0,0.375 0.25,0.5781 0.25,0.2031 0.6719,0.2031 0.5469,0 0.9219,-0.3906 0.375,-0.3906 0.375,-0.9687 l 0,-0.2188 -1,0 z m 2.9375,-0.7344 0,3.4375 -1.9375,0 0,-0.8906 q -0.3906,0.5469 -0.875,0.7969 -0.4844,0.25 -1.1719,0.25 -0.9375,0 -1.5234,-0.5469 -0.5859,-0.5469 -0.5859,-1.4219 0,-1.0468 0.7265,-1.539 0.7266,-0.4922 2.2891,-0.4922 l 1.1406,0 0,-0.1563 q 0,-0.4531 -0.3594,-0.664 -0.3594,-0.211 -1.125,-0.211 -0.625,0 -1.1562,0.1172 -0.5313,0.1172 -0.9844,0.3672 l 0,-1.4687 q 0.6094,-0.1407 1.2344,-0.2188 0.625,-0.0781 1.25,-0.0781 1.625,0 2.3515,0.6406 0.7266,0.6406 0.7266,2.0781 z m 6.8281,-0.9375 q -0.25,-0.125 -0.5,-0.1796 -0.25,-0.0547 -0.5,-0.0547 -0.75,0 -1.1484,0.4765 -0.3984,0.4766 -0.3984,1.3672 l 0,2.7656 -1.9219,0 0,-6.0156 1.9219,0 0,0.9844 q 0.375,-0.5938 0.8515,-0.8594 0.4766,-0.2656 1.1485,-0.2656 0.1093,0 0.2187,0.008 0.1094,0.008 0.3281,0.0234 l 0,1.75 z m 0.5313,-1.6406 1.9219,0 0,6.0156 -1.9219,0 0,-6.0156 z m 0,-2.3437 1.9219,0 0,1.5625 -1.9219,0 0,-1.5625 z m 6.7031,5.6562 q -0.6094,0 -0.9141,0.2031 -0.3047,0.2032 -0.3047,0.5938 0,0.375 0.25,0.5781 0.25,0.2031 0.6719,0.2031 0.5469,0 0.9219,-0.3906 0.375,-0.3906 0.375,-0.9687 l 0,-0.2188 -1,0 z m 2.9375,-0.7344 0,3.4375 -1.9375,0 0,-0.8906 q -0.3906,0.5469 -0.875,0.7969 -0.4844,0.25 -1.1719,0.25 -0.9375,0 -1.5234,-0.5469 -0.5859,-0.5469 -0.5859,-1.4219 0,-1.0468 0.7265,-1.539 0.7266,-0.4922 2.2891,-0.4922 l 1.1406,0 0,-0.1563 q 0,-0.4531 -0.3594,-0.664 -0.3594,-0.211 -1.125,-0.211 -0.625,0 -1.1562,0.1172 -0.5313,0.1172 -0.9844,0.3672 l 0,-1.4687 q 0.6094,-0.1407 1.2344,-0.2188 0.625,-0.0781 1.25,-0.0781 1.625,0 2.3515,0.6406 0.7266,0.6406 0.7266,2.0781 z m 8.4063,-0.2187 0,3.6562 -1.9376,0 0,-0.5937 0,-2.2031 q 0,-0.7813 -0.0312,-1.0782 -0.0312,-0.2968 -0.125,-0.4375 -0.1094,-0.1875 -0.2969,-0.289 -0.1875,-0.1016 -0.4375,-0.1016 -0.6094,0 -0.9531,0.461 -0.3437,0.4609 -0.3437,1.289 l 0,2.9531 -1.9219,0 0,-6.0156 1.9219,0 0,0.875 q 0.4374,-0.5156 0.9296,-0.7656 0.4922,-0.25 1.0704,-0.25 1.0468,0 1.5859,0.6406 0.5391,0.6406 0.5391,1.8594 z m 4.0624,-4.0625 0,1.7031 1.9688,0 0,1.375 -1.9688,0 0,2.5469 q 0,0.4219 0.1641,0.5703 0.1641,0.1484 0.6485,0.1484 l 1,0 0,1.375 -1.6563,0 q -1.1406,0 -1.6172,-0.4765 -0.4765,-0.4766 -0.4765,-1.6172 l 0,-2.5469 -0.9532,0 0,-1.375 0.9532,0 0,-1.7031 1.9374,0 z m 3.2657,6.2969 1.8125,0 0,-5.1875 -1.875,0.3906 0,-1.4063 1.875,-0.3906 1.9687,0 0,6.5938 1.8125,0 0,1.4218 -5.5937,0 0,-1.4218 z"
     clip-path="url(#clipPath1)"
     id="path123"
     inkscape:connector-curvature="0"
     style="fill:#000000;stroke:none;stroke-linecap:butt;stroke-linejoin:round;text-rendering:geometricPrecision"
     transform="translate(-41.5,-41.5)" />
  <polygon
     points="81,150 77,157 85,157 "
     clip-path="url(#clipPath1)"
     id="polygon125"
     style="fill:none;stroke:#424242;stroke-linecap:butt;stroke-linejoin:round;text-rendering:geometricPrecision"
     transform="translate(-41.5,-41.5)" />
  <path
     d="m 81,157 0,25"
     clip-path="url(#clipPath1)"
     id="path127"
     inkscape:connector-curvature="0"
     style="fill:none;stroke:#424242;stroke-linecap:butt;stroke-linejoin:round;text-rendering:geometricPrecision"
     transform="translate(-41.5,-41.5)" />
  <polygon
     points="165,150 161,157 169,157 "
     clip-path="url(#clipPath1)"
     id="polygon129"
     style="fill:none;stroke:#424242;stroke-linecap:butt;stroke-linejoin:round;text-rendering:geometricPrecision"
     transform="translate(-41.5,-41.5)" />
  <path
     d="m 165,157 0,25"
     clip-path="url(#clipPath1)"
     id="path131"
     inkscape:connector-curvature="0"
     style="fill:none;stroke:#424242;stroke-linecap:butt;stroke-linejoin:round;text-rendering:geometricPrecision"
     transform="translate(-41.5,-41.5)" />
</svg>
