<?xml version="1.0" encoding="UTF-8" standalone="no"?>
<!-- Created with Inkscape (http://www.inkscape.org/) -->

<svg
   xmlns:dc="http://purl.org/dc/elements/1.1/"
   xmlns:cc="http://creativecommons.org/ns#"
   xmlns:rdf="http://www.w3.org/1999/02/22-rdf-syntax-ns#"
   xmlns:svg="http://www.w3.org/2000/svg"
   xmlns="http://www.w3.org/2000/svg"
   xmlns:sodipodi="http://sodipodi.sourceforge.net/DTD/sodipodi-0.dtd"
   xmlns:inkscape="http://www.inkscape.org/namespaces/inkscape"
   id="svg7007"
   version="1.1"
   inkscape:version="0.91 r13725"
   xml:space="preserve"
   width="1117.7346"
   height="151.94875"
   viewBox="0 0 1117.7346 151.94875"
   sodipodi:docname="ideal_flow.svg"><metadata
     id="metadata7013"><rdf:RDF><cc:Work
         rdf:about=""><dc:format>image/svg+xml</dc:format><dc:type
           rdf:resource="http://purl.org/dc/dcmitype/StillImage" /><dc:title></dc:title></cc:Work></rdf:RDF></metadata><defs
     id="defs7011" /><sodipodi:namedview
     pagecolor="#ffffff"
     bordercolor="#666666"
     borderopacity="1"
     objecttolerance="10"
     gridtolerance="10"
     guidetolerance="10"
     inkscape:pageopacity="0"
     inkscape:pageshadow="2"
     inkscape:window-width="1918"
     inkscape:window-height="1059"
     id="namedview7009"
     showgrid="false"
     fit-margin-top="0"
     fit-margin-left="0"
     fit-margin-right="0"
     fit-margin-bottom="0"
     inkscape:zoom="0.9827261"
     inkscape:cx="474.06944"
     inkscape:cy="8.0324884"
     inkscape:window-x="0"
     inkscape:window-y="19"
     inkscape:window-maximized="0"
     inkscape:current-layer="g7015" /><g
     id="g7015"
     inkscape:groupmode="layer"
     inkscape:label="ideal_flow"
     transform="matrix(1.25,0,0,-1.25,213.99973,151.94851)"><g
       transform="matrix(1,0,0,-1,0,121.55881)"
       id="g7019"
       style="fill:#e3dbdb"><path
         inkscape:connector-curvature="0"
         id="path7021"
         style="fill:#e3dbdb;fill-opacity:1;fill-rule:nonzero;stroke:#666666;stroke-width:2.99999404;stroke-linecap:butt;stroke-linejoin:round;stroke-miterlimit:14.33558846;stroke-dasharray:none;stroke-opacity:1"
         d="m 513.473,1.5 148.738,0 59.277,59.281 -59.277,59.278 -148.738,0 L 572.754,60.781 513.473,1.5 Z" /></g><g
       transform="matrix(1,0,0,-1,0,121.55881)"
       id="g7023"><path
         inkscape:connector-curvature="0"
         id="path7025"
         style="fill:#b6d7a8;fill-opacity:1;fill-rule:nonzero;stroke:#666666;stroke-width:2.99999404;stroke-linecap:butt;stroke-linejoin:round;stroke-miterlimit:14.33558846;stroke-dasharray:none;stroke-opacity:1"
         d="m 342.816,1.5 148.735,0 59.281,59.281 -59.281,59.278 -148.735,0 L 402.094,60.781 342.816,1.5 Z" /></g><g
       transform="matrix(1,0,0,-1,0,121.55881)"
       id="g7027"><path
         inkscape:connector-curvature="0"
         id="path7029"
         style="fill:#a4c2f4;fill-opacity:1;fill-rule:nonzero;stroke:#666666;stroke-width:2.99999404;stroke-linecap:butt;stroke-linejoin:round;stroke-miterlimit:14.33558846;stroke-dasharray:none;stroke-opacity:1"
         d="m 172.156,1.5 148.739,0 59.277,59.281 -59.277,59.278 -148.739,0 L 231.438,60.781 172.156,1.5 Z" /></g><g
       transform="matrix(1,0,0,-1,0,121.55881)"
       id="g7031"><path
         inkscape:connector-curvature="0"
         id="path7033"
         style="fill:#ffd966;fill-opacity:1;fill-rule:nonzero;stroke:#666666;stroke-width:2.99999404;stroke-linecap:butt;stroke-linejoin:round;stroke-miterlimit:14.33558846;stroke-dasharray:none;stroke-opacity:1"
         d="m 1.5,1.5 148.734,0 59.282,59.281 -59.282,59.278 -148.734,0 L 60.777,60.781 1.5,1.5 Z" /></g><text
       id="text7035"
       style="font-variant:normal;font-weight:normal;font-size:17.99996376px;font-family:'DejaVu Sans';-inkscape-font-specification:DejaVuSans;writing-mode:lr-tb;fill:#000000;fill-opacity:1;fill-rule:nonzero;stroke:none"
       transform="scale(1,-1)"
       x="71.849731"
       y="-53.684124"><tspan
         id="tspan7037"
         sodipodi:role="line"
         y="-53.684124"
         x="71.849731 84.827705 93.809692 103.81767 108.78566 121.78163 131.77161 140.7536 258.65335 273.64734 283.63733 293.62729 303.61728 307.59528 317.60324">Use CaseMapping</tspan><tspan
         id="tspan7039"
         sodipodi:role="line"
         y="-64.994598"
         x="440.29288 451.27286 461.26282 470.24481">Test</tspan><tspan
         id="tspan7041"
         sodipodi:role="line"
         y="-43.244648"
         x="413.26654 427.19852 437.24249 447.23248 457.24045 463.23444 473.22443 478.21042 482.18842 492.17841">Generation</tspan><tspan
         id="tspan7045"
         sodipodi:role="line"
         x="71.849731"
         y="0" /></text>
<g
       id="g7601"
       transform="matrix(1,0,0,-1,-171.2,121.55881)"
       style="fill:#ff9955"><path
         d="m 1.5,1.5 148.734,0 59.282,59.281 -59.282,59.278 -148.734,0 L 60.777,60.781 1.5,1.5 Z"
         style="fill:#ff9955;fill-opacity:1;fill-rule:nonzero;stroke:#666666;stroke-width:2.99999404;stroke-linecap:butt;stroke-linejoin:round;stroke-miterlimit:14.33558846;stroke-dasharray:none;stroke-opacity:1"
         id="path7603"
         inkscape:connector-curvature="0" /></g><text
       y="-53.684124"
       x="599.84973"
       transform="scale(1,-1)"
       style="font-variant:normal;font-weight:normal;font-size:17.99996376px;font-family:'DejaVu Sans';-inkscape-font-specification:DejaVuSans;writing-mode:lr-tb;fill:#000000;fill-opacity:1;fill-rule:nonzero;stroke:none"
       id="text7613"><tspan
         y="-53.684124"
         x="599.84973"
         sodipodi:role="line"
         id="tspan7621">Report</tspan></text>
<text
       id="text7632"
       style="font-variant:normal;font-weight:normal;font-size:17.99996376px;font-family:'DejaVu Sans';-inkscape-font-specification:DejaVuSans;writing-mode:lr-tb;fill:#000000;fill-opacity:1;fill-rule:nonzero;stroke:none"
       transform="scale(1,-1)"
       x="-104.15027"
       y="-53.684124"><tspan
         id="tspan7634"
         sodipodi:role="line"
         x="-104.15027"
         y="-53.684124">Requirement</tspan></text>
</g></svg>