<?xml version="1.0" encoding="UTF-8" standalone="no"?>
<!-- Created with Inkscape (http://www.inkscape.org/) -->

<svg
   xmlns:dc="http://purl.org/dc/elements/1.1/"
   xmlns:cc="http://creativecommons.org/ns#"
   xmlns:rdf="http://www.w3.org/1999/02/22-rdf-syntax-ns#"
   xmlns:svg="http://www.w3.org/2000/svg"
   xmlns="http://www.w3.org/2000/svg"
   xmlns:sodipodi="http://sodipodi.sourceforge.net/DTD/sodipodi-0.dtd"
   xmlns:inkscape="http://www.inkscape.org/namespaces/inkscape"
   id="svg4197"
   version="1.1"
   inkscape:version="0.91 r13725"
   xml:space="preserve"
   width="548.19769"
   height="58.922127"
   viewBox="0 0 548.19769 58.922127"
   sodipodi:docname="sor-model.svg"><metadata
     id="metadata4203"><rdf:RDF><cc:Work
         rdf:about=""><dc:format>image/svg+xml</dc:format><dc:type
           rdf:resource="http://purl.org/dc/dcmitype/StillImage" /><dc:title /></cc:Work></rdf:RDF></metadata><defs
     id="defs4201"><clipPath
       clipPathUnits="userSpaceOnUse"
       id="clipPath4213"><path
         d="m 0,0 365760,0 0,205740 L 0,205740 0,0 Z"
         id="path4215"
         inkscape:connector-curvature="0" /></clipPath></defs><sodipodi:namedview
     pagecolor="#ffffff"
     bordercolor="#666666"
     borderopacity="1"
     objecttolerance="10"
     gridtolerance="10"
     guidetolerance="10"
     inkscape:pageopacity="0"
     inkscape:pageshadow="2"
     inkscape:window-width="958"
     inkscape:window-height="1059"
     id="namedview4199"
     showgrid="false"
     inkscape:zoom="3.0844444"
     inkscape:cx="290.82978"
     inkscape:cy="116.20513"
     inkscape:window-x="0"
     inkscape:window-y="19"
     inkscape:window-maximized="0"
     inkscape:current-layer="g4233"
     fit-margin-top="0"
     fit-margin-left="0"
     fit-margin-right="0"
     fit-margin-bottom="0" /><g
     id="g4205"
     inkscape:groupmode="layer"
     inkscape:label="Masters figures(2)"
     transform="matrix(1.25,0,0,-1.25,-163.96867,313.08356)"><g
       id="g4223"
       transform="matrix(0.0019685,0,0,-0.0019685,0,405)"><g
         id="g4225"><path
           inkscape:connector-curvature="0"
           id="path4227"
           style="fill:#434343;fill-opacity:1;fill-rule:nonzero;stroke:none"
           d="m 128987,82748.08 0,0 c 0,-2134.07 1730.01,-3864.08 3864.08,-3864.08 l 74351.84,0 c 1024.81,0 2007.66,407.11 2732.31,1131.766 724.66,724.648 1131.77,1707.494 1131.77,2732.314 l 0,15455.84 c 0,2134.07 -1730,3864.08 -3864.08,3864.08 l -74351.84,0 c -2134.07,0 -3864.08,-1730.01 -3864.08,-3864.08 l 0,-15455.84 z" /></g><path
         inkscape:connector-curvature="0"
         id="path4229"
         style="fill:none;stroke:#b7b7b7;stroke-width:762;stroke-linecap:butt;stroke-linejoin:round;stroke-miterlimit:14.3355875;stroke-dasharray:none;stroke-opacity:1"
         d="m 128987,82748.08 0,0 c 0,-2134.07 1730.01,-3864.08 3864.08,-3864.08 l 74351.84,0 c 1024.81,0 2007.66,407.11 2732.31,1131.766 724.66,724.648 1131.77,1707.494 1131.77,2732.314 l 0,15455.84 c 0,2134.07 -1730,3864.08 -3864.08,3864.08 l -74351.84,0 c -2134.07,0 -3864.08,-1730.01 -3864.08,-3864.08 l 0,-15455.84 z" /></g><g
       transform="matrix(0.7499985,0,0,-0.7499985,0,405)"
       id="g4231"><g
         transform="translate(341.51904,210.01509)"
         id="g4233"><text
           id="text4235"
           style="font-variant:normal;font-weight:bold;font-size:18.66666603px;font-family:Arial;-inkscape-font-specification:Arial-BoldMT;writing-mode:lr-tb;fill:#ffffff;fill-opacity:1;fill-rule:nonzero;stroke:none"
           transform="translate(61.202667,34.374725)"><tspan
             id="tspan4237"
             sodipodi:role="line"
             y="0"
             x="0 14.504 21.765333 33.152 43.530666 54.917332 60.087997 70.466667"
             style="font-style:normal;font-variant:normal;font-weight:bold;font-stretch:normal;font-size:18.66670418px;font-family:'Liberation Sans';-inkscape-font-specification:'Liberation Sans Bold';fill:#ffffff;fill-opacity:1">Organism</tspan></text>
</g></g><g
       transform="matrix(0.7499985,0,0,-0.7499985,0,405)"
       id="g4239" /><g
       id="g4241"
       transform="matrix(0.0019685,0,0,-0.0019685,0,405)"><g
         id="g4243"><g
           id="g4245"><path
             inkscape:connector-curvature="0"
             id="path4247"
             style="fill:#000000;fill-opacity:0;fill-rule:nonzero;stroke:none"
             d="m 97703,90479 26220,0" /></g></g><path
         inkscape:connector-curvature="0"
         id="path4249"
         style="fill:none;stroke:#000000;stroke-width:762;stroke-linecap:butt;stroke-linejoin:round;stroke-miterlimit:14.3355875;stroke-dasharray:none;stroke-opacity:1"
         d="m 97703,90479 23608.56,0" /><path
         inkscape:connector-curvature="0"
         id="path4251"
         style="fill:#000000;fill-opacity:1;fill-rule:evenodd;stroke:#000000;stroke-width:762;stroke-linecap:butt;stroke-linejoin:miter;stroke-miterlimit:11.47371292;stroke-dasharray:none;stroke-opacity:1"
         d="m 121311.56,90479 -856.93,856.93 2354.4,-856.93 -2354.4,-856.93 856.93,856.93 z" /></g><g
       id="g4253"
       transform="matrix(0.0019685,0,0,-0.0019685,0,405)"><g
         id="g4255"><g
           id="g4257"><path
             inkscape:connector-curvature="0"
             id="path4259"
             style="fill:#000000;fill-opacity:0;fill-rule:nonzero;stroke:none"
             d="m 66637,82415 29304,0 0,16260 -29304,0 0,-16260 z" /></g></g></g><g
       transform="matrix(0.7499985,0,0,-0.7499985,0,405)"
       id="g4261"><g
         transform="translate(174.90027,216.31233)"
         id="g4263"><text
           id="text4265"
           style="font-variant:normal;font-weight:normal;font-size:18.66666603px;font-family:ArialMT;-inkscape-font-specification:ArialMT;writing-mode:lr-tb;fill:#000000;fill-opacity:1;fill-rule:nonzero;stroke:none"
           transform="translate(11.935528,26.919998)"><tspan
             id="tspan4267"
             sodipodi:role="line"
             y="0"
             x="0 12.431999 17.602667 21.746666 37.295998 47.674664 51.818665"
             style="font-style:normal;font-variant:normal;font-weight:normal;font-stretch:normal;font-size:18.66670418px;font-family:'Liberation Sans';-inkscape-font-specification:'Liberation Sans'">Stimuli</tspan></text>
</g></g><g
       transform="matrix(0.7499985,0,0,-0.7499985,0,405)"
       id="g4269" /><g
       id="g4271"
       transform="matrix(0.0019685,0,0,-0.0019685,0,405)"><g
         id="g4273"><g
           id="g4275"><path
             inkscape:connector-curvature="0"
             id="path4277"
             style="fill:#000000;fill-opacity:0;fill-rule:nonzero;stroke:none"
             d="m 217670,90410 25872,0" /></g></g><path
         inkscape:connector-curvature="0"
         id="path4279"
         style="fill:none;stroke:#000000;stroke-width:762;stroke-linecap:butt;stroke-linejoin:round;stroke-miterlimit:14.3355875;stroke-dasharray:none;stroke-opacity:1"
         d="m 217670,90410 23260.56,0" /><path
         inkscape:connector-curvature="0"
         id="path4281"
         style="fill:#000000;fill-opacity:1;fill-rule:evenodd;stroke:#000000;stroke-width:762;stroke-linecap:butt;stroke-linejoin:miter;stroke-miterlimit:11.47371292;stroke-dasharray:none;stroke-opacity:1"
         d="m 240930.56,90410 -856.94,856.93 2354.41,-856.93 -2354.41,-856.93 856.94,856.93 z" /></g><g
       id="g4285"
       transform="matrix(0.0019685,0,0,-0.0019685,0,405)"><g
         id="g4287"><path
           d="m 244113,82415 45312,0 0,16260 -45312,0 0,-16260 z"
           style="fill:#000000;fill-opacity:0;fill-rule:nonzero;stroke:none"
           id="path4289"
           inkscape:connector-curvature="0" /></g></g><g
       id="g4293"
       transform="matrix(0.7499985,0,0,-0.7499985,480.53645,242.76608)"><text
         transform="translate(9,26.919998)"
         style="font-variant:normal;font-weight:normal;font-size:18.66666603px;font-family:ArialMT;-inkscape-font-specification:ArialMT;writing-mode:lr-tb;fill:#000000;fill-opacity:1;fill-rule:nonzero;stroke:none"
         id="text4295"><tspan
           style="font-style:normal;font-variant:normal;font-weight:normal;font-stretch:normal;font-size:18.66670418px;font-family:'Liberation Sans';-inkscape-font-specification:'Liberation Sans'"
           x="0 13.477333 23.855999 33.189331 43.567997 53.946663 64.325333 73.658661"
           y="0"
           sodipodi:role="line"
           id="tspan4297">Response</tspan></text>
</g><g
       transform="matrix(0.7499985,0,0,-0.7499985,0,405)"
       id="g4299" /></g></svg>