<?xml version="1.0" encoding="UTF-8" standalone="no"?>
<svg
   xmlns:dc="http://purl.org/dc/elements/1.1/"
   xmlns:cc="http://creativecommons.org/ns#"
   xmlns:rdf="http://www.w3.org/1999/02/22-rdf-syntax-ns#"
   xmlns:svg="http://www.w3.org/2000/svg"
   xmlns="http://www.w3.org/2000/svg"
   xmlns:sodipodi="http://sodipodi.sourceforge.net/DTD/sodipodi-0.dtd"
   xmlns:inkscape="http://www.inkscape.org/namespaces/inkscape"
   width="4.2864585in"
   stroke-miterlimit="10"
   font-weight="normal"
   viewBox="0 0 411.5 158.5"
   height="1.6510416in"
   font-style="normal"
   font-size="12"
   id="svg2"
   version="1.1"
   inkscape:version="0.91 r13725"
   sodipodi:docname="system-state-machine-relations.svg"
   style="font-style:normal;font-weight:normal;font-size:12px;font-family:Dialog;color-interpolation:auto;fill:#000000;fill-opacity:1;stroke:#000000;stroke-width:1;stroke-linecap:square;stroke-linejoin:miter;stroke-miterlimit:10;stroke-dasharray:none;stroke-dashoffset:0;stroke-opacity:1;color-rendering:auto;image-rendering:auto;shape-rendering:auto;text-rendering:auto">
  <metadata
     id="metadata146">
    <rdf:RDF>
      <cc:Work
         rdf:about="">
        <dc:format>image/svg+xml</dc:format>
        <dc:type
           rdf:resource="http://purl.org/dc/dcmitype/StillImage" />
        <dc:title></dc:title>
      </cc:Work>
    </rdf:RDF>
  </metadata>
  <sodipodi:namedview
     pagecolor="#ffffff"
     bordercolor="#666666"
     borderopacity="1"
     objecttolerance="10"
     gridtolerance="10"
     guidetolerance="10"
     inkscape:pageopacity="0"
     inkscape:pageshadow="2"
     inkscape:window-width="958"
     inkscape:window-height="1059"
     id="namedview144"
     showgrid="false"
     fit-margin-top="0"
     fit-margin-left="0"
     fit-margin-right="0"
     fit-margin-bottom="0"
     inkscape:zoom="0.68178692"
     inkscape:cx="250.52024"
     inkscape:cy="101.44658"
     inkscape:window-x="0"
     inkscape:window-y="19"
     inkscape:window-maximized="0"
     inkscape:current-layer="svg2" />
  <!--Generated by the Batik Graphics2D SVG Generator
 This is MagicDraw diagram.-->
  <defs
     id="genericDefs">
    <defs
       id="defs1">
      <linearGradient
         spreadMethod="pad"
         id="linearGradient1"
         y2="134"
         y1="112"
         x2="450"
         gradientUnits="userSpaceOnUse"
         x1="350">
        <stop
           id="stop9"
           offset="0%"
           stop-color="rgb(255,255,204)"
           stop-opacity="1" />
        <stop
           id="stop11"
           offset="100%"
           stop-color="white"
           stop-opacity="1" />
      </linearGradient>
      <linearGradient
         spreadMethod="pad"
         id="linearGradient2"
         y2="211"
         y1="189"
         x2="317"
         gradientUnits="userSpaceOnUse"
         x1="217">
        <stop
           id="stop14"
           offset="0%"
           stop-color="rgb(255,255,204)"
           stop-opacity="1" />
        <stop
           id="stop16"
           offset="100%"
           stop-color="white"
           stop-opacity="1" />
      </linearGradient>
      <linearGradient
         spreadMethod="pad"
         id="linearGradient3"
         y2="134"
         y1="112"
         x2="317"
         gradientUnits="userSpaceOnUse"
         x1="217">
        <stop
           id="stop19"
           offset="0%"
           stop-color="rgb(255,255,204)"
           stop-opacity="1" />
        <stop
           id="stop21"
           offset="100%"
           stop-color="white"
           stop-opacity="1" />
      </linearGradient>
      <linearGradient
         spreadMethod="pad"
         id="linearGradient4"
         y2="135"
         y1="114"
         x2="108"
         gradientUnits="userSpaceOnUse"
         x1="42">
        <stop
           id="stop24"
           offset="0%"
           stop-color="rgb(255,255,204)"
           stop-opacity="1" />
        <stop
           id="stop26"
           offset="100%"
           stop-color="white"
           stop-opacity="1" />
      </linearGradient>
      <clipPath
         id="clipPath1"
         clipPathUnits="userSpaceOnUse">
        <path
           id="path29"
           d="m 0,-5 485,0 0,251 L 0,246 0,-5 Z"
           inkscape:connector-curvature="0" />
      </clipPath>
      <clipPath
         id="clipPath2"
         clipPathUnits="userSpaceOnUse">
        <path
           id="path32"
           d="M 263.9419,-22.7263 502.0437,376.6889 307.9193,492.4115 69.8175,92.9963 263.9419,-22.7263 Z"
           inkscape:connector-curvature="0" />
      </clipPath>
    </defs>
  </defs>
  <rect
     x="353"
     y="115"
     clip-path="url(#clipPath1)"
     width="100"
     rx="5"
     ry="5"
     height="22"
     id="rect66"
     style="fill:#b2b2b2;stroke:none;stroke-linecap:butt;stroke-linejoin:round;text-rendering:geometricPrecision"
     transform="translate(-41.5,-55.5)" />
  <rect
     x="350"
     y="112"
     clip-path="url(#clipPath1)"
     width="100"
     rx="5"
     ry="5"
     height="22"
     id="rect68"
     style="fill:url(#linearGradient1);stroke:none;stroke-linecap:butt;stroke-linejoin:round;text-rendering:geometricPrecision"
     transform="translate(-41.5,-55.5)" />
  <rect
     x="350"
     y="112"
     clip-path="url(#clipPath1)"
     width="100"
     rx="5"
     ry="5"
     height="22"
     id="rect70"
     style="fill:none;stroke:#99995c;stroke-linecap:butt;stroke-linejoin:round;text-rendering:geometricPrecision"
     transform="translate(-41.5,-55.5)" />
  <path
     d="m 388.0156,117.1948 2.0625,0 0,4.7969 q 0,1 0.3281,1.4297 0.3282,0.4297 1.0626,0.4297 0.7343,0 1.0624,-0.4297 0.3282,-0.4297 0.3282,-1.4297 l 0,-4.7969 2.0625,0 0,4.7969 q 0,1.7031 -0.8516,2.5391 -0.8515,0.8359 -2.6015,0.8359 -1.75,0 -2.6016,-0.8359 -0.8516,-0.836 -0.8516,-2.5391 l 0,-4.7969 z m 15.3594,7.5781 q -0.5781,0.2969 -1.1953,0.4454 -0.6172,0.1484 -1.2891,0.1484 -2,0 -3.1718,-1.1172 -1.1719,-1.1172 -1.1719,-3.0391 0,-1.9218 1.1719,-3.0468 1.1718,-1.125 3.1718,-1.125 0.6719,0 1.2891,0.1562 0.6172,0.1563 1.1953,0.4531 l 0,1.6563 q -0.5781,-0.3906 -1.1406,-0.5781 -0.5625,-0.1875 -1.1719,-0.1875 -1.1094,0 -1.7422,0.7109 -0.6328,0.7109 -0.6328,1.9609 0,1.2344 0.6328,1.9454 0.6328,0.7109 1.7422,0.7109 0.6094,0 1.1719,-0.1797 0.5625,-0.1797 1.1406,-0.5703 l 0,1.6562 z m 4.7969,-1.0781 3.5312,0 0,1.5156 -5.8281,0 0,-1.5156 2.9219,-2.5937 q 0.3906,-0.3438 0.5781,-0.6875 0.1875,-0.3438 0.1875,-0.7032 0,-0.5625 -0.375,-0.9062 -0.375,-0.3438 -1,-0.3438 -0.4844,0 -1.0625,0.2032 -0.5781,0.2031 -1.2344,0.6093 l 0,-1.75 q 0.7032,-0.2343 1.3828,-0.3593 0.6797,-0.125 1.336,-0.125 1.4375,0 2.2344,0.6406 0.7968,0.6406 0.7968,1.7656 0,0.6563 -0.3359,1.2266 -0.3359,0.5703 -1.4297,1.5078 l -1.7031,1.5156 z"
     clip-path="url(#clipPath1)"
     id="path72"
     inkscape:connector-curvature="0"
     style="fill:#000000;stroke:none;stroke-linecap:butt;stroke-linejoin:round;text-rendering:geometricPrecision"
     transform="translate(-41.5,-55.5)" />
  <rect
     x="220"
     y="192"
     clip-path="url(#clipPath1)"
     width="100"
     rx="5"
     ry="5"
     height="22"
     id="rect74"
     style="fill:#b2b2b2;stroke:none;stroke-linecap:butt;stroke-linejoin:round;text-rendering:geometricPrecision"
     transform="translate(-41.5,-55.5)" />
  <rect
     x="217"
     y="189"
     clip-path="url(#clipPath1)"
     width="100"
     rx="5"
     ry="5"
     height="22"
     id="rect76"
     style="fill:url(#linearGradient2);stroke:none;stroke-linecap:butt;stroke-linejoin:round;text-rendering:geometricPrecision"
     transform="translate(-41.5,-55.5)" />
  <rect
     x="217"
     y="189"
     clip-path="url(#clipPath1)"
     width="100"
     rx="5"
     ry="5"
     height="22"
     id="rect78"
     style="fill:none;stroke:#99995c;stroke-linecap:butt;stroke-linejoin:round;text-rendering:geometricPrecision"
     transform="translate(-41.5,-55.5)" />
  <path
     d="m 255.0156,194.1948 2.0625,0 0,4.7969 q 0,1 0.3281,1.4297 0.3282,0.4297 1.0626,0.4297 0.7343,0 1.0624,-0.4297 0.3282,-0.4297 0.3282,-1.4297 l 0,-4.7969 2.0625,0 0,4.7969 q 0,1.7031 -0.8516,2.5391 -0.8515,0.8359 -2.6015,0.8359 -1.75,0 -2.6016,-0.8359 -0.8516,-0.836 -0.8516,-2.5391 l 0,-4.7969 z m 15.3594,7.5781 q -0.5781,0.2969 -1.1953,0.4454 -0.6172,0.1484 -1.2891,0.1484 -2,0 -3.1718,-1.1172 -1.1719,-1.1172 -1.1719,-3.0391 0,-1.9218 1.1719,-3.0468 1.1718,-1.125 3.1718,-1.125 0.6719,0 1.2891,0.1562 0.6172,0.1563 1.1953,0.4531 l 0,1.6563 q -0.5781,-0.3906 -1.1406,-0.5781 -0.5625,-0.1875 -1.1719,-0.1875 -1.1094,0 -1.7422,0.7109 -0.6328,0.7109 -0.6328,1.9609 0,1.2344 0.6328,1.9454 0.6328,0.7109 1.7422,0.7109 0.6094,0 1.1719,-0.1797 0.5625,-0.1797 1.1406,-0.5703 l 0,1.6562 z m 6.75,-3.8906 q 0.8125,0.2188 1.2344,0.7344 0.4218,0.5156 0.4218,1.3125 0,1.2031 -0.914,1.8203 -0.9141,0.6172 -2.6641,0.6172 -0.625,0 -1.2422,-0.1016 -0.6171,-0.1015 -1.2265,-0.289 l 0,-1.6094 q 0.5781,0.2969 1.1484,0.4453 0.5703,0.1484 1.1328,0.1484 0.8125,0 1.25,-0.289 0.4375,-0.2891 0.4375,-0.8203 0,-0.5469 -0.4453,-0.8282 -0.4453,-0.2812 -1.3203,-0.2812 l -0.8281,0 0,-1.3281 0.875,0 q 0.7812,0 1.1562,-0.2422 0.375,-0.2422 0.375,-0.7422 0,-0.4688 -0.3672,-0.7188 -0.3672,-0.25 -1.039,-0.25 -0.5,0 -1.0156,0.1094 -0.5157,0.1094 -1.0157,0.3281 l 0,-1.5156 q 0.6094,-0.1719 1.211,-0.2578 0.6015,-0.0859 1.1797,-0.0859 1.5624,0 2.3437,0.5156 0.7813,0.5156 0.7813,1.5469 0,0.7031 -0.375,1.1562 -0.375,0.4531 -1.0938,0.625 z"
     clip-path="url(#clipPath1)"
     id="path80"
     inkscape:connector-curvature="0"
     style="fill:#000000;stroke:none;stroke-linecap:butt;stroke-linejoin:round;text-rendering:geometricPrecision"
     transform="translate(-41.5,-55.5)" />
  <rect
     x="220"
     y="115"
     clip-path="url(#clipPath1)"
     width="100"
     rx="5"
     ry="5"
     height="22"
     id="rect82"
     style="fill:#b2b2b2;stroke:none;stroke-linecap:butt;stroke-linejoin:round;text-rendering:geometricPrecision"
     transform="translate(-41.5,-55.5)" />
  <rect
     x="217"
     y="112"
     clip-path="url(#clipPath1)"
     width="100"
     rx="5"
     ry="5"
     height="22"
     id="rect84"
     style="fill:url(#linearGradient3);stroke:none;stroke-linecap:butt;stroke-linejoin:round;text-rendering:geometricPrecision"
     transform="translate(-41.5,-55.5)" />
  <rect
     x="217"
     y="112"
     clip-path="url(#clipPath1)"
     width="100"
     rx="5"
     ry="5"
     height="22"
     id="rect86"
     style="fill:none;stroke:#99995c;stroke-linecap:butt;stroke-linejoin:round;text-rendering:geometricPrecision"
     transform="translate(-41.5,-55.5)" />
  <path
     d="m 255.0156,117.1948 2.0625,0 0,4.7969 q 0,1 0.3281,1.4297 0.3282,0.4297 1.0626,0.4297 0.7343,0 1.0624,-0.4297 0.3282,-0.4297 0.3282,-1.4297 l 0,-4.7969 2.0625,0 0,4.7969 q 0,1.7031 -0.8516,2.5391 -0.8515,0.8359 -2.6015,0.8359 -1.75,0 -2.6016,-0.8359 -0.8516,-0.836 -0.8516,-2.5391 l 0,-4.7969 z m 15.3594,7.5781 q -0.5781,0.2969 -1.1953,0.4454 -0.6172,0.1484 -1.2891,0.1484 -2,0 -3.1718,-1.1172 -1.1719,-1.1172 -1.1719,-3.0391 0,-1.9218 1.1719,-3.0468 1.1718,-1.125 3.1718,-1.125 0.6719,0 1.2891,0.1562 0.6172,0.1563 1.1953,0.4531 l 0,1.6563 q -0.5781,-0.3906 -1.1406,-0.5781 -0.5625,-0.1875 -1.1719,-0.1875 -1.1094,0 -1.7422,0.7109 -0.6328,0.7109 -0.6328,1.9609 0,1.2344 0.6328,1.9454 0.6328,0.7109 1.7422,0.7109 0.6094,0 1.1719,-0.1797 0.5625,-0.1797 1.1406,-0.5703 l 0,1.6562 z m 2.9219,-0.9843 1.8125,0 0,-5.1875 -1.875,0.3906 0,-1.4063 1.875,-0.3906 1.9687,0 0,6.5938 1.8125,0 0,1.4218 -5.5937,0 0,-1.4218 z"
     clip-path="url(#clipPath1)"
     id="path88"
     inkscape:connector-curvature="0"
     style="fill:#000000;stroke:none;stroke-linecap:butt;stroke-linejoin:round;text-rendering:geometricPrecision"
     transform="translate(-41.5,-55.5)" />
  <rect
     x="45"
     y="117"
     clip-path="url(#clipPath1)"
     width="66"
     rx="5"
     ry="5"
     height="21"
     id="rect90"
     style="fill:#b2b2b2;stroke:none;stroke-linecap:butt;stroke-linejoin:round;text-rendering:geometricPrecision"
     transform="translate(-41.5,-55.5)" />
  <rect
     x="42"
     y="114"
     clip-path="url(#clipPath1)"
     width="66"
     rx="5"
     ry="5"
     height="21"
     id="rect92"
     style="fill:url(#linearGradient4);stroke:none;stroke-linecap:butt;stroke-linejoin:round;text-rendering:geometricPrecision"
     transform="translate(-41.5,-55.5)" />
  <rect
     x="42"
     y="114"
     clip-path="url(#clipPath1)"
     width="66"
     rx="5"
     ry="5"
     height="21"
     id="rect94"
     style="fill:none;stroke:#99995c;stroke-linecap:butt;stroke-linejoin:round;text-rendering:geometricPrecision"
     transform="translate(-41.5,-55.5)" />
  <path
     d="m 56.375,126.7729 q -0.5781,0.2969 -1.1953,0.4454 -0.6172,0.1484 -1.2891,0.1484 -2,0 -3.1718,-1.1172 -1.1719,-1.1172 -1.1719,-3.0391 0,-1.9218 1.1719,-3.0468 1.1718,-1.125 3.1718,-1.125 0.6719,0 1.2891,0.1562 0.6172,0.1563 1.1953,0.4531 l 0,1.6563 q -0.5781,-0.3906 -1.1406,-0.5781 -0.5625,-0.1875 -1.1719,-0.1875 -1.1094,0 -1.7422,0.7109 -0.6328,0.7109 -0.6328,1.9609 0,1.2344 0.6328,1.9454 0.6328,0.7109 1.7422,0.7109 0.6094,0 1.1719,-0.1797 0.5625,-0.1797 1.1406,-0.5703 l 0,1.6562 z m 7.0156,-3.9375 q -0.25,-0.125 -0.5,-0.1796 -0.25,-0.0547 -0.5,-0.0547 -0.75,0 -1.1484,0.4765 -0.3984,0.4766 -0.3984,1.3672 l 0,2.7656 -1.9219,0 0,-6.0156 1.9219,0 0,0.9844 q 0.375,-0.5938 0.8515,-0.8594 0.4766,-0.2656 1.1485,-0.2656 0.1093,0 0.2187,0.008 0.1094,0.008 0.3281,0.0234 l 0,1.75 z m 6.5313,1.3438 0,0.5625 -4.4844,0 q 0.0625,0.6719 0.4844,1.0078 0.4219,0.3359 1.1719,0.3359 0.6093,0 1.2421,-0.1796 0.6329,-0.1797 1.3047,-0.5391 l 0,1.4844 q -0.6718,0.25 -1.3594,0.3828 -0.6874,0.1328 -1.3593,0.1328 -1.6407,0 -2.5469,-0.8281 -0.9062,-0.8282 -0.9062,-2.3282 0,-1.4687 0.8906,-2.3125 0.8906,-0.8437 2.4531,-0.8437 1.4063,0 2.2578,0.8516 0.8516,0.8515 0.8516,2.2734 z m -1.9688,-0.625 q 0,-0.5625 -0.3203,-0.8906 -0.3203,-0.3282 -0.8359,-0.3282 -0.5625,0 -0.9063,0.3125 -0.3437,0.3125 -0.4375,0.9063 l 2.5,0 z m 6.6719,0.9531 q -0.6094,0 -0.9141,0.2031 -0.3047,0.2032 -0.3047,0.5938 0,0.375 0.25,0.5781 0.25,0.2031 0.6719,0.2031 0.5469,0 0.9219,-0.3906 0.375,-0.3906 0.375,-0.9687 l 0,-0.2188 -1,0 z m 2.9375,-0.7344 0,3.4375 -1.9375,0 0,-0.8906 q -0.3906,0.5469 -0.875,0.7969 -0.4844,0.25 -1.1719,0.25 -0.9375,0 -1.5234,-0.5469 -0.5859,-0.5469 -0.5859,-1.4219 0,-1.0468 0.7265,-1.539 0.7266,-0.4922 2.2891,-0.4922 l 1.1406,0 0,-0.1563 q 0,-0.4531 -0.3594,-0.664 -0.3594,-0.211 -1.125,-0.211 -0.625,0 -1.1562,0.1172 -0.5313,0.1172 -0.9844,0.3672 l 0,-1.4687 q 0.6094,-0.1407 1.2344,-0.2188 0.625,-0.0781 1.25,-0.0781 1.625,0 2.3515,0.6406 0.7266,0.6406 0.7266,2.0781 z m 4.4687,-4.2812 0,1.7031 1.9688,0 0,1.375 -1.9688,0 0,2.5469 q 0,0.4219 0.1641,0.5703 0.1641,0.1484 0.6485,0.1484 l 1,0 0,1.375 -1.6563,0 q -1.1406,0 -1.6172,-0.4765 -0.4765,-0.4766 -0.4765,-1.6172 l 0,-2.5469 -0.9532,0 0,-1.375 0.9532,0 0,-1.7031 1.9374,0 z m 8.8907,4.6875 0,0.5625 -4.4844,0 q 0.0625,0.6719 0.4844,1.0078 0.4219,0.3359 1.1719,0.3359 0.6093,0 1.2421,-0.1796 0.6329,-0.1797 1.3047,-0.5391 l 0,1.4844 q -0.6718,0.25 -1.3594,0.3828 -0.6874,0.1328 -1.3593,0.1328 -1.6407,0 -2.5469,-0.8281 -0.9062,-0.8282 -0.9062,-2.3282 0,-1.4687 0.8906,-2.3125 0.8906,-0.8437 2.4531,-0.8437 1.4063,0 2.2578,0.8516 0.8516,0.8515 0.8516,2.2734 z m -1.9688,-0.625 q 0,-0.5625 -0.3203,-0.8906 -0.3203,-0.3282 -0.8359,-0.3282 -0.5625,0 -0.9063,0.3125 -0.3437,0.3125 -0.4375,0.9063 l 2.5,0 z m 8.0625,-1.4844 0,-3.2187 1.9375,0 0,8.3593 -1.9375,0 0,-0.875 q -0.3906,0.5313 -0.875,0.7813 -0.4844,0.25 -1.1094,0.25 -1.1093,0 -1.8203,-0.8828 -0.7109,-0.8828 -0.7109,-2.2735 0,-1.3906 0.7109,-2.2734 0.711,-0.8828 1.8203,-0.8828 0.625,0 1.1094,0.25 0.4844,0.25 0.875,0.7656 z m -1.2656,3.9063 q 0.6094,0 0.9375,-0.4532 0.3281,-0.4531 0.3281,-1.3125 0,-0.8593 -0.3281,-1.3125 -0.3281,-0.4531 -0.9375,-0.4531 -0.6094,0 -0.9375,0.4531 -0.3281,0.4532 -0.3281,1.3125 0,0.8594 0.3281,1.3125 0.3281,0.4532 0.9375,0.4532 z"
     clip-path="url(#clipPath1)"
     id="path96"
     inkscape:connector-curvature="0"
     style="fill:#000000;stroke:none;stroke-linecap:butt;stroke-linejoin:round;text-rendering:geometricPrecision"
     transform="translate(-41.5,-55.5)" />
  <line
     clip-path="url(#clipPath1)"
     x1="402"
     x2="414"
     y1="170"
     y2="182"
     id="line98"
     style="fill:none;stroke:#b2b2b2;stroke-linecap:butt;stroke-linejoin:round;text-rendering:geometricPrecision"
     transform="translate(-41.5,-55.5)" />
  <line
     clip-path="url(#clipPath1)"
     x1="414"
     x2="402"
     y1="170"
     y2="182"
     id="line100"
     style="fill:none;stroke:#b2b2b2;stroke-linecap:butt;stroke-linejoin:round;text-rendering:geometricPrecision"
     transform="translate(-41.5,-55.5)" />
  <line
     y2="181"
     x1="400"
     clip-path="url(#clipPath1)"
     x2="412"
     y1="169"
     id="line102"
     style="fill:none;stroke:#424242;stroke-linecap:butt;stroke-linejoin:round;text-rendering:geometricPrecision"
     transform="translate(-41.5,-55.5)" />
  <line
     y2="181"
     x1="412"
     clip-path="url(#clipPath1)"
     x2="400"
     y1="169"
     id="line104"
     style="fill:none;stroke:#424242;stroke-linecap:butt;stroke-linejoin:round;text-rendering:geometricPrecision"
     transform="translate(-41.5,-55.5)" />
  <circle
     r="9"
     clip-path="url(#clipPath1)"
     cx="75"
     cy="65"
     id="circle106"
     style="fill:#424242;stroke:none;stroke-linecap:butt;stroke-linejoin:round;text-rendering:geometricPrecision"
     transform="translate(-41.5,-55.5)" />
  <circle
     r="9"
     clip-path="url(#clipPath1)"
     cx="75"
     cy="65"
     id="circle108"
     style="fill:none;stroke:#424242;stroke-linecap:butt;stroke-linejoin:round;text-rendering:geometricPrecision"
     transform="translate(-41.5,-55.5)" />
  <path
     d="m 210,207 7,-4 -7,-4"
     clip-path="url(#clipPath1)"
     id="path110"
     inkscape:connector-curvature="0"
     style="fill:none;stroke:#424242;stroke-linecap:butt;stroke-linejoin:round;text-rendering:geometricPrecision"
     transform="translate(-41.5,-55.5)" />
  <path
     d="m 217,203 -130,0 c 0,0 -6,0 -6,-6 m 0,0 0,-62"
     clip-path="url(#clipPath1)"
     id="path112"
     inkscape:connector-curvature="0"
     style="fill:none;stroke:#424242;stroke-linecap:butt;stroke-linejoin:round;text-rendering:geometricPrecision"
     transform="translate(-41.5,-55.5)" />
  <path
     d="m 91.9531,191.1948 1.0938,0 0,4.875 q 0,1.2813 0.4687,1.8516 0.4688,0.5703 1.5156,0.5703 1.0469,0 1.5079,-0.5703 Q 97,197.3511 97,196.0698 l 0,-4.875 1.0938,0 0,5 q 0,1.5781 -0.7735,2.375 -0.7734,0.7969 -2.2891,0.7969 -1.5156,0 -2.2968,-0.7969 -0.7813,-0.7969 -0.7813,-2.375 l 0,-5 z m 11.9219,2.1719 0,0.9375 q -0.4219,-0.2188 -0.875,-0.3203 -0.4531,-0.1016 -0.9375,-0.1016 -0.7344,0 -1.1016,0.2266 -0.3671,0.2265 -0.3671,0.664 0,0.3438 0.2656,0.5391 0.2656,0.1953 1.0625,0.3828 l 0.3281,0.0781 q 1.0625,0.2188 1.5,0.6329 0.4375,0.414 0.4375,1.1484 0,0.8281 -0.6563,1.3203 -0.6562,0.4922 -1.8281,0.4922 -0.4843,0 -1.0078,-0.0938 -0.5234,-0.0937 -1.1015,-0.2812 l 0,-1.0156 q 0.5468,0.2812 1.0781,0.4218 0.5312,0.1407 1.0625,0.1407 0.6875,0 1.0625,-0.2422 0.375,-0.2422 0.375,-0.6641 0,-0.4062 -0.2657,-0.625 -0.2656,-0.2187 -1.1874,-0.4062 l -0.3438,-0.0938 q -0.9219,-0.1875 -1.3281,-0.5859 -0.4063,-0.3985 -0.4063,-1.1016 0,-0.8437 0.6016,-1.3047 0.6016,-0.4609 1.7109,-0.4609 0.5469,0 1.0313,0.0781 0.4844,0.0781 0.8906,0.2344 z m 8.3125,2.5937 0,0.4844 -4.5469,0 q 0.0625,1.0156 0.6094,1.5469 0.5469,0.5312 1.5312,0.5312 0.5782,0 1.1094,-0.1406 0.5313,-0.1406 1.0625,-0.4062 l 0,0.9218 q -0.5312,0.2344 -1.0937,0.3516 -0.5625,0.1172 -1.125,0.1172 -1.4532,0 -2.2891,-0.8359 -0.8359,-0.836 -0.8359,-2.2735 0,-1.4687 0.7968,-2.3359 0.7969,-0.8672 2.1563,-0.8672 1.2031,0 1.9141,0.7812 0.7109,0.7813 0.7109,2.125 z m -1,-0.2968 q 0,-0.8125 -0.4453,-1.2969 -0.4453,-0.4844 -1.1797,-0.4844 -0.8281,0 -1.3203,0.4688 -0.4922,0.4687 -0.5703,1.3125 l 3.5156,0 z m 12.8906,-3.8594 0,1.1562 q -0.5469,-0.5156 -1.164,-0.7656 -0.6172,-0.25 -1.3203,-0.25 -1.375,0 -2.1016,0.836 -0.7266,0.8359 -0.7266,2.4296 0,1.5782 0.7266,2.4219 0.7266,0.8438 2.1016,0.8438 0.7031,0 1.3203,-0.25 0.6171,-0.25 1.164,-0.7657 l 0,1.125 q -0.5625,0.3907 -1.1953,0.586 -0.6328,0.1953 -1.3516,0.1953 -1.8124,0 -2.8593,-1.1172 -1.0469,-1.1172 -1.0469,-3.0391 0,-1.9375 1.0469,-3.0546 1.0469,-1.1172 2.8593,-1.1172 0.7188,0 1.3594,0.1953 0.6406,0.1953 1.1875,0.5703 z m 4.6875,4.375 q -1.1875,0 -1.6484,0.2812 -0.461,0.2813 -0.461,0.9375 0,0.5157 0.3438,0.8282 0.3438,0.3125 0.9375,0.3125 0.8281,0 1.3203,-0.586 0.4922,-0.5859 0.4922,-1.539 l 0,-0.2344 -0.9844,0 z m 1.9688,-0.4063 0,3.4375 -0.9844,0 0,-0.9062 q -0.3281,0.5469 -0.8359,0.8047 -0.5079,0.2578 -1.2422,0.2578 -0.9219,0 -1.4688,-0.5156 -0.5469,-0.5157 -0.5469,-1.3907 0,-1.0156 0.6797,-1.5312 0.6797,-0.5156 2.0391,-0.5156 l 1.375,0 0,-0.0938 q 0,-0.6875 -0.4453,-1.0625 -0.4453,-0.375 -1.2578,-0.375 -0.5157,0 -1.0078,0.125 -0.4922,0.125 -0.9453,0.375 l 0,-0.9062 q 0.5468,-0.2188 1.0624,-0.3203 0.5157,-0.1016 0.9844,-0.1016 1.3125,0 1.9532,0.6719 0.6406,0.6718 0.6406,2.0468 z m 6.1406,-2.4062 0,0.9375 q -0.4219,-0.2188 -0.875,-0.3203 -0.4531,-0.1016 -0.9375,-0.1016 -0.7344,0 -1.1016,0.2266 -0.3671,0.2265 -0.3671,0.664 0,0.3438 0.2656,0.5391 0.2656,0.1953 1.0625,0.3828 l 0.3281,0.0781 q 1.0625,0.2188 1.5,0.6329 0.4375,0.414 0.4375,1.1484 0,0.8281 -0.6563,1.3203 -0.6562,0.4922 -1.8281,0.4922 -0.4843,0 -1.0078,-0.0938 -0.5234,-0.0937 -1.1015,-0.2812 l 0,-1.0156 q 0.5468,0.2812 1.0781,0.4218 0.5312,0.1407 1.0625,0.1407 0.6875,0 1.0625,-0.2422 0.375,-0.2422 0.375,-0.6641 0,-0.4062 -0.2657,-0.625 -0.2656,-0.2187 -1.1874,-0.4062 l -0.3438,-0.0938 q -0.9219,-0.1875 -1.3281,-0.5859 -0.4063,-0.3985 -0.4063,-1.1016 0,-0.8437 0.6016,-1.3047 0.6016,-0.4609 1.7109,-0.4609 0.5469,0 1.0313,0.0781 0.4844,0.0781 0.8906,0.2344 z m 8.3125,2.5937 0,0.4844 -4.5469,0 q 0.0625,1.0156 0.6094,1.5469 0.5469,0.5312 1.5312,0.5312 0.5782,0 1.1094,-0.1406 0.5313,-0.1406 1.0625,-0.4062 l 0,0.9218 q -0.5312,0.2344 -1.0937,0.3516 -0.5625,0.1172 -1.125,0.1172 -1.4532,0 -2.2891,-0.8359 -0.8359,-0.836 -0.8359,-2.2735 0,-1.4687 0.7968,-2.3359 0.7969,-0.8672 2.1563,-0.8672 1.2031,0 1.9141,0.7812 0.7109,0.7813 0.7109,2.125 z m -1,-0.2968 q 0,-0.8125 -0.4453,-1.2969 -0.4453,-0.4844 -1.1797,-0.4844 -0.8281,0 -1.3203,0.4688 -0.4922,0.4687 -0.5703,1.3125 l 3.5156,0 z m 10.2813,-0.7813 q 0.7812,0.1719 1.2187,0.6953 0.4375,0.5235 0.4375,1.3047 0,1.1875 -0.8203,1.836 -0.8203,0.6484 -2.3203,0.6484 -0.5156,0 -1.0469,-0.1016 -0.5313,-0.1015 -1.0937,-0.289 l 0,-1.0625 q 0.4531,0.2656 0.9843,0.4062 0.5313,0.1406 1.125,0.1406 1.0157,0 1.5469,-0.4062 0.5312,-0.4063 0.5312,-1.1719 0,-0.7187 -0.4921,-1.1172 -0.4922,-0.3984 -1.3829,-0.3984 l -0.9374,0 0,-0.8906 0.9843,0 q 0.7969,0 1.2188,-0.3203 0.4219,-0.3204 0.4219,-0.9141 0,-0.625 -0.4376,-0.9531 -0.4374,-0.3282 -1.25,-0.3282 -0.4374,0 -0.9531,0.0938 -0.5156,0.0937 -1.125,0.2969 l 0,-0.9688 q 0.625,-0.1719 1.1641,-0.2578 0.539,-0.0859 1.0078,-0.0859 1.2344,0 1.9609,0.5625 0.7266,0.5625 0.7266,1.5312 0,0.6563 -0.3828,1.1172 -0.3828,0.4609 -1.0859,0.6328 z"
     clip-path="url(#clipPath1)"
     id="path114"
     inkscape:connector-curvature="0"
     style="fill:#000000;stroke:none;stroke-linecap:butt;stroke-linejoin:round;text-rendering:geometricPrecision"
     transform="translate(-41.5,-55.5)" />
  <path
     d="m 224,105 4,7 4,-7"
     clip-path="url(#clipPath1)"
     id="path116"
     inkscape:connector-curvature="0"
     style="fill:none;stroke:#424242;stroke-linecap:butt;stroke-linejoin:round;text-rendering:geometricPrecision"
     transform="translate(-41.5,-55.5)" />
  <path
     d="m 228,112 0,-15 c 0,0 0,-6 -6,-6 m 0,0 -118,0 c 0,0 -6,0 -6,6 m 0,0 0,17"
     clip-path="url(#clipPath1)"
     id="path118"
     inkscape:connector-curvature="0"
     style="fill:none;stroke:#424242;stroke-linecap:butt;stroke-linejoin:round;text-rendering:geometricPrecision"
     transform="translate(-41.5,-55.5)" />
  <path
     d="m 129.9531,78.1948 1.0938,0 0,4.875 q 0,1.2813 0.4687,1.8516 0.4688,0.5703 1.5156,0.5703 1.0469,0 1.5079,-0.5703 Q 135,84.3511 135,83.0698 l 0,-4.875 1.0938,0 0,5 q 0,1.5781 -0.7735,2.375 -0.7734,0.7969 -2.2891,0.7969 -1.5156,0 -2.2968,-0.7969 -0.7813,-0.7969 -0.7813,-2.375 l 0,-5 z m 11.9219,2.1719 0,0.9375 q -0.4219,-0.2188 -0.875,-0.3203 -0.4531,-0.1016 -0.9375,-0.1016 -0.7344,0 -1.1016,0.2266 -0.3671,0.2265 -0.3671,0.664 0,0.3438 0.2656,0.5391 0.2656,0.1953 1.0625,0.3828 l 0.3281,0.0781 q 1.0625,0.2188 1.5,0.6329 0.4375,0.414 0.4375,1.1484 0,0.8281 -0.6563,1.3203 -0.6562,0.4922 -1.8281,0.4922 -0.4843,0 -1.0078,-0.0938 -0.5234,-0.0937 -1.1015,-0.2812 l 0,-1.0156 q 0.5468,0.2812 1.0781,0.4218 0.5312,0.1407 1.0625,0.1407 0.6875,0 1.0625,-0.2422 0.375,-0.2422 0.375,-0.6641 0,-0.4062 -0.2657,-0.625 -0.2656,-0.2187 -1.1874,-0.4062 l -0.3438,-0.0938 q -0.9219,-0.1875 -1.3281,-0.5859 -0.4063,-0.3985 -0.4063,-1.1016 0,-0.8437 0.6016,-1.3047 0.6016,-0.4609 1.7109,-0.4609 0.5469,0 1.0313,0.0781 0.4844,0.0781 0.8906,0.2344 z m 8.3125,2.5937 0,0.4844 -4.5469,0 q 0.0625,1.0156 0.6094,1.5469 0.5469,0.5312 1.5312,0.5312 0.5782,0 1.1094,-0.1406 0.5313,-0.1406 1.0625,-0.4062 l 0,0.9218 q -0.5312,0.2344 -1.0937,0.3516 -0.5625,0.1172 -1.125,0.1172 -1.4532,0 -2.2891,-0.8359 -0.8359,-0.836 -0.8359,-2.2735 0,-1.4687 0.7968,-2.3359 0.7969,-0.8672 2.1563,-0.8672 1.2031,0 1.9141,0.7812 0.7109,0.7813 0.7109,2.125 z m -1,-0.2968 q 0,-0.8125 -0.4453,-1.2969 -0.4453,-0.4844 -1.1797,-0.4844 -0.8281,0 -1.3203,0.4688 -0.4922,0.4687 -0.5703,1.3125 l 3.5156,0 z m 12.8906,-3.8594 0,1.1562 q -0.5469,-0.5156 -1.164,-0.7656 -0.6172,-0.25 -1.3203,-0.25 -1.375,0 -2.1016,0.836 -0.7266,0.8359 -0.7266,2.4296 0,1.5782 0.7266,2.4219 0.7266,0.8438 2.1016,0.8438 0.7031,0 1.3203,-0.25 0.6171,-0.25 1.164,-0.7657 l 0,1.125 q -0.5625,0.3907 -1.1953,0.586 -0.6328,0.1953 -1.3516,0.1953 -1.8124,0 -2.8593,-1.1172 -1.0469,-1.1172 -1.0469,-3.0391 0,-1.9375 1.0469,-3.0546 1.0469,-1.1172 2.8593,-1.1172 0.7188,0 1.3594,0.1953 0.6406,0.1953 1.1875,0.5703 z m 4.6875,4.375 q -1.1875,0 -1.6484,0.2812 -0.461,0.2813 -0.461,0.9375 0,0.5157 0.3438,0.8282 0.3438,0.3125 0.9375,0.3125 0.8281,0 1.3203,-0.586 0.4922,-0.5859 0.4922,-1.539 l 0,-0.2344 -0.9844,0 z m 1.9688,-0.4063 0,3.4375 -0.9844,0 0,-0.9062 q -0.3281,0.5469 -0.8359,0.8047 -0.5079,0.2578 -1.2422,0.2578 -0.9219,0 -1.4688,-0.5156 -0.5469,-0.5157 -0.5469,-1.3907 0,-1.0156 0.6797,-1.5312 0.6797,-0.5156 2.0391,-0.5156 l 1.375,0 0,-0.0938 q 0,-0.6875 -0.4453,-1.0625 -0.4453,-0.375 -1.2578,-0.375 -0.5157,0 -1.0078,0.125 -0.4922,0.125 -0.9453,0.375 l 0,-0.9062 q 0.5468,-0.2188 1.0624,-0.3203 0.5157,-0.1016 0.9844,-0.1016 1.3125,0 1.9532,0.6719 0.6406,0.6718 0.6406,2.0468 z m 6.1406,-2.4062 0,0.9375 q -0.4219,-0.2188 -0.875,-0.3203 -0.4531,-0.1016 -0.9375,-0.1016 -0.7344,0 -1.1016,0.2266 -0.3671,0.2265 -0.3671,0.664 0,0.3438 0.2656,0.5391 0.2656,0.1953 1.0625,0.3828 l 0.3281,0.0781 q 1.0625,0.2188 1.5,0.6329 0.4375,0.414 0.4375,1.1484 0,0.8281 -0.6563,1.3203 -0.6562,0.4922 -1.8281,0.4922 -0.4843,0 -1.0078,-0.0938 -0.5234,-0.0937 -1.1015,-0.2812 l 0,-1.0156 q 0.5468,0.2812 1.0781,0.4218 0.5312,0.1407 1.0625,0.1407 0.6875,0 1.0625,-0.2422 0.375,-0.2422 0.375,-0.6641 0,-0.4062 -0.2657,-0.625 -0.2656,-0.2187 -1.1874,-0.4062 l -0.3438,-0.0938 q -0.9219,-0.1875 -1.3281,-0.5859 -0.4063,-0.3985 -0.4063,-1.1016 0,-0.8437 0.6016,-1.3047 0.6016,-0.4609 1.7109,-0.4609 0.5469,0 1.0313,0.0781 0.4844,0.0781 0.8906,0.2344 z m 8.3125,2.5937 0,0.4844 -4.5469,0 q 0.0625,1.0156 0.6094,1.5469 0.5469,0.5312 1.5312,0.5312 0.5782,0 1.1094,-0.1406 0.5313,-0.1406 1.0625,-0.4062 l 0,0.9218 q -0.5312,0.2344 -1.0937,0.3516 -0.5625,0.1172 -1.125,0.1172 -1.4532,0 -2.2891,-0.8359 -0.8359,-0.836 -0.8359,-2.2735 0,-1.4687 0.7968,-2.3359 0.7969,-0.8672 2.1563,-0.8672 1.2031,0 1.9141,0.7812 0.7109,0.7813 0.7109,2.125 z m -1,-0.2968 q 0,-0.8125 -0.4453,-1.2969 -0.4453,-0.4844 -1.1797,-0.4844 -0.8281,0 -1.3203,0.4688 -0.4922,0.4687 -0.5703,1.3125 l 3.5156,0 z m 7.1719,2.6406 1.7812,0 0,-6.125 -1.9375,0.3906 0,-0.9844 1.9219,-0.3906 1.0938,0 0,7.1094 1.7656,0 0,0.9062 -4.625,0 0,-0.9062 z"
     clip-path="url(#clipPath1)"
     id="path120"
     inkscape:connector-curvature="0"
     style="fill:#000000;stroke:none;stroke-linecap:butt;stroke-linejoin:round;text-rendering:geometricPrecision"
     transform="translate(-41.5,-55.5)" />
  <path
     d="m 390,179 7,-4 -7,-4"
     clip-path="url(#clipPath1)"
     id="path122"
     inkscape:connector-curvature="0"
     style="fill:none;stroke:#424242;stroke-linecap:butt;stroke-linejoin:round;text-rendering:geometricPrecision"
     transform="translate(-41.5,-55.5)" />
  <path
     d="m 397,175 -111,0 c 0,0 -6,0 -6,-6 m 0,0 0,-35"
     clip-path="url(#clipPath1)"
     id="path124"
     inkscape:connector-curvature="0"
     style="fill:none;stroke:#424242;stroke-linecap:butt;stroke-linejoin:round;text-rendering:geometricPrecision"
     transform="translate(-41.5,-55.5)" />
  <path
     d="m 371,105 4,7 4,-7"
     clip-path="url(#clipPath1)"
     id="path126"
     inkscape:connector-curvature="0"
     style="fill:none;stroke:#424242;stroke-linecap:butt;stroke-linejoin:round;text-rendering:geometricPrecision"
     transform="translate(-41.5,-55.5)" />
  <path
     d="m 375,112 0,-18 c 0,0 0,-6 -6,-6 m 0,0 -86,0 c 0,0 -6,0 -6,6 m 0,0 0,18"
     clip-path="url(#clipPath1)"
     id="path128"
     inkscape:connector-curvature="0"
     style="fill:none;stroke:#424242;stroke-linecap:butt;stroke-linejoin:round;text-rendering:geometricPrecision"
     transform="translate(-41.5,-55.5)" />
  <path
     d="m 293.9531,75.1948 1.0938,0 0,4.875 q 0,1.2813 0.4687,1.8516 0.4688,0.5703 1.5156,0.5703 1.0469,0 1.5079,-0.5703 Q 299,81.3511 299,80.0698 l 0,-4.875 1.0938,0 0,5 q 0,1.5781 -0.7735,2.375 -0.7734,0.7969 -2.2891,0.7969 -1.5156,0 -2.2968,-0.7969 -0.7813,-0.7969 -0.7813,-2.375 l 0,-5 z m 11.9219,2.1719 0,0.9375 q -0.4219,-0.2188 -0.875,-0.3203 -0.4531,-0.1016 -0.9375,-0.1016 -0.7344,0 -1.1016,0.2266 -0.3671,0.2265 -0.3671,0.664 0,0.3438 0.2656,0.5391 0.2656,0.1953 1.0625,0.3828 l 0.3281,0.0781 q 1.0625,0.2188 1.5,0.6329 0.4375,0.414 0.4375,1.1484 0,0.8281 -0.6563,1.3203 -0.6562,0.4922 -1.8281,0.4922 -0.4843,0 -1.0078,-0.0938 -0.5234,-0.0937 -1.1015,-0.2812 l 0,-1.0156 q 0.5468,0.2812 1.0781,0.4218 0.5312,0.1407 1.0625,0.1407 0.6875,0 1.0625,-0.2422 0.375,-0.2422 0.375,-0.6641 0,-0.4062 -0.2657,-0.625 -0.2656,-0.2187 -1.1874,-0.4062 l -0.3438,-0.0938 q -0.9219,-0.1875 -1.3281,-0.5859 -0.4063,-0.3985 -0.4063,-1.1016 0,-0.8437 0.6016,-1.3047 0.6016,-0.4609 1.7109,-0.4609 0.5469,0 1.0313,0.0781 0.4844,0.0781 0.8906,0.2344 z m 8.3125,2.5937 0,0.4844 -4.5469,0 q 0.0625,1.0156 0.6094,1.5469 0.5469,0.5312 1.5312,0.5312 0.5782,0 1.1094,-0.1406 0.5313,-0.1406 1.0625,-0.4062 l 0,0.9218 q -0.5312,0.2344 -1.0937,0.3516 -0.5625,0.1172 -1.125,0.1172 -1.4532,0 -2.2891,-0.8359 -0.8359,-0.836 -0.8359,-2.2735 0,-1.4687 0.7968,-2.3359 0.7969,-0.8672 2.1563,-0.8672 1.2031,0 1.9141,0.7812 0.7109,0.7813 0.7109,2.125 z m -1,-0.2968 q 0,-0.8125 -0.4453,-1.2969 -0.4453,-0.4844 -1.1797,-0.4844 -0.8281,0 -1.3203,0.4688 -0.4922,0.4687 -0.5703,1.3125 l 3.5156,0 z m 12.8906,-3.8594 0,1.1562 q -0.5469,-0.5156 -1.164,-0.7656 -0.6172,-0.25 -1.3203,-0.25 -1.375,0 -2.1016,0.836 -0.7266,0.8359 -0.7266,2.4296 0,1.5782 0.7266,2.4219 0.7266,0.8438 2.1016,0.8438 0.7031,0 1.3203,-0.25 0.6171,-0.25 1.164,-0.7657 l 0,1.125 q -0.5625,0.3907 -1.1953,0.586 -0.6328,0.1953 -1.3516,0.1953 -1.8124,0 -2.8593,-1.1172 -1.0469,-1.1172 -1.0469,-3.0391 0,-1.9375 1.0469,-3.0546 1.0469,-1.1172 2.8593,-1.1172 0.7188,0 1.3594,0.1953 0.6406,0.1953 1.1875,0.5703 z m 4.6875,4.375 q -1.1875,0 -1.6484,0.2812 -0.461,0.2813 -0.461,0.9375 0,0.5157 0.3438,0.8282 0.3438,0.3125 0.9375,0.3125 0.8281,0 1.3203,-0.586 0.4922,-0.5859 0.4922,-1.539 l 0,-0.2344 -0.9844,0 z m 1.9688,-0.4063 0,3.4375 -0.9844,0 0,-0.9062 q -0.3281,0.5469 -0.8359,0.8047 -0.5079,0.2578 -1.2422,0.2578 -0.9219,0 -1.4688,-0.5156 -0.5469,-0.5157 -0.5469,-1.3907 0,-1.0156 0.6797,-1.5312 0.6797,-0.5156 2.0391,-0.5156 l 1.375,0 0,-0.0938 q 0,-0.6875 -0.4453,-1.0625 -0.4453,-0.375 -1.2578,-0.375 -0.5157,0 -1.0078,0.125 -0.4922,0.125 -0.9453,0.375 l 0,-0.9062 q 0.5468,-0.2188 1.0624,-0.3203 0.5157,-0.1016 0.9844,-0.1016 1.3125,0 1.9532,0.6719 0.6406,0.6718 0.6406,2.0468 z m 6.1406,-2.4062 0,0.9375 q -0.4219,-0.2188 -0.875,-0.3203 -0.4531,-0.1016 -0.9375,-0.1016 -0.7344,0 -1.1016,0.2266 -0.3671,0.2265 -0.3671,0.664 0,0.3438 0.2656,0.5391 0.2656,0.1953 1.0625,0.3828 l 0.3281,0.0781 q 1.0625,0.2188 1.5,0.6329 0.4375,0.414 0.4375,1.1484 0,0.8281 -0.6563,1.3203 -0.6562,0.4922 -1.8281,0.4922 -0.4843,0 -1.0078,-0.0938 -0.5234,-0.0937 -1.1015,-0.2812 l 0,-1.0156 q 0.5468,0.2812 1.0781,0.4218 0.5312,0.1407 1.0625,0.1407 0.6875,0 1.0625,-0.2422 0.375,-0.2422 0.375,-0.6641 0,-0.4062 -0.2657,-0.625 -0.2656,-0.2187 -1.1874,-0.4062 l -0.3438,-0.0938 q -0.9219,-0.1875 -1.3281,-0.5859 -0.4063,-0.3985 -0.4063,-1.1016 0,-0.8437 0.6016,-1.3047 0.6016,-0.4609 1.7109,-0.4609 0.5469,0 1.0313,0.0781 0.4844,0.0781 0.8906,0.2344 z m 8.3125,2.5937 0,0.4844 -4.5469,0 q 0.0625,1.0156 0.6094,1.5469 0.5469,0.5312 1.5312,0.5312 0.5782,0 1.1094,-0.1406 0.5313,-0.1406 1.0625,-0.4062 l 0,0.9218 q -0.5312,0.2344 -1.0937,0.3516 -0.5625,0.1172 -1.125,0.1172 -1.4532,0 -2.2891,-0.8359 -0.8359,-0.836 -0.8359,-2.2735 0,-1.4687 0.7968,-2.3359 0.7969,-0.8672 2.1563,-0.8672 1.2031,0 1.9141,0.7812 0.7109,0.7813 0.7109,2.125 z m -1,-0.2968 q 0,-0.8125 -0.4453,-1.2969 -0.4453,-0.4844 -1.1797,-0.4844 -0.8281,0 -1.3203,0.4688 -0.4922,0.4687 -0.5703,1.3125 l 3.5156,0 z m 7.9219,2.6406 3.7812,0 0,0.9062 -5.0781,0 0,-0.9062 q 0.6094,-0.6406 1.6797,-1.7188 1.0703,-1.0781 1.3359,-1.3906 0.5157,-0.5937 0.7266,-1 0.2109,-0.4062 0.2109,-0.7969 0,-0.6406 -0.4453,-1.039 -0.4453,-0.3985 -1.1797,-0.3985 -0.5,0 -1.0703,0.1797 -0.5703,0.1797 -1.2109,0.5391 l 0,-1.0938 q 0.6562,-0.2656 1.2265,-0.4062 0.5703,-0.1406 1.0391,-0.1406 1.25,0 1.9922,0.625 0.7422,0.625 0.7422,1.6718 0,0.5 -0.1875,0.9375 -0.1875,0.4375 -0.6719,1.0469 -0.1406,0.1563 -0.8594,0.8985 -0.7187,0.7421 -2.0312,2.0859 z"
     clip-path="url(#clipPath1)"
     id="path130"
     inkscape:connector-curvature="0"
     style="fill:#000000;stroke:none;stroke-linecap:butt;stroke-linejoin:round;text-rendering:geometricPrecision"
     transform="translate(-41.5,-55.5)" />
  <path
     d="m 410,191 -4,-7 -4,7"
     clip-path="url(#clipPath1)"
     id="path132"
     inkscape:connector-curvature="0"
     style="fill:none;stroke:#424242;stroke-linecap:butt;stroke-linejoin:round;text-rendering:geometricPrecision"
     transform="translate(-41.5,-55.5)" />
  <path
     d="m 406,184 0,13 c 0,0 0,6 -6,6 m 0,0 -83,0"
     clip-path="url(#clipPath1)"
     id="path134"
     inkscape:connector-curvature="0"
     style="fill:none;stroke:#424242;stroke-linecap:butt;stroke-linejoin:round;text-rendering:geometricPrecision"
     transform="translate(-41.5,-55.5)" />
  <path
     d="m 71,107 4,7 4,-7"
     clip-path="url(#clipPath1)"
     id="path136"
     inkscape:connector-curvature="0"
     style="fill:none;stroke:#424242;stroke-linecap:butt;stroke-linejoin:round;text-rendering:geometricPrecision"
     transform="translate(-41.5,-55.5)" />
  <path
     d="M 75,114 75,74"
     clip-path="url(#clipPath1)"
     id="path138"
     inkscape:connector-curvature="0"
     style="fill:none;stroke:#424242;stroke-linecap:butt;stroke-linejoin:round;text-rendering:geometricPrecision"
     transform="translate(-41.5,-55.5)" />
  <path
     d="m 402,159 4,7 4,-7"
     clip-path="url(#clipPath1)"
     id="path140"
     inkscape:connector-curvature="0"
     style="fill:none;stroke:#424242;stroke-linecap:butt;stroke-linejoin:round;text-rendering:geometricPrecision"
     transform="translate(-41.5,-55.5)" />
  <path
     d="m 406,166 0,-32"
     clip-path="url(#clipPath1)"
     id="path142"
     inkscape:connector-curvature="0"
     style="fill:none;stroke:#424242;stroke-linecap:butt;stroke-linejoin:round;text-rendering:geometricPrecision"
     transform="translate(-41.5,-55.5)" />
</svg>
