<?xml version="1.0" encoding="UTF-8" standalone="no"?>
<!-- Created with Inkscape (http://www.inkscape.org/) -->

<svg
   xmlns:dc="http://purl.org/dc/elements/1.1/"
   xmlns:cc="http://creativecommons.org/ns#"
   xmlns:rdf="http://www.w3.org/1999/02/22-rdf-syntax-ns#"
   xmlns:svg="http://www.w3.org/2000/svg"
   xmlns="http://www.w3.org/2000/svg"
   xmlns:sodipodi="http://sodipodi.sourceforge.net/DTD/sodipodi-0.dtd"
   xmlns:inkscape="http://www.inkscape.org/namespaces/inkscape"
   width="297.17905"
   height="85.382378"
   id="svg2"
   version="1.1"
   inkscape:version="0.48.0 r9654"
   sodipodi:docname="New document 1">
  <defs
     id="defs4" />
  <sodipodi:namedview
     id="base"
     pagecolor="#ffffff"
     bordercolor="#666666"
     borderopacity="1.0"
     inkscape:pageopacity="0.0"
     inkscape:pageshadow="2"
     inkscape:zoom="0.98994949"
     inkscape:cx="132.27279"
     inkscape:cy="97.566382"
     inkscape:document-units="px"
     inkscape:current-layer="layer1"
     showgrid="false"
     fit-margin-top="0"
     fit-margin-left="0"
     fit-margin-right="0"
     fit-margin-bottom="0"
     inkscape:window-width="931"
     inkscape:window-height="665"
     inkscape:window-x="44"
     inkscape:window-y="30"
     inkscape:window-maximized="0" />
  <metadata
     id="metadata7">
    <rdf:RDF>
      <cc:Work
         rdf:about="">
        <dc:format>image/svg+xml</dc:format>
        <dc:type
           rdf:resource="http://purl.org/dc/dcmitype/StillImage" />
        <dc:title></dc:title>
      </cc:Work>
    </rdf:RDF>
  </metadata>
  <g
     inkscape:label="Layer 1"
     inkscape:groupmode="layer"
     id="layer1"
     transform="translate(-242.72721,-822.0474)">
    <path
       style="fill:none;stroke:#000000;stroke-width:1px;stroke-linecap:butt;stroke-linejoin:miter;stroke-opacity:1"
       d="m 7.0710678,36.148722 c 0.1800331,4.03499 -0.2520463,8.089089 0,12.121831 0.865547,13.848752 1.6826753,4.735027 1.0101526,20.20305 -0.2023768,7.778225 -1.6673183,15.4678 -2.0203051,23.233509 -0.9060797,19.933758 1.1963682,2.457777 -1.0101526,21.213208 -0.2781934,2.36464 -0.8124252,4.69834 -1.0101525,7.07106 -0.1398144,1.67778 0.2380952,3.3841 0,5.05077 -0.1505847,1.05409 -1.7630758,2.27753 -1.0101526,3.03045 0.2380953,0.2381 0.7089833,0.15059 1.0101526,0 0.4259177,-0.21296 0.673435,-0.67343 1.0101525,-1.01015 6.8773283,-6.87733 -3.6051628,3.86931 4.0406102,-5.05076 2.7891061,-3.25396 6.2084891,-5.9202 9.0913731,-9.09137 3.98374,-4.38212 5.537206,-7.37724 10.101525,-11.11168 11.492847,-7.6619 0.96014,-0.0678 11.111678,-9.091375 1.258329,-1.118515 2.639781,-2.096572 4.04061,-3.030458 0.62647,-0.417647 1.393836,-0.592506 2.020306,-1.010153 0.396214,-0.264143 1.010152,-1.486343 1.010152,-1.010152 0,0.770661 -2.751922,4.605106 -3.030458,5.050763 -1.040591,1.664946 -2.041165,3.354833 -3.030457,5.050762 -1.367861,2.344903 -2.617841,4.759073 -4.04061,7.071073 -1.272564,2.06791 -2.877908,3.92929 -4.040611,6.06091 -0.868292,1.59187 -1.209381,3.42892 -2.020305,5.05076 -0.54294,1.08588 -1.569417,1.90324 -2.020305,3.03046 -0.250107,0.62527 0,1.34687 0,2.02031 0,0.33671 -0.301169,0.85956 0,1.01015 1.386614,0.69331 2.968249,-0.47397 4.04061,-1.01015 1.346871,-0.67344 2.693741,-1.34687 4.040611,-2.02031 3.925318,-1.96266 7.693224,-4.4181 12.12183,-5.05076 0.347156,-0.0496 5.721538,-0.16969 6.060915,0 4.623072,2.31153 -4.286498,-0.41868 3.030458,2.0203 0.319438,0.10648 0.673435,0 1.010153,0 1.010152,0 2.020305,0 3.030457,0 1.34687,0 2.69374,0 4.04061,0 1.010153,0 2.030458,0.14286 3.030458,0 1.374369,-0.19634 2.69374,-0.67343 4.04061,-1.01015 1.683588,0 3.375531,0.16752 5.050763,0 5.823923,-0.58239 5.053088,-1.51581 11.111678,-3.03046 1.987019,-0.49675 4.065194,-0.5496 6.060915,-1.01015 6.183291,-1.42691 9.127571,-3.11651 13.131981,-4.04061 2.31998,-0.53538 4.7178,-0.64811 7.07107,-1.01015 2.02436,-0.31144 4.01274,-1.01015 6.06092,-1.01015 1.71692,0 3.34433,0.82054 5.05076,1.01015 1.33863,0.14873 2.70042,-0.13402 4.04061,0 2.03801,0.2038 4.02291,0.80635 6.06091,1.01015 1.34019,0.13402 2.69374,0 4.04061,0 0.021,0 5.04052,0 6.06092,0"
       id="path3071"
       inkscape:connector-curvature="0" />
    <path
       style="fill:none;stroke:#000000;stroke-width:1px;stroke-linecap:butt;stroke-linejoin:miter;stroke-opacity:1"
       d="m 186.87822,96.757875 c 12.1033,1.34481 6.04227,1.010152 18.18275,1.010152"
       id="path3073"
       inkscape:connector-curvature="0" />
    <path
       style="fill:none;stroke:#000000;stroke-width:1px;stroke-linecap:butt;stroke-linejoin:miter;stroke-opacity:1"
       d="m 37.375644,169.48886 c 0,11.25761 -0.335335,11.01096 1.010153,22.22335 0.567358,4.72799 1.513004,9.40733 2.020305,14.14214 0.503481,4.69916 0.64768,9.43 1.010152,14.14214 0.310975,4.04267 0.817294,8.0718 1.010153,12.12183 0.24024,5.04504 0,10.10152 0,15.15228 0,4.93503 -0.655141,3.38547 2.020305,6.06092 0.336718,0.33672 0.533962,1.01015 1.010153,1.01015 0.336717,0 -0.10648,-0.69071 0,-1.01015 0.238095,-0.71429 0.673435,-1.34687 1.010152,-2.02031 0.673435,-1.34687 1.245554,-2.74935 2.020305,-4.04061 3.224593,-5.37432 0.677208,-0.81265 5.050763,-6.06091 0.777217,-0.93266 1.16184,-2.17199 2.020305,-3.03046 1.190476,-1.19048 2.850134,-1.83998 4.04061,-3.03046 2.800783,-2.80078 2.762177,-4.87191 6.060915,-7.07106 0.885963,-0.59065 2.041821,-0.6147 3.030458,-1.01016 0.699072,-0.27963 1.267382,-1.01015 2.020305,-1.01015 0.336718,0 0.08167,0.68349 0,1.01015 -0.25825,1.03301 -0.717631,2.00664 -1.010152,3.03046 -2.502478,8.75867 1.147393,-1.31208 -4.040611,10.10153 -0.75034,1.65074 -1.209381,3.42891 -2.020305,5.05076 -3.669725,7.33945 -0.28235,-0.58663 -4.04061,5.05076 -0.186777,0.28017 -0.238095,0.77206 0,1.01015 0.238095,0.2381 0.673435,0 1.010153,0 1.010152,0 2.050465,0.245 3.030457,0 1.75914,-0.43978 3.400014,-1.26996 5.050763,-2.0203 2.056308,-0.93469 4.04061,-2.02031 6.060915,-3.03046 2.357023,-1.34687 4.606228,-2.90299 7.071068,-4.04061 1.93358,-0.89242 4.122209,-1.13907 6.060915,-2.0203 1.787399,-0.81246 3.256601,-2.23306 5.050763,-3.03046 0.01961,-0.009 7.975606,-1.99013 8.081216,-2.02031 1.02383,-0.29252 1.98635,-0.80133 3.03046,-1.01015 0.66036,-0.13207 1.34687,0 2.02031,0 1.01015,0 2.03045,-0.14286 3.03045,0 5.40212,0.77173 2.59908,1.55837 8.08123,1.01015 8.42732,-0.84273 4.07637,-0.68833 12.12183,-4.04061 1.96577,-0.81907 4.04061,-1.34687 6.06091,-2.0203 2.02031,-0.67344 4.05954,-1.29253 6.06092,-2.02031 1.7041,-0.61967 3.29162,-1.58052 5.05076,-2.0203 7.56676,-1.89169 -0.69302,1.86173 5.05076,-1.01015"
       id="path3075"
       inkscape:connector-curvature="0" />
    <path
       style="fill:none;stroke:#000000;stroke-width:1px;stroke-linecap:butt;stroke-linejoin:miter;stroke-opacity:1"
       d="m 263.64981,265.45335 c -1.34687,0.33672 -2.69374,0.67343 0,0 z"
       id="path3077"
       inkscape:connector-curvature="0" />
    <path
       style="fill:none;stroke:#000000;stroke-width:1px;stroke-linecap:butt;stroke-linejoin:miter;stroke-opacity:1"
       d="m 240.41631,217.97618 -18.18275,79.80205"
       id="path3079"
       inkscape:connector-curvature="0" />
    <path
       style="fill:none;stroke:#000000;stroke-width:1px;stroke-linecap:butt;stroke-linejoin:miter;stroke-opacity:1"
       d="m 289.91378,240.19954 c -3.82591,8.10717 -6.26365,16.77063 -9.09137,25.25381 -1.44548,4.33643 -3.96406,11.4534 -5.05077,16.16244 -0.46055,1.99572 -0.78396,4.02527 -1.01015,6.06092 -0.2231,2.00794 0.49,4.10093 0,6.06091 -1.24825,4.99299 -1.01015,-2.11397 -1.01015,2.02031 0,2.69374 0.33672,-0.33672 -1.01015,1.01015 -0.2381,0.23809 0.23809,0.77206 0,1.01015 -0.2381,0.2381 -0.77206,0.2381 -1.01016,0 -0.23809,-0.23809 -0.18677,-0.72999 0,-1.01015 0.52829,-0.79243 1.42536,-1.27662 2.02031,-2.02031 0.75841,-0.94801 1.23021,-2.10868 2.0203,-3.03045 1.23961,-1.44621 2.69375,-2.69374 4.04062,-4.04061 5.56516,-5.56517 2.55324,-2.85072 9.09137,-8.08122 0.21261,-0.1701 8.13046,-6.59062 9.09137,-7.07107 1.24175,-0.62088 2.72353,-0.57113 4.04061,-1.01015 0.62505,-0.20836 3.05408,-1.99669 4.04061,-1.01016 0.47619,0.47619 0,1.34687 0,2.02031 0,1.01015 0,2.0203 0,3.03046 0,1.34687 0.14874,2.70197 0,4.04061 -0.13344,1.20093 -1.52282,7.5989 -2.0203,9.09137 -0.0543,0.16304 -2.45578,4.04061 0,4.04061 0.75292,0 1.30602,-0.77206 2.0203,-1.01015 1.31708,-0.43903 2.79886,-0.38928 4.04061,-1.01016 18.653,-9.3265 -12.61214,3.80432 9.09137,-6.06091 1.93871,-0.88123 4.05955,-1.29253 6.06092,-2.02031 1.70411,-0.61967 3.33053,-1.44689 5.05076,-2.0203 1.49247,-0.49749 7.89044,-1.88687 9.09138,-2.02031 1.33863,-0.14873 2.70414,0.16706 4.04061,0 1.3776,-0.1722 2.663,-0.83795 4.04061,-1.01015 2.33882,-0.29235 4.74611,0.38749 7.07106,0 1.05031,-0.17505 1.98015,-0.8351 3.03046,-1.01015 1.66068,-0.27678 3.36718,0 5.05076,0 0.67344,0 1.36698,0.16333 2.02031,0 0.73044,-0.18261 1.28986,-0.82754 2.0203,-1.01015 0.65333,-0.16334 1.34687,0 2.02031,0 0.67343,0 1.34687,0 2.0203,0"
       id="path3081"
       inkscape:connector-curvature="0" />
    <path
       style="fill:none;stroke:#000000;stroke-width:1px;stroke-linecap:butt;stroke-linejoin:miter;stroke-opacity:1"
       d="m 366.68537,79.585281 24.24367,50.507629"
       id="path3083"
       inkscape:connector-curvature="0" />
    <path
       style="fill:none;stroke:#000000;stroke-width:1px;stroke-linecap:butt;stroke-linejoin:miter;stroke-opacity:1"
       d="m 379.81736,141.20459 c -1.01016,1.68358 -2.02031,3.36717 -3.03046,5.05076 -0.33672,1.01015 -0.53396,2.07808 -1.01015,3.03046 -0.54294,1.08588 -1.54207,1.91456 -2.02031,3.03045 -0.54689,1.27607 -0.46326,2.76455 -1.01015,4.04061 -0.47824,1.11589 -1.54207,1.91457 -2.02031,3.03046 -0.54688,1.27607 -0.46326,2.76454 -1.01015,4.04061 -0.47824,1.11589 -1.56942,1.90324 -2.0203,3.03046 -0.25011,0.62527 0.16333,1.36698 0,2.02031 -1.2195,4.87797 -0.48005,-0.0501 -2.02031,3.03045 -0.15058,0.30117 0.2381,0.77206 0,1.01016 -0.23809,0.23809 -0.67343,0 -1.01015,0"
       id="path3085"
       inkscape:connector-curvature="0" />
    <path
       style="fill:none;stroke:#000000;stroke-width:1px;stroke-linecap:butt;stroke-linejoin:miter;stroke-opacity:1"
       d="m 457.5991,139.18428 c -1.6378,5.73862 -2.35264,11.77636 -5.05076,17.17259 -0.87805,1.75611 -2.218,3.26337 -3.03046,5.05077 -0.88123,1.9387 -1.06792,4.15615 -2.0203,6.06091 -1.08588,2.17177 -2.88945,3.92304 -4.04061,6.06092 -3.2467,6.02958 -4.74849,12.80579 -7.07107,19.1929 -0.61968,1.7041 -1.38362,3.35293 -2.02031,5.05076 -0.37387,0.997 -0.59071,2.05176 -1.01015,3.03046 -0.59318,1.38409 -1.42712,2.65652 -2.0203,4.04061 -0.41945,0.9787 -0.53397,2.07807 -1.01016,3.03045 -0.54294,1.08589 -1.47736,1.94458 -2.0203,3.03046 -0.47619,0.95238 -0.53396,2.07808 -1.01015,3.03046 -3.66973,7.33945 -0.28235,-0.58663 -4.04061,5.05076 -0.8353,1.25294 -1.18502,2.78767 -2.02031,4.04061 -0.52828,0.79243 -1.49202,1.22788 -2.0203,2.02031 -0.8353,1.25294 -1.34687,2.69374 -2.02031,4.04061 -0.33672,0.67343 -0.5584,1.41796 -1.01015,2.0203 -0.57143,0.76191 -1.44888,1.2584 -2.02031,2.02031 -2.69374,5.38748 1.01016,-1.01015 -3.03045,3.03046 -0.2381,0.23809 0.15058,0.70898 0,1.01015 -0.21296,0.42592 -1.01016,1.48634 -1.01016,1.01015 0,-1.58157 2.29426,-3.12036 3.03046,-4.04061 0.75841,-0.94801 1.34687,-2.0203 2.02031,-3.03046 1.01015,-1.01015 2.10075,-1.9458 3.03045,-3.03045 8.08122,-10.77496 -2.35702,2.35702 7.07107,-7.07107 1.19048,-1.19048 1.92181,-2.77358 3.03046,-4.04061 1.95599,-2.23543 5.4116,-5.54557 8.08122,-7.07107 0.9245,-0.52829 2.04182,-0.6147 3.03046,-1.01015 1.57093,-0.62837 2.20806,-1.621 4.04061,-1.01016 0.45175,0.15059 0.61394,0.74601 1.01015,1.01016 0.62647,0.41764 1.39384,0.5925 2.02031,1.01015 1.54211,1.02808 1.48833,3.01253 3.03045,4.04061 0.62647,0.41765 1.39384,0.59251 2.02031,1.01015 0.39621,0.26415 0.61394,0.74601 1.01015,1.01016 0.92276,0.61517 2.45143,0.86224 3.03046,2.0203 0.15058,0.30117 -0.0817,0.68349 0,1.01015 0.33672,1.01016 0.67343,2.02031 1.01015,3.03046 0,0.67344 -0.16333,1.36698 0,2.02031 0.47869,1.91476 1.68876,2.6989 3.03046,4.04061 0.33672,0.33671 0.5584,0.85956 1.01015,1.01015 0.63888,0.21296 1.38143,-0.21296 2.02031,0 0.45175,0.15058 0.55839,0.85957 1.01015,1.01015 0.63887,0.21296 1.34687,0 2.0203,0 0.67344,0 1.34687,0 2.02031,0 1.68359,0 3.39008,0.27678 5.05076,0 1.05031,-0.17505 1.98015,-0.8351 3.03046,-1.01015 0.99641,-0.16607 2.03992,0.19811 3.03046,0 0.7383,-0.14766 1.28986,-0.82754 2.0203,-1.01015 0.65333,-0.16334 1.36698,0.16333 2.02031,0 0.73044,-0.18262 1.32123,-0.73053 2.0203,-1.01016 0.98864,-0.39545 2.04182,-0.61469 3.03046,-1.01015 0.69907,-0.27963 1.30602,-0.77206 2.0203,-1.01015 0.31944,-0.10648 0.67344,0 1.01016,0 0.67343,-0.33672 1.34687,-0.67344 2.0203,-1.01015"
       id="path3087"
       inkscape:connector-curvature="0" />
    <path
       style="fill:none;stroke:#000000;stroke-width:1px;stroke-linecap:butt;stroke-linejoin:miter;stroke-opacity:1"
       d="m 161.62441,134.13352 c -1.68359,0 -3.36718,0 -5.05077,0"
       id="path3089"
       inkscape:connector-curvature="0" />
    <path
       style="fill:none;stroke:#000000;stroke-width:1px;stroke-linecap:butt;stroke-linejoin:miter;stroke-opacity:1"
       d="m 535.38085,49.280705 c 1.35047,4.671383 1.01015,9.371317 1.01015,14.142136 0,2.020305 0.18291,4.048907 0,6.060915 -0.36726,4.039907 -2.14274,8.275068 -3.03046,12.121831 -1.65136,7.155912 -0.16237,5.674959 -3.03045,13.131983 -0.81085,2.108212 -2.1617,3.975897 -3.03046,6.06091 -0.81907,1.96578 -1.13908,4.12221 -2.02031,6.06092 -0.81245,1.7874 -2.1524,3.29466 -3.03045,5.05076 -0.95239,1.90476 -1.2294,4.08364 -2.02031,6.06092 0.35741,1.72416 -1.47736,1.94457 -2.0203,3.03046 -0.30117,0.60233 0.30117,1.41796 0,2.0203 -0.21296,0.42592 -1.01016,1.48634 -1.01016,1.01015 0,-2.20433 3.95339,-4.41485 5.05077,-6.06091 0.83529,-1.25294 1.05628,-2.88379 2.0203,-4.04061 0.77722,-0.93266 2.08244,-1.26189 3.03046,-2.02031 0.74368,-0.59494 1.27662,-1.42535 2.0203,-2.0203 6.26072,-5.00858 0.32978,0.11687 5.05077,-3.03046 1.15348,-0.76899 1.19941,-2.0203 3.03045,-2.0203 0.33672,0 0.0817,0.68348 0,1.01015 -0.25825,1.033 -0.59071,2.05175 -1.01015,3.03046 -0.59318,1.38409 -1.34687,2.69374 -2.0203,4.04061 -1.31518,2.63035 -2.72544,5.45086 -4.04061,8.08122 -0.43664,0.87326 -1.52073,2.51988 -1.01016,3.03045 0.2381,0.2381 0.67344,0 1.01016,0 0.67343,0 1.34687,0 2.0203,0 1.34687,0 2.72581,0.29218 4.04061,0 1.7701,-0.39335 3.34666,-1.40063 5.05076,-2.0203 3.88573,-1.41299 8.23611,-2.62762 12.12183,-4.04061 1.70411,-0.61968 3.31396,-1.49926 5.05077,-2.02031 4.18657,-1.25597 7.89296,-1.01015 12.12183,-1.01015 3.03046,0 6.06091,0 9.09137,0"
       id="path3091"
       inkscape:connector-curvature="0" />
    <path
       style="fill:none;stroke:#000000;stroke-width:1px;stroke-linecap:butt;stroke-linejoin:miter;stroke-opacity:1"
       d="m 436.3859,269.49396 c -0.28563,1.71375 -1.15922,7.9488 -2.02031,10.10153 -1.67777,4.19443 -4.1678,8.02008 -6.06091,12.12183 -1.07462,2.32833 -2.07808,4.69011 -3.03046,7.07106 -1.06846,2.67115 -1.81385,5.47421 -3.03046,8.08122 -1.148,2.46002 -2.82655,4.64297 -4.04061,7.07107 -1.14681,2.29364 -1.88364,4.77743 -3.03045,7.07107 -0.87806,1.7561 -2.15241,3.29466 -3.03046,5.05076 -0.47619,0.95238 -0.6147,2.04182 -1.01015,3.03046 -0.27963,0.69907 -0.82755,1.28986 -1.01016,2.02031 -0.16333,0.65332 0.21296,1.38142 0,2.0203 -0.15058,0.45175 -0.85956,0.5584 -1.01015,1.01015 -0.21296,0.63888 0,1.34687 0,2.02031 0,0.33672 0.15059,0.70898 0,1.01015 -0.21296,0.42592 -0.79719,0.58424 -1.01015,1.01015 -0.15059,0.30117 0.15058,0.70899 0,1.01016 -0.21296,0.42591 -1.34687,1.34687 -1.01015,1.01015 4.63222,-4.63223 -1.27776,0.85183 6.06091,-4.04061 1.79394,-1.19596 3.32593,-2.74699 5.05076,-4.04061 2.31725,-1.73793 4.77519,-3.28471 7.07107,-5.05076 2.08448,-1.60345 3.82119,-3.67247 6.06092,-5.05077 2.18396,-1.34397 4.81982,-1.8025 7.07106,-3.03046 0.79378,-0.43296 5.68149,-4.49492 7.07107,-5.05076 0.62527,-0.25011 2.02031,-0.67343 2.02031,0 0,0.95238 -1.41061,1.28867 -2.02031,2.02031 -1.0778,1.29336 -1.97873,2.72595 -3.03046,4.04061 -5.67103,7.08879 -4.09377,5.36976 -11.11167,11.11168 -1.66869,1.36528 -3.34889,2.71692 -5.05077,4.04061 -1.32894,1.03362 -2.85013,1.83998 -4.04061,3.03045 -0.85846,0.85847 -1.29187,2.05922 -2.0203,3.03046 -0.28572,0.38095 -1.22311,0.58424 -1.01015,1.01015 1.15446,2.30892 2.88615,0.38482 4.04061,0 1.31707,-0.43902 2.74068,-0.52268 4.04061,-1.01015 1.40996,-0.52874 2.64246,-1.46105 4.04061,-2.0203 11.19884,-4.47954 1.17357,0.37632 11.11167,-4.04061 1.37606,-0.61159 2.69374,-1.34687 4.04062,-2.02031 0.67343,-0.33672 1.28986,-0.82754 2.0203,-1.01015 0.43139,-0.10785 6.59773,-0.0947 7.07107,0 1.04411,0.20882 1.98015,0.8351 3.03046,1.01015 0.9964,0.16607 2.0203,0 3.03045,0 2.00865,0 4.05227,0 6.06092,0 1.01015,0 2.03046,-0.14286 3.03046,0 1.37436,0.19634 2.65228,1.01015 4.04061,1.01015 2.04817,0 4.03656,-0.69871 6.06091,-1.01015 2.35327,-0.36204 4.71405,-0.67343 7.07107,-1.01015 0.80403,-0.11486 11.85782,-1.63806 13.13198,-2.02031 1.44234,-0.4327 2.65652,-1.42712 4.04061,-2.0203 2.6327,-1.1283 3.54329,-1.01015 6.06092,-1.01015"
       id="path3093"
       inkscape:connector-curvature="0" />
    <path
       style="fill:none;stroke:#000000;stroke-width:1px;stroke-linecap:butt;stroke-linejoin:miter;stroke-opacity:1"
       d="m 105.05586,334.14372 c -0.51665,2.31427 0.3875,4.74612 0,7.07107 -0.17505,1.05031 -0.87808,1.97389 -1.01015,3.03046 -0.20882,1.67059 0.16753,3.37553 0,5.05076 -0.17084,1.70841 -0.70302,3.36153 -1.01015,5.05076 -0.36639,2.01514 -0.5134,4.0739 -1.01015,6.06092 -0.5165,2.066 -1.50381,3.99491 -2.02031,6.06091 -5.495373,21.9815 3.45745,-8.35202 -3.030456,11.11168 -2.756549,8.26965 0.367191,-0.18284 -1.010152,8.08122 -0.12378,0.74268 -0.827542,1.28986 -1.010153,2.02031 -0.163332,0.65333 0.212959,1.38143 0,2.0203 -0.150584,0.45176 -0.797193,0.58424 -1.010152,1.01016 -0.150585,0.30116 0.238095,0.77205 0,1.01015 -2.090042,2.09004 0.0817,-3.19386 -2.020305,1.01015 -0.30117,0.60234 0.47619,1.54412 0,2.02031 -0.238096,0.23809 -0.772058,-0.2381 -1.010153,0 -0.238095,0.23809 0.336718,1.01015 0,1.01015 -0.336717,0 -0.186777,-0.72999 0,-1.01015 0.528286,-0.79243 1.34687,-1.34687 2.020305,-2.02031 8.640726,-8.64073 -4.028253,4.25136 7.071066,-8.08122 4.14621,-4.6069 6.27476,-6.07076 11.11168,-10.10153 2.02031,-1.68358 4.00735,-3.40791 6.06092,-5.05076 1.18868,-0.95095 7.07106,-4.62103 7.07106,-7.07107 0,-0.47619 -0.72444,0.6292 -1.01015,1.01016 -8.93042,11.90722 6.03682,-6.8746 -5.05076,6.06091 -1.09567,1.27828 -1.99684,2.71167 -3.03046,4.04061 -3.39133,4.36029 -6.88844,8.63366 -10.10153,13.13199 -0.70565,0.98791 -1.26189,2.08244 -2.0203,3.03045 -0.67344,0.67344 -1.34687,1.34687 -2.02031,2.02031 0,0.33672 0.15059,0.70898 0,1.01015 -0.21295,0.42592 -1.01015,0.53396 -1.01015,1.01015 0,0.33672 0.67344,0 1.01015,0 0.67344,0 1.34687,0 2.02031,0 1.01015,0 2.0203,0 3.03046,0 1.01015,0 2.03405,0.16607 3.03045,0 1.05031,-0.17505 2.00664,-0.71763 3.03046,-1.01015 1.33491,-0.3814 2.72353,-0.57113 4.04061,-1.01015 0.71429,-0.2381 1.28986,-0.82754 2.02031,-1.01015 4.1e-4,-1.1e-4 4.84007,-0.10535 5.05076,0 0.42592,0.21295 0.58424,0.79719 1.01015,1.01015 0.30117,0.15058 0.67344,0 1.01016,0 0.67343,0 1.36697,0.16333 2.0203,0 5.72321,-2.86161 -1.50585,0.37646 4.04061,-1.01015 4.87797,-1.2195 -0.0501,-0.48005 3.03046,-2.02031 0.30117,-0.15058 0.69071,0.10648 1.01015,0 0.71429,-0.23809 1.30602,-0.77206 2.02031,-1.01015 0.31943,-0.10648 0.67343,0 1.01015,0 0.33672,0 0.70898,-0.15059 1.01015,0 0.42592,0.21296 0.67344,0.67343 1.01015,1.01015 1.15577,1.15577 1.19579,1.40875 3.03046,2.02031 0.35131,0.1171 4.79306,0.0644 5.05076,0 1.46089,-0.36523 2.56401,-1.72499 4.04061,-2.02031 0.99054,-0.19811 2.05047,0.245 3.03046,0 0.92395,-0.23099 1.34687,-2.69374 2.02031,-2.0203 1.34687,1.34687 -4.04061,0.67343 0,2.0203 0.63887,0.21296 1.34687,0 2.0203,0 2.69832,0 1.99299,0.21296 5.05076,-1.01015 1.39815,-0.55926 2.57973,-1.65509 4.04062,-2.02031 0.65332,-0.16333 1.41796,0.30117 2.0203,0 0.30117,-0.15058 -0.2381,-0.77205 0,-1.01015 0.2381,-0.2381 0.67344,0 1.01015,0 0.33672,0 0.67344,0 1.01016,0 0.71599,0 5.79973,0.13059 6.06091,0 0.42592,-0.21296 0.67344,-0.67343 1.01015,-1.01015"
       id="path3095"
       inkscape:connector-curvature="0" />
    <path
       style="fill:none;stroke:#000000;stroke-width:1px;stroke-linecap:butt;stroke-linejoin:miter;stroke-opacity:1"
       d="m 242.43661,350.30616 c -2.07404,-0.80983 1.77799,-3.51509 1.01015,-5.05076 -0.21296,-0.42592 -0.67343,-0.67343 -1.01015,-1.01015 -0.33672,-0.33672 -0.67343,-0.67344 -1.01015,-1.01015 -1.19033,-1.19033 -2.24552,-2.67144 -4.04061,-3.03046 -0.99054,-0.19811 -2.03405,0.16607 -3.03046,0 -1.05031,-0.17505 -1.96566,-1.01015 -3.03046,-1.01015 -1.06479,0 -2.0203,0.67343 -3.03045,1.01015 -1.01016,0.33672 -2.11741,0.46232 -3.03046,1.01015 -1.38313,0.82988 -4.67975,5.46729 -5.05077,6.06092 -1.7417,2.78672 -3.28499,7.07904 -4.04061,10.10152 -0.49675,1.98702 -0.67343,4.04061 -1.01015,6.06092 -0.33672,2.0203 -0.85306,4.01877 -1.01015,6.06091 -0.18078,2.35008 0,4.71405 0,7.07107 0,5.579 -0.40833,4.12668 1.01015,9.09137 0.29252,1.02383 0.34498,2.199 1.01015,3.03046 0.75842,0.94802 2.08245,1.26189 3.03046,2.02031 0.74369,0.59494 1.20365,1.5303 2.02031,2.0203 0.91305,0.54783 2.1174,0.46232 3.03046,1.01015 8.35249,5.0115 -3.0729,0.24193 4.04061,2.02031 0.73044,0.18261 1.26738,1.01015 2.0203,1.01015 0.75292,0 1.37468,-0.62278 2.02031,-1.01015 3.75553,-2.25332 4.68264,-3.48843 7.07106,-7.07107 0.67344,-1.01015 1.47737,-1.94458 2.02031,-3.03046 1.24825,-3.74474 0.53396,-2.07807 2.0203,-5.05076 0.33672,-0.67344 0.5584,-1.41797 1.01016,-2.02031 1.50941,-2.01255 2.41918,-1.59549 3.03045,-4.04061 0.16334,-0.65332 -0.30117,-1.41796 0,-2.0203 1.34687,-2.69374 1.01016,3.03046 1.01016,-1.01015 0,-0.33672 0,-0.67344 0,-1.01016 0,-0.33671 0.33671,-1.01015 0,-1.01015 -0.47619,0 -0.85957,0.5584 -1.01016,1.01015 -0.63887,0.90648 0.31944,2.07215 0,3.03046 -0.23809,0.71429 -0.82754,1.28986 -1.01015,2.02031 -0.11875,0.47501 -0.4056,4.04061 1.01015,4.04061 0.47619,0 0.58424,-0.7972 1.01016,-1.01016 1.39336,-0.69668 0.90355,1.22336 2.0203,-1.01015 0.69668,-1.39336 -1.22335,-0.90355 1.01015,-2.0203 0.30117,-0.15059 0.67344,0 1.01016,0 0.33671,0 0.70898,-0.15059 1.01015,0 0.42592,0.21296 0.67343,0.67343 1.01015,1.01015 0.33672,0.33672 0.74601,0.61394 1.01015,1.01015 0.41765,0.62647 0.59251,1.39384 1.01016,2.02031 0.92524,1.38787 2.43184,1.69855 4.04061,2.0203 1.92818,0.38564 3.21066,-0.39678 5.05076,-1.01015 1.01015,-0.33672 2.1174,-0.46232 3.03046,-1.01015 0.81666,-0.49 1.20364,-1.53031 2.0203,-2.02031 0.91306,-0.54783 2.04182,-0.6147 3.03046,-1.01015 3.4834,-1.39336 0.58376,-0.90355 5.05076,-2.02031 0.32667,-0.0817 0.69072,0.10648 1.01016,0 0.71428,-0.23809 1.28986,-0.82754 2.0203,-1.01015 3.06567,-0.76641 1.14165,0.0657 3.03046,1.01015 0.30117,0.15059 0.69071,-0.10647 1.01015,0 1.42857,0.4762 2.57972,1.65509 4.04061,2.02031 0.65333,0.16333 1.34687,0 2.02031,0 1.34687,0 2.70414,0.16706 4.04061,0 2.02944,-0.25368 5.0583,-1.34938 7.07106,-2.02031 1.01016,-0.33671 1.98634,-0.80132 3.03046,-1.01015 2.81384,-0.56277 1.92893,1.10153 4.04061,-1.01015"
       id="path3097"
       inkscape:connector-curvature="0" />
    <path
       style="fill:none;stroke:#000000;stroke-width:1px;stroke-linecap:butt;stroke-linejoin:miter;stroke-opacity:1"
       d="M 370.72598,231.10816 508.10673,347.27571"
       id="path3099"
       inkscape:connector-curvature="0" />
    <path
       style="fill:none;stroke:#000000;stroke-width:1px;stroke-linecap:butt;stroke-linejoin:miter;stroke-opacity:1"
       d="m 110.10663,456.37218 0,84.85281"
       id="path3101"
       inkscape:connector-curvature="0" />
    <path
       style="fill:none;stroke:#000000;stroke-width:1px;stroke-linecap:butt;stroke-linejoin:miter;stroke-opacity:1"
       d="m 219.2031,461.42294 c -1.01015,1.68359 -2.34107,3.21239 -3.03046,5.05077 -0.35468,0.94583 0.31944,2.07214 0,3.03045 -0.38391,1.15176 -1.39568,1.98942 -2.0203,3.03046 -0.38738,0.64563 -0.73052,1.32123 -1.01015,2.02031 -0.39546,0.98863 -0.46232,2.1174 -1.01016,3.03045 -0.48999,0.81666 -1.5303,1.20365 -2.0203,2.02031 -0.54783,0.91305 -0.53396,2.07808 -1.01015,3.03046 -0.54294,1.08588 -1.39568,1.98941 -2.02031,3.03045 -0.77475,1.29126 -1.46105,2.64247 -2.0203,4.04061 -0.39546,0.98864 -0.6147,2.04183 -1.01016,3.03046 -1.51195,3.77989 -0.65884,0.30753 -3.03045,5.05077 -0.47619,0.95238 -0.6147,2.04182 -1.01016,3.03045 -0.82586,2.06466 -2.03559,4.0712 -3.03045,6.06092 -0.33672,0.67343 -0.59251,1.39383 -1.01016,2.0203 -0.26414,0.39622 -0.89466,0.54818 -1.01015,1.01016 -0.245,0.97999 0.245,2.05046 0,3.03045 -0.11549,0.46198 -0.74601,0.61394 -1.01015,1.01016 -2.22553,0.5087 -0.53396,2.07807 -1.01015,3.03045 -0.21296,0.42592 -0.7972,0.58424 -1.01016,1.01016 -0.30117,0.60233 0.30117,1.41796 0,2.0203 -0.21296,0.42592 -0.79719,0.58424 -1.01015,1.01015 -0.15058,0.30117 0.15059,0.70899 0,1.01016 -0.21296,0.42591 -0.79719,0.58423 -1.01015,1.01015 -0.40406,0.80812 0.40406,2.22233 0,3.03046 -0.21296,0.42591 -0.7972,0.58423 -1.01015,1.01015 -0.15059,0.30117 0.23809,0.77206 0,1.01015 -0.2381,0.2381 -0.77206,-0.23809 -1.01016,0 -0.23809,0.2381 0,0.67344 0,1.01015 0,0.33672 0,0.67344 0,1.01016 0,0.33671 -0.33671,1.01015 0,1.01015 0.47619,0 0.85957,-0.5584 1.01016,-1.01015 0.21295,-0.63888 -0.16334,-1.36698 0,-2.02031 0.36522,-1.46088 1.46104,-2.64247 2.0203,-4.04061 0.39546,-0.98864 0.53396,-2.07808 1.01015,-3.03046 0.54294,-1.08588 1.41797,-1.97636 2.02031,-3.03045 0.74711,-1.30744 1.22221,-2.76366 2.0203,-4.04061 0.8923,-1.42768 2.02031,-2.69374 3.03046,-4.04061 2.02031,-2.69374 3.9053,-5.49449 6.06092,-8.08122 0.6097,-0.73164 1.34687,-1.34687 2.0203,-2.02031 0.67344,-0.67343 1.34687,-1.34687 2.02031,-2.0203 0.33671,-0.33672 0.53396,-1.01016 1.01015,-1.01016 0.77013,0 2.0185,3.02322 2.0203,3.03046 0.16334,0.65333 -0.21295,1.38143 0,2.02031 0.15059,0.45175 0.91677,0.5432 1.01016,1.01015 0.26414,1.32071 -0.19048,2.70727 0,4.04061 0.15058,1.05409 1.01015,1.96566 1.01015,3.03046 0,0.20634 -1.97,5.70879 -2.02031,6.06091 -0.19047,1.33333 0.22143,2.71207 0,4.04061 -1.16073,6.96442 -1.01015,-0.80901 -1.01015,3.03046 0,0.33672 -0.23809,0.77206 0,1.01015 0.2381,0.2381 0.67344,0 1.01015,0 1.24398,0 1.86972,0.15059 3.03046,-1.01015 0.5324,-0.5324 0.5584,-1.41797 1.01015,-2.02031 0.57143,-0.7619 1.34687,-1.34687 2.02031,-2.0203 1.01015,-1.01015 1.933,-2.11591 3.03046,-3.03046 1.82846,-1.52372 3.07854,-2.04435 5.05076,-3.03046 0.87327,-0.43663 2.51988,-1.52073 3.03046,-1.01015 0.23809,0.2381 0,0.67344 0,1.01015 0,1.23308 -0.39198,2.32939 1.01015,3.03046 0.89894,0.44947 2.64124,-0.85446 3.03046,-1.01015 10.05076,-3.35026 -2.38095,0.95238 5.05076,-2.02031 0.98864,-0.39545 2.07808,-0.53396 3.03046,-1.01015 1.0863,-0.54315 3.53881,-2.65247 5.05076,-3.03046 0.65333,-0.16333 1.41797,0.30117 2.02031,0 0.30117,-0.15058 -0.2381,-0.77205 0,-1.01015 0.23809,-0.23809 0.70898,0.15059 1.01015,0 0.42592,-0.21296 0.58423,-0.79719 1.01015,-1.01015 0.28786,-0.14393 4.8608,0 2.02031,0"
       id="path3103"
       inkscape:connector-curvature="0" />
    <path
       style="fill:none;stroke:#000000;stroke-width:1px;stroke-linecap:butt;stroke-linejoin:miter;stroke-opacity:1"
       d="m 430.32498,434.14882 c -1.2393,4.02773 -2.80131,8.09411 -4.04061,12.12184 -0.7209,2.34294 -1.1099,4.79505 -2.0203,7.07106 -1.11852,2.79629 -2.98314,5.26129 -4.04061,8.08122 -0.97495,2.59986 -1.1921,5.43097 -2.02031,8.08122 -5.69513,15.18702 -0.70186,0.94131 -5.05076,16.16244 -3.68857,12.91001 -0.68864,-0.75816 -3.03046,12.12184 -0.30713,1.68923 -0.63769,3.37471 -1.01015,5.05076 -0.30117,1.35526 -0.83795,2.66301 -1.01015,4.04061 -0.16706,1.33647 0,2.69374 0,4.04061 0,0.67343 0.21296,1.38143 0,2.0203 -0.15059,0.45176 -0.7972,0.58424 -1.01015,1.01016 -0.15059,0.30117 0.33671,1.01015 0,1.01015 -0.33672,0 0,-0.67344 0,-1.01015 0,-0.67344 -0.16334,-1.36698 0,-2.02031 0.18261,-0.73044 0.67343,-1.34687 1.01015,-2.0203 0.67343,-1.34687 1.289,-2.72427 2.0203,-4.04061 0.95351,-1.71631 1.72606,-3.58332 3.03046,-5.05077 1.4324,-1.61144 3.44819,-2.59829 5.05076,-4.04061 3.67688,-3.30919 6.42465,-6.79233 10.10153,-10.10152 1.60257,-1.44232 3.43931,-2.60822 5.05076,-4.04061 6.56409,-5.83475 1.18375,-2.61218 8.08122,-6.06092 0.87327,-0.43663 2.51988,-1.52073 3.03046,-1.01015 0.2381,0.23809 0,0.67343 0,1.01015 0,1.01015 0.31944,2.07214 0,3.03046 -0.38392,1.15175 -1.41797,1.97636 -2.02031,3.03046 -3.4825,6.09438 -0.36659,2.68527 -6.06091,9.09137 -1.26546,1.42364 -2.8712,2.53708 -4.04061,4.04061 -8.78605,11.29635 2.01089,0.009 -6.06092,8.08122 -0.1307,0.1307 -3.50914,3.08323 -3.03045,4.04061 0.30117,0.60234 1.35603,0.11071 2.0203,0 1.36943,-0.22824 2.74069,-0.52268 4.04061,-1.01015 1.40997,-0.52874 2.69374,-1.34687 4.04061,-2.02031 2.69374,-1.34687 5.31304,-2.85424 8.08122,-4.04061 3.40487,-1.45923 3.22654,-0.73879 7.07107,-2.0203 0.71429,-0.2381 1.28986,-0.82754 2.02031,-1.01015 0.11788,-0.0295 4.95251,-0.0328 5.05076,0 0.90351,0.30116 1.09636,1.78931 2.0203,2.0203 0.97999,0.245 2.03405,-0.16607 3.03046,0 1.05031,0.17505 1.97637,0.85957 3.03046,1.01015 1.33333,0.19048 2.69374,0 4.04061,0 4.37733,0 8.75465,0 13.13198,0 0.85431,0 3.91905,0 5.05076,0 0.67344,0 1.34687,0 2.02031,0 0.33672,0 0.70898,0.15059 1.01015,0 0.42592,-0.21296 0.67344,-0.67343 1.01015,-1.01015"
       id="path3105"
       inkscape:connector-curvature="0" />
    <path
       style="fill:none;stroke:#000000;stroke-width:1px;stroke-linecap:butt;stroke-linejoin:miter;stroke-opacity:1"
       d="m 386.88842,360.40769 c -1.92747,7.7099 0.0437,0.2642 -3.03045,10.10152 -1.04857,3.35542 -1.82909,6.79775 -3.03046,10.10153 -1.49592,4.11378 -3.42506,8.05758 -5.05076,12.12183 -1.7418,4.35449 -3.09668,8.86853 -5.05077,13.13198 -1.75789,3.8354 -4.247,7.30246 -6.06091,11.11168 -1.55918,3.27428 -2.49643,6.82015 -4.04061,10.10153 -1.15591,2.45631 -2.74067,4.68784 -4.04061,7.07106 -0.72108,1.32198 -1.34687,2.69374 -2.02031,4.04062 -0.33671,0.67343 -0.77205,1.30601 -1.01015,2.0203 -0.10648,0.31944 -0.33672,1.01015 0,1.01015 0.47619,0 0.6292,-0.72444 1.01015,-1.01015 9.26109,-6.94581 -5.11689,4.90825 7.07107,-6.06092 1.95475,-1.75927 4.04061,-3.36717 6.06092,-5.05076 2.0203,-1.68359 3.93406,-3.50396 6.06091,-5.05076 1.58786,-1.15481 3.36718,-2.02031 5.05076,-3.03046 1.68359,-1.01015 3.34607,-2.05634 5.05077,-3.03046 1.44146,-0.82369 2.79517,-1.48071 3.03045,-1.01015 0.79709,1.59418 -1.56474,5.93216 -2.0203,7.07107 -0.67344,1.68359 -1.40063,3.34665 -2.02031,5.05076 -0.72777,2.00138 -1.22939,4.08364 -2.0203,6.06092 -0.67685,1.69211 -2.75581,3.85441 -2.02031,6.06091 0.7355,2.2065 2.85613,0.16921 4.04061,0 1.33334,-0.19047 2.7199,0.26415 4.04061,0 4.14454,-0.8289 9.34059,-3.59253 13.13199,-5.05076 1.98764,-0.76448 4.04061,-1.34687 6.06091,-2.02031 2.95435,-0.98478 10.2661,-3.51954 13.13199,-4.04061 1.32514,-0.24093 2.70414,0.16706 4.04061,0 12.52674,-1.56584 -2.99276,-0.343 7.07106,-2.0203 0.99641,-0.16607 2.03405,0.16607 3.03046,0 1.05031,-0.17505 2.02031,-0.67344 3.03046,-1.01015 1.34687,0 2.70414,0.16706 4.04061,0 3.97447,-0.49681 7.59672,-2.28313 11.11168,-4.04061"
       id="path3107"
       inkscape:connector-curvature="0" />
    <path
       style="fill:none;stroke:#000000;stroke-width:1px;stroke-linecap:butt;stroke-linejoin:miter;stroke-opacity:1"
       d="m 263.64981,822.0474 c 0,8.57278 0.33412,7.64873 -1.01015,16.16244 -0.58714,3.71855 -1.10725,7.45947 -2.0203,11.11168 -3.24806,12.99223 -8.70695,25.74282 -13.13199,38.3858 -1.6979,4.85115 -3.41203,9.11353 -4.04061,14.14213 -0.12529,1.00236 -0.37516,2.09256 0,3.03046 0.35371,0.88426 1.08642,1.83353 2.02031,2.02031 1.04412,0.20882 2.14449,-0.41951 3.03046,-1.01016 2.18816,-1.45877 4.05332,-3.35203 6.06091,-5.05076 2.36984,-2.00525 4.72512,-4.02776 7.07107,-6.06091 2.70488,-2.34423 5.21773,-4.92346 8.08122,-7.07107 2.54127,-1.90595 5.46946,-3.24262 8.08122,-5.05077 1.77268,-1.22724 3.16604,-2.99354 5.05076,-4.04061 1.21361,-0.67422 2.65229,-1.01015 4.04061,-1.01015 2.04311,0 0.61125,6.48559 1.01016,8.08122 0.16594,0.66378 2.55792,7.23397 4.04061,8.08122 0.57476,0.32844 11.09261,2.02031 11.11167,2.02031 2.38096,0 4.73636,-0.54321 7.07107,-1.01015 6.98764,-1.39753 10.27042,-2.75004 17.17259,-5.05077 21.37223,-7.12407 -2.3928,0.53935 17.1726,-5.05076 2.04765,-0.58504 4.02114,-1.40837 6.06091,-2.02031 1.32977,-0.39893 2.79886,-0.38927 4.04061,-1.01015 4.5168,-2.2584 0.26946,-2.0203 3.03046,-2.0203"
       id="path3109"
       inkscape:connector-curvature="0" />
    <path
       style="fill:none;stroke:#000000;stroke-width:1px;stroke-linecap:butt;stroke-linejoin:miter;stroke-opacity:1"
       d="m 446.48743,847.30122 c -3.57621,-0.59604 -7.42024,-1.57807 -11.11168,-1.01016 -9.36734,1.44113 -17.13063,6.02495 -24.24366,12.12183 -4.93818,4.23273 -7.53403,7.14116 -10.10153,13.13199 -0.96563,2.25313 -1.42577,4.69292 -2.0203,7.07106 -0.64516,2.58064 -1.69183,7.37484 -1.01016,10.10153 0.29445,1.1778 1.08765,2.25324 2.02031,3.03046 1.75502,1.46251 8.53809,3.67982 10.10152,4.04061 2.31998,0.53538 4.71781,0.64811 7.07107,1.01015 8.36506,1.28693 3.48382,1.01015 11.11168,1.01015 1.68359,0 3.41744,0.40833 5.05076,0 1.17781,-0.29445 1.94458,-1.47736 3.03046,-2.0203 0.95238,-0.47619 2.07808,-0.53396 3.03046,-1.01015 0.42591,-0.21296 0.58423,-0.7972 1.01015,-1.01016 1.61624,-0.80812 0.74078,0.47141 1.01015,1.01016 0.21296,0.42591 0.7972,0.58423 1.01015,1.01015 0.15059,0.30117 -0.30116,0.85957 0,1.01015 0.60234,0.30117 1.34687,0 2.02031,0 1.01015,0 2.03405,0.16607 3.03046,0 1.0503,-0.17505 1.99745,-0.7519 3.03046,-1.01015 1.66566,-0.41642 3.42194,-0.46721 5.05076,-1.01015 1.42857,-0.47619 2.69374,-1.34687 4.04061,-2.02031 9.197,-4.5985 -0.36065,-0.0578 7.07107,-3.03046 0.69907,-0.27963 1.30602,-0.77205 2.0203,-1.01015 1.14109,-0.38036 2.09979,0.69993 3.03046,1.01015 0.31944,0.10648 0.67343,0 1.01015,0 0.67344,0 1.35603,-0.11071 2.02031,0 1.36943,0.22824 2.66301,0.83796 4.04061,1.01016 1.33647,0.16705 2.69374,0 4.04061,0 2.0203,0 4.0641,0.3072 6.06091,0 2.42284,-0.37275 4.67414,-1.50668 7.07107,-2.02031 2.3281,-0.49888 4.74297,-0.51127 7.07107,-1.01015 4.79385,-1.02726 9.365,-2.9382 14.14213,-4.04061 1.99572,-0.46055 4.04578,-0.64377 6.06092,-1.01016 3.23472,-0.58813 8.9983,-2.34265 12.12183,0 0.60234,0.45176 0.5584,1.41797 1.01015,2.02031 3.32788,4.43717 1.09902,-0.74354 3.03046,5.05076"
       id="path3111"
       inkscape:connector-curvature="0" />
  </g>
</svg>
